<svg xmlns="http://www.w3.org/2000/svg" xmlns:xlink="http://www.w3.org/1999/xlink" viewBox="298.5 234.63 150.53 172.32"><defs><clipPath id="freepik--clip-path--inject-86"><rect x="100.87" y="214.45" width="93.53" height="144.42" transform="translate(295.27 573.32) rotate(180)" style="fill:#E6CE07;stroke:#263238;stroke-linecap:round;stroke-linejoin:round"/></clipPath><clipPath id="freepik--clip-path-2--inject-86"><rect x="80.16" y="214.45" width="20.7" height="144.42" transform="translate(181.03 573.32) rotate(180)" style="fill:#E6CE07;stroke:#263238;stroke-linecap:round;stroke-linejoin:round"/></clipPath><clipPath id="freepik--clip-path-3--inject-86"><rect x="107.91" y="225.17" width="78.89" height="35.07" transform="translate(294.71 485.41) rotate(180)" style="fill:#E6CE07;stroke:#263238;stroke-linecap:round;stroke-linejoin:round"/></clipPath><clipPath id="freepik--clip-path-4--inject-86"><rect x="107.91" y="264.07" width="78.89" height="35.07" transform="translate(294.71 563.21) rotate(180)" style="fill:#E6CE07;stroke:#263238;stroke-linecap:round;stroke-linejoin:round"/></clipPath><clipPath id="freepik--clip-path-5--inject-86"><rect x="107.91" y="302.97" width="78.89" height="35.07" transform="translate(294.71 641.01) rotate(180)" style="fill:#E6CE07;stroke:#263238;stroke-linecap:round;stroke-linejoin:round"/></clipPath><clipPath id="freepik--clip-path-6--inject-86"><path d="M243.92,129.22s-.77,5.75-3.78,9.21c0,0,12.66,18.53,27.24,4.07l-3.32-10.93Z" style="fill:#fff;stroke:#263238;stroke-linecap:round;stroke-linejoin:round"/></clipPath><clipPath id="freepik--clip-path-7--inject-86"><path d="M365.78,355l5.2,2.93a9.29,9.29,0,0,0,6.73.92c10.37-2.54,40.68-9.12,48.16-1.48,9.06,9.26,3.51,19.59-9.29,24.93s-46.72,11.95-46.72,11.95L367.44,391l-6,1.45s-3.33,3.43-10.66,4.37c0,0-8-10.26-4.26-21.5,0,0,1.49-2.39,10.11-1.5l6.58-.17-8.5-9v-6.95Z" style="fill:#E6CE07;stroke:#263238;stroke-linecap:round;stroke-linejoin:round"/></clipPath><clipPath id="freepik--clip-path-8--inject-86"><path d="M318.42,350.77s-6.53,14.1-3.26,24.35,14,16.33,29.29,12.27l48.68,7.35s5.33-5.05,3.55-18.61l-38.21-13.2a23.92,23.92,0,0,0-1.8-10.23Z" style="fill:#E6CE07;stroke:#263238;stroke-linecap:round;stroke-linejoin:round"/></clipPath><clipPath id="freepik--clip-path-9--inject-86"><path d="M351,266s-2.42,12-7.25,16.43a2.83,2.83,0,0,0,0,4.11c5.13,4.92,16.8,14.2,23.73,4.63,0,0-10.69-14.21-10.85-20.46Z" style="fill:#fff;stroke:#263238;stroke-linecap:round;stroke-linejoin:round"/></clipPath></defs><g id="freepik--character-2--inject-86"><path d="M365.78,355l5.2,2.93a9.29,9.29,0,0,0,6.73.92c10.37-2.54,40.68-9.12,48.16-1.48,9.06,9.26,3.51,19.59-9.29,24.93s-46.72,11.95-46.72,11.95L367.44,391l-6,1.45s-3.33,3.43-10.66,4.37c0,0-8-10.26-4.26-21.5,0,0,1.49-2.39,10.11-1.5l6.58-.17-8.5-9v-6.95Z" style="fill:#E6CE07"/><g style="clip-path:url(#freepik--clip-path-7--inject-86)"><path d="M387.94,355s-17.52,4.89-15.95,9,28.12-5,30,0-30.08,13.07-30.08,13.07L377,394.74l-12.33,4.85-29.89-30.18,15-20H378.5Z" style="opacity:0.2"/></g><path d="M365.78,355l5.2,2.93a9.29,9.29,0,0,0,6.73.92c10.37-2.54,40.68-9.12,48.16-1.48,9.06,9.26,3.51,19.59-9.29,24.93s-46.72,11.95-46.72,11.95L367.44,391l-6,1.45s-3.33,3.43-10.66,4.37c0,0-8-10.26-4.26-21.5,0,0,1.49-2.39,10.11-1.5l6.58-.17-8.5-9v-6.95Z" style="fill:none;stroke:#263238;stroke-linecap:round;stroke-linejoin:round"/><path d="M350.82,396.84s-8-10.26-4.26-21.5c0,0,1.49-2.39,10.11-1.5l6.58-.17c8.23,5.53,4.19,17.35,4.19,17.35l-6,1.45S358.15,395.9,350.82,396.84Z" style="fill:#263238;stroke:#263238;stroke-linecap:round;stroke-linejoin:round"/><path d="M369.84,370.05s31.48-2.75,30.3-5.37S386.9,368,381,367.29" style="fill:none;stroke:#263238;stroke-linecap:round;stroke-linejoin:round"/><path d="M356.67,373.84s-1.4,4.82,2.74,2.66,4.09,5.2,4.47,8.81-5.95,2-4.15,3.1,1.75,4.06,1.75,4.06-3.33,3.43-10.66,4.37c0,0-8-10.26-4.26-21.5C346.56,375.34,348.05,373,356.67,373.84Z" style="fill:#fff;stroke:#263238;stroke-linecap:round;stroke-linejoin:round"/><path d="M372,361.56s-3.55-1.29-11.65.56" style="fill:none;stroke:#263238;stroke-linecap:round;stroke-linejoin:round"/><path d="M350.58,373.78c-.62,11.48,3.28,19.31,4.9,22a24.64,24.64,0,0,1-4.66,1s-8-10.26-4.26-21.5C346.56,375.34,347.28,374.19,350.58,373.78Z" style="fill:#E6CE07;stroke:#263238;stroke-linecap:round;stroke-linejoin:round"/><path d="M391.14,377.09l10.61,1.18s.61-1.79,10-.17,20.36,2.1,21.26,9.5a41,41,0,0,1-3.18,12.23,5.18,5.18,0,0,1-6,3.05,17.5,17.5,0,0,1-8.68-5.87s-12.27-1.7-15-4.9l-10.35-3Z" style="fill:#fff;stroke:#263238;stroke-linecap:round;stroke-linejoin:round"/><path d="M405.58,391.89c.56-1.2-5.86-.18-4.85-6.9s3.74-3.11,4.88-4.83-3.86-1.89-3.86-1.89.61-1.79,10-.17,20.36,2.1,21.26,9.5a41,41,0,0,1-3.18,12.23,5.18,5.18,0,0,1-6,3.05,17.5,17.5,0,0,1-8.68-5.87s-12.27-1.7-15-4.9C400.14,392.11,405,393.09,405.58,391.89Z" style="fill:#263238;stroke:#263238;stroke-linecap:round;stroke-linejoin:round"/><path d="M433,387.6a41,41,0,0,1-3.18,12.23,5.18,5.18,0,0,1-6,3.05,14.46,14.46,0,0,1-3.82-1.66,18.93,18.93,0,0,1-.39-12.53c1.26-4.55,3.74-6.83,6.15-7.95C429.67,382,432.57,384,433,387.6Z" style="fill:#fff;stroke:#263238;stroke-linecap:round;stroke-linejoin:round"/><path d="M433,387.6a41,41,0,0,1-3.18,12.23,5.18,5.18,0,0,1-6,3.05l-.48-.15c1.82-.9,3.34-3.51,4.95-9.37s.57-9.79-.26-11.76C430.75,382.86,432.66,384.7,433,387.6Z" style="fill:#E6CE07;stroke:#263238;stroke-linecap:round;stroke-linejoin:round"/><path d="M318.42,350.77s-6.53,14.1-3.26,24.35,14,16.33,29.29,12.27l48.68,7.35s5.33-5.05,3.55-18.61l-38.21-13.2a23.92,23.92,0,0,0-1.8-10.23Z" style="fill:#E6CE07"/><g style="clip-path:url(#freepik--clip-path-8--inject-86)"><path d="M340.34,390.06s12.9-4.47-7.73-6-17.43-23.39-17.43-23.39l-10.56-1s-10.76-14.6-3.67,8.7l7.09,23.3s2,1.52,13.93,1.65l11.91.12Z" style="opacity:0.2"/><path d="M353.44,350.77l7.86,7.59L359,362.93S344,356.44,330,359s-16.74-2.79-12.93-4.54l-5.5-1.5,1-4.64,29.33-1.15Z" style="opacity:0.2"/></g><path d="M318.42,350.77s-6.53,14.1-3.26,24.35,14,16.33,29.29,12.27l48.68,7.35s5.33-5.05,3.55-18.61l-38.21-13.2a23.92,23.92,0,0,0-1.8-10.23Z" style="fill:none;stroke:#263238;stroke-linecap:round;stroke-linejoin:round"/><path d="M341.83,384.68c1.05,1.09-6.11,3-16.82-2.38" style="fill:none;stroke:#263238;stroke-linecap:round;stroke-linejoin:round"/><path d="M326.24,379.65c3.22,2,8.17,4.46,12.73,4.49" style="fill:none;stroke:#263238;stroke-linecap:round;stroke-linejoin:round"/><path d="M322.73,377.26s.54.42,1.47,1.06" style="fill:none;stroke:#263238;stroke-linecap:round;stroke-linejoin:round"/><path d="M350.57,360.9a41.24,41.24,0,0,0-9.41-1.16" style="fill:none;stroke:#263238;stroke-linecap:round;stroke-linejoin:round"/><path d="M354.75,362.12s-.62-.23-1.67-.55" style="fill:none;stroke:#263238;stroke-linecap:round;stroke-linejoin:round"/><path d="M441.55,397.74h2.92a1.14,1.14,0,0,1,1.14,1.14v6.83a0,0,0,0,1,0,0h-5.2a0,0,0,0,1,0,0v-6.83A1.14,1.14,0,0,1,441.55,397.74Z" transform="translate(886.02 803.46) rotate(180)" style="fill:#263238;stroke:#263238;stroke-linecap:round;stroke-linejoin:round"/><path d="M414.87,397.74h2.92a1.14,1.14,0,0,1,1.14,1.14v6.83a0,0,0,0,1,0,0h-5.2a0,0,0,0,1,0,0v-6.83A1.14,1.14,0,0,1,414.87,397.74Z" transform="translate(832.67 803.46) rotate(180)" style="fill:#263238;stroke:#263238;stroke-linecap:round;stroke-linejoin:round"/><path d="M414.45,389.81l1.86-2a6.11,6.11,0,0,0,.83-1.18l3.59-6.79a5.19,5.19,0,0,1,4.58-2.75h9.29a5.19,5.19,0,0,1,4.58,2.75l3.59,6.79a5.35,5.35,0,0,0,.83,1.18l1.86,2a8.87,8.87,0,0,1,2.35,6v4.59H412.1v-4.59A8.87,8.87,0,0,1,414.45,389.81Z" style="fill:#fff;stroke:#263238;stroke-linecap:round;stroke-linejoin:round"/><path d="M417.9,388.47a18.7,18.7,0,0,1,4.91,5.67,3.81,3.81,0,0,0,3.34,2.17h7.6a3.81,3.81,0,0,0,3.34-2.17,18.85,18.85,0,0,1,4.91-5.67" style="fill:none;stroke:#263238;stroke-linecap:round;stroke-linejoin:round"/><circle cx="442.84" cy="393.09" r="1.96" style="fill:#E6CE07;stroke:#263238;stroke-linecap:round;stroke-linejoin:round"/><path d="M415.11,393.09a2,2,0,1,0,2-1.95A2,2,0,0,0,415.11,393.09Z" style="fill:#E6CE07;stroke:#263238;stroke-linecap:round;stroke-linejoin:round"/><line x1="440.88" y1="398.27" x2="419.03" y2="398.27" style="fill:none;stroke:#263238;stroke-linecap:round;stroke-linejoin:round"/><path d="M430.09,388.14h-.27c-7.19,0-10.94-1.54-12.29-2.26l3.2-6.05a5.19,5.19,0,0,1,4.58-2.75h9.29a5.19,5.19,0,0,1,4.58,2.75l3.2,6.05C441,386.6,437.27,388.14,430.09,388.14Z" style="fill:#E6CE07;stroke:#263238;stroke-linecap:round;stroke-linejoin:round"/><path d="M443.57,397.74a1,1,0,1,0,1-1A1,1,0,0,0,443.57,397.74Z" style="fill:#E6CE07;stroke:#263238;stroke-linecap:round;stroke-linejoin:round"/><path d="M414.29,397.74a1,1,0,1,0,1-1A1,1,0,0,0,414.29,397.74Z" style="fill:#E6CE07;stroke:#263238;stroke-linecap:round;stroke-linejoin:round"/><path d="M430,394.25v-4a13.86,13.86,0,0,0,5.3-.59" style="fill:none;stroke:#263238;stroke-linecap:round;stroke-linejoin:round"/><path d="M379.92,291.88a8.4,8.4,0,0,1,4,8.95c-.71,3.51-1.92,8.76-3.92,15.74-4.05,14.12-12.16,33.21-8.63,40.46,0,0-21.47,4.82-56-5.57,0,0,4.24-58.18,16.58-66.23C341.4,279.07,367.18,284.52,379.92,291.88Z" style="fill:#263238;stroke:#263238;stroke-linecap:round;stroke-linejoin:round"/><path d="M351,266s-2.42,12-7.25,16.43a2.83,2.83,0,0,0,0,4.11c5.13,4.92,16.8,14.2,23.73,4.63,0,0-10.69-14.21-10.85-20.46Z" style="fill:#fff"/><g style="clip-path:url(#freepik--clip-path-9--inject-86)"><path d="M351.67,270.36s-7.2,10.57,3.46,19.18S370.34,294,370.34,294l-10.53-13.33Z" style="fill:#263238"/></g><path d="M351,266s-2.42,12-7.25,16.43a2.83,2.83,0,0,0,0,4.11c5.13,4.92,16.8,14.2,23.73,4.63,0,0-10.69-14.21-10.85-20.46Z" style="fill:none;stroke:#263238;stroke-linecap:round;stroke-linejoin:round"/><path d="M385.5,274.67h0a8.35,8.35,0,0,0-3.06,4.12,17.41,17.41,0,0,1-6.6,8.92c-6.15,4.1-7.72,6.87-12.06,4.82s-13.23-8.41-12.95-16.88c0-1.34.84-5.29.84-5.29l3.67-17.5,27-4.7,6.39,7,3.38,10.61-2.34,4.17A14.29,14.29,0,0,1,385.5,274.67Z" style="fill:#fff;stroke:#263238;stroke-linecap:round;stroke-linejoin:round"/><path d="M365.71,235.86c6.5,0,16.16-.12,23.88,10.25,0,0,9.16,6.27,5.91,17.36-2.36,8-7.11,9.11-9.56,9.09a11,11,0,0,0,4.41-6.24,16.6,16.6,0,0,1-6.83,5.19,30.06,30.06,0,0,0-6.95-5.06,12.72,12.72,0,0,0,5.82-6.07,25.59,25.59,0,0,1-8.73,4.91,10.87,10.87,0,0,0-3.7-.49c-7.14.36-4-7.08-4-7.08s-4.94,5.27-9.52,6.72-5.31,8.9-5.31,8.9-5.53-3.41-5.6-15.62S352.54,235.94,365.71,235.86Z" style="fill:#263238;stroke:#263238;stroke-linecap:round;stroke-linejoin:round"/><path d="M385.25,246.9s9.55-3.82,12.37,1.35S393.37,245.45,385.25,246.9Z" style="fill:#263238;stroke:#263238;stroke-linecap:round;stroke-linejoin:round"/><path d="M380.22,276.63c-.4.77-.42,1.55,0,1.74s1-.27,1.39-1,.42-1.55,0-1.75S380.61,275.86,380.22,276.63Z" style="fill:#263238"/><path d="M373.16,273c-.39.77-.41,1.55,0,1.74s1-.27,1.4-1,.42-1.55,0-1.75S373.56,272.22,373.16,273Z" style="fill:#263238"/><polyline points="376.52 277.61 376.52 282.42 372.37 281.46" style="fill:none;stroke:#263238;stroke-linecap:round;stroke-linejoin:round"/><path d="M384.58,275.43s.14-1.67-1.22-2.09" style="fill:none;stroke:#263238;stroke-linecap:round;stroke-linejoin:round"/><path d="M378.7,270.69s-1.8-2.36-5.85-1.79" style="fill:none;stroke:#263238;stroke-linecap:round;stroke-linejoin:round"/><path d="M356.59,265.36s-.2-5.52-3.86-5.68c-3-.13-4,3.64-4.1,5.81s.32,7.91,3.78,7.1" style="fill:#fff;stroke:#263238;stroke-linecap:round;stroke-linejoin:round"/><path d="M351.8,253.57a23.86,23.86,0,0,0-1,2.32" style="fill:none;stroke:#7f7f7f;stroke-linecap:round;stroke-linejoin:round"/><path d="M373.84,257.75c-4.55-.43,5.15-13.77,1.42-15.22s-8.54,8.37-11.6,7.48c-2.51-.73-6.92-3.66-10.6,1.43" style="fill:none;stroke:#7f7f7f;stroke-linecap:round;stroke-linejoin:round"/><path d="M386,261.18c-.1-4.13.51-11.74-2-14.47-3.15-3.36-4.76,5.34-7.44,9.26" style="fill:none;stroke:#7f7f7f;stroke-linecap:round;stroke-linejoin:round"/><path d="M389.1,256.14c.37,2.38.23,5-1.32,7" style="fill:none;stroke:#7f7f7f;stroke-linecap:round;stroke-linejoin:round"/><path d="M387.14,250a23.61,23.61,0,0,1,1,2.33" style="fill:none;stroke:#7f7f7f;stroke-linecap:round;stroke-linejoin:round"/><path d="M370.34,284.69s-4.27-1.13-5.79-4.54" style="fill:none;stroke:#263238;stroke-linecap:round;stroke-linejoin:round"/><path d="M364.9,348.94c1.62-.35,2.54-.59,2.54-.59" style="fill:none;stroke:#7f7f7f;stroke-linecap:round;stroke-linejoin:round"/><path d="M321.46,348.35c13.45,5.46,32.5,2.75,41.25,1" style="fill:none;stroke:#7f7f7f;stroke-linecap:round;stroke-linejoin:round"/><path d="M353.67,354.86c-17.4.8-25.73-2.11-29.47-4.3" style="fill:none;stroke:#7f7f7f;stroke-linecap:round;stroke-linejoin:round"/><path d="M359.73,354.46c-1.15.1-2.27.18-3.35.25" style="fill:none;stroke:#7f7f7f;stroke-linecap:round;stroke-linejoin:round"/><path d="M345,338.58l-4.8-4.93,1.25-14.81,5.49-5.12,1.72-8.36,3.82-7,3.31.78a2.66,2.66,0,0,1,2,2.82l-.25,3a4.53,4.53,0,0,0-.76,9l-1.47,17.47a4.53,4.53,0,1,0-.75,9l0,.35-2.94,3.77-4.2-.35a2.92,2.92,0,0,1-2.66-3.15Z" style="fill:#E6CE07;stroke:#263238;stroke-linecap:round;stroke-linejoin:round"/><polygon points="346.86 322.77 342.07 323.5 342.55 317.81 346.94 313.72 347.66 313.27 346.86 322.77" style="fill:#fff;stroke:#263238;stroke-linecap:round;stroke-linejoin:round"/><polygon points="341.3 332.68 341.93 325.21 346.72 324.47 345.86 334.69 344.26 335.57 341.3 332.68" style="fill:#fff;stroke:#263238;stroke-linecap:round;stroke-linejoin:round"/><circle cx="357.21" cy="309.53" r="3.62" transform="translate(-47.89 66.02) rotate(-9.9)" style="fill:#fff;stroke:#263238;stroke-linecap:round;stroke-linejoin:round"/><path d="M357.09,311a1.45,1.45,0,0,0,.24-2.89,1.45,1.45,0,1,0-.24,2.89Z" style="fill:#E6CE07;stroke:#263238;stroke-linecap:round;stroke-linejoin:round"/><path d="M354.68,339.64a3.62,3.62,0,1,0-3.31-3.92A3.62,3.62,0,0,0,354.68,339.64Z" style="fill:#fff;stroke:#263238;stroke-linecap:round;stroke-linejoin:round"/><path d="M354.86,337.47a1.45,1.45,0,1,0,.25-2.89,1.45,1.45,0,0,0-.25,2.89Z" style="fill:#E6CE07;stroke:#263238;stroke-linecap:round;stroke-linejoin:round"/><path d="M352.48,298.37l2.13.5L353.48,300a5.22,5.22,0,0,0-.74.89l-.27.38a5.83,5.83,0,0,1-2.74,2.16Z" style="fill:#fff;stroke:#263238;stroke-linecap:round;stroke-linejoin:round"/><line x1="350.74" y1="319.69" x2="349.73" y2="329" style="fill:#E6CE07;stroke:#263238;stroke-linecap:round;stroke-linejoin:round"/><line x1="351.36" y1="314.04" x2="351.15" y2="315.97" style="fill:#E6CE07;stroke:#263238;stroke-linecap:round;stroke-linejoin:round"/><path d="M326.57,332.85l9.32,3s-2.91-10-.52-12.41,5.79-5.56,7.57-4.49c2.17,1.31-1.87,3.45-1.87,3.45s4-3.08,4.5-1.2-4.7,4.91-4.7,4.91,4.84-3.16,5.37-1.28-4.48,4.46-4.48,4.46l-.89,1.52s3.59-2.4,4.7-1.52-3.32,4.82-3.32,4.82l.31,3.18s.16,6.85-2.92,7.27S325,341.62,325,341.62Z" style="fill:#fff;stroke:#263238;stroke-linecap:round;stroke-linejoin:round"/><line x1="339.64" y1="323.43" x2="337.19" y2="325.8" style="fill:none;stroke:#263238;stroke-linecap:round;stroke-linejoin:round"/><path d="M339.64,326.61l-1.22,1.17-.42,2.7s-.54-3.24-1.25-3-1.1-2.33-1.1-2.33" style="fill:none;stroke:#263238;stroke-linecap:round;stroke-linejoin:round"/><path d="M332.13,347.2c-7.19-.05-24.33-8.41-29.76-13.14s.41-21.1,9.12-33.57c6.17-8.82,17.09-14.29,22.95-16.73a3.23,3.23,0,0,1,4.49,2.83c.25,5.18-.53,13.87-7.49,19.33-10.44,8.21-15,20.65-15,20.65,8.79,3.53,16.11,7.31,16.11,7.31A15.46,15.46,0,0,1,332.13,347.2Z" style="fill:#263238;stroke:#263238;stroke-linecap:round;stroke-linejoin:round"/><path d="M319.62,343.68c-.85-.36-1.71-.73-2.57-1.12" style="fill:none;stroke:#7f7f7f;stroke-linecap:round;stroke-linejoin:round"/><path d="M318.87,327.55c7.7,3.21,13.73,6.33,13.73,6.33a15.46,15.46,0,0,1-.4,13.32c-2.52,0-6.27-1.06-10.31-2.61" style="fill:none;stroke:#7f7f7f;stroke-linecap:round;stroke-linejoin:round"/><path d="M327,310.11a50.37,50.37,0,0,0-4.79,5.95,54.44,54.44,0,0,0-2.92,4.73" style="fill:none;stroke:#7f7f7f;stroke-linecap:round;stroke-linejoin:round"/><path d="M331.51,305.92c-.9.71-1.76,1.46-2.58,2.22" style="fill:none;stroke:#7f7f7f;stroke-linecap:round;stroke-linejoin:round"/><path d="M305.39,327.34c-.49.28-1,.6-1.53,1" style="fill:none;stroke:#7f7f7f;stroke-linecap:round;stroke-linejoin:round"/><path d="M306.75,321.51s7.87,2,7.7,4.11c-.14,1.81-2.34-1.31-7.67,1" style="fill:none;stroke:#7f7f7f;stroke-linecap:round;stroke-linejoin:round"/><path d="M423.15,365.11l1,2.91a59.23,59.23,0,0,0-3.42,5.7c-.43,1.18-1.13,4.92-1.13,4.92a1,1,0,0,0,1.53,1.08,4.3,4.3,0,0,0,1.38-1.62c1.21-2.39,2.63-5.65,5.11-5.39a18.11,18.11,0,0,1,8.31,3.54c1.15,1.09,3.42,5.32,3.42,5.32s1.9,2.91,3.54,2.53.76-1,0-4.31a3.16,3.16,0,0,0,.94-3.79s1.29-2.16.31-3.55.93-2.62-1.69-5.16-5.86-1.32-7.79-5.35S423.15,365.11,423.15,365.11Z" style="fill:#fff;stroke:#263238;stroke-linecap:round;stroke-linejoin:round"/><path d="M441.76,378.27a2.77,2.77,0,0,0,.64-3.16c-.76-2,.86-3.14-.21-5.7" style="fill:none;stroke:#263238;stroke-linecap:round;stroke-linejoin:round"/><path d="M379.92,291.88s29.93,25.79,37.53,31.14,18.49,38.75,18.49,38.75-3.55,6.63-13.42,5.36l-17.23-31.66-28.76-22.54S369.49,301.22,379.92,291.88Z" style="fill:#263238;stroke:#263238;stroke-linecap:round;stroke-linejoin:round"/><path d="M415.68,327.83s-4.05-.78-7.85,4.95" style="fill:none;stroke:#7f7f7f;stroke-linecap:round;stroke-linejoin:round"/><path d="M382.32,304.46a19.13,19.13,0,0,1-.62,6.65c-1.69,5.46,3.72-5.31,5.07-5.19" style="fill:none;stroke:#7f7f7f;stroke-linecap:round;stroke-linejoin:round"/><path d="M381.31,298.11s.32,1.15.6,2.87" style="fill:none;stroke:#7f7f7f;stroke-linecap:round;stroke-linejoin:round"/></g></svg>