<svg xmlns="http://www.w3.org/2000/svg" viewBox="282.98 171.18 163.15 294.6">

  <g id="freepik--speech-bubble-2--inject-58">
    <path d="M317,171.69c18.49,0,33.48,11.7,33.48,26.13,0,11.09-8.86,20.57-21.35,24.36l10.78,14.7L321,223.77c-1.3.12-2.62.19-4,.19-18.49,0-33.47-11.71-33.47-26.14S298.5,171.69,317,171.69Z" style="fill:#263238"/>
    <path d="M339.9,237.38a.52.52,0,0,1-.29-.09l-18.79-13c-1.32.12-2.58.18-3.83.18-18.73,0-34-12-34-26.64s15.24-26.63,34-26.63,34,11.94,34,26.63c0,10.9-8.23,20.5-21,24.63l10.37,14.13a.5.5,0,0,1-.05.64A.48.48,0,0,1,339.9,237.38ZM321,223.27a.54.54,0,0,1,.28.08l16.49,11.42-9-12.29a.54.54,0,0,1-.07-.46.55.55,0,0,1,.33-.32c12.76-3.87,21-13.25,21-23.88,0-14.13-14.8-25.63-33-25.63s-33,11.5-33,25.63,14.79,25.64,33,25.64c1.28,0,2.56-.07,3.92-.19Z" style="fill:#263238"/>
    <path d="M316.6,220h-.39c-5.3-.11-10.33-2.25-12.21-5.21-1.1-1.74-.72-3.4.37-5.19-4.62,1.77-10.07,2-13.87-2-3.21-3.41-2.31-8.69-.57-12.18,2-4,5.1-6.31,8-6a8.55,8.55,0,0,1,5.86,4.05,30,30,0,0,1,7.21,1.95l2.08.73c.21-2.19-1-3.87-2.35-5.74-2.72,1.84-5.59,2.35-7.43,1.2-1.12-.7-2.75-2.59-1.24-7.5.89-2.88,3.3-4.73,6.85-5.29a8.52,8.52,0,0,1,4.76-4.12c4.82-1.77,11.65,0,17.83,4.48a.51.51,0,0,1,.11.7.5.5,0,0,1-.7.11c-5.91-4.34-12.39-6-16.89-4.35a7.56,7.56,0,0,0-3.87,3,19.85,19.85,0,0,1,8.1,1.24c1.58-2.11,3.08-3.61,4.66-3.52,1.14.06,2.14.92,3.07,2.61a17.25,17.25,0,0,1,1.37,12.68l.21.83c1.22,4.74,2.61,10.12,5.24,11.29a2.78,2.78,0,0,0,1.34.24c2.29-3.74,4.41-7,6.39-8.69a12.49,12.49,0,0,0-.11-1.52c-.51-3.68-2.64-6.53-5.32-7.1s-3.18,0-3.33.18c-.34.5.2,1.6.51,2.05a.5.5,0,0,1-.82.57c-.14-.2-1.32-2-.53-3.17.6-.9,2-1.1,4.38-.61,3.08.65,5.54,3.85,6.1,7.95,0,.31.07.62.09.94a2.77,2.77,0,0,1,3-.16,4.23,4.23,0,0,1,1.95,3.44c.43,4.27-2.74,10.73-7.21,14.7-1.64,1.46-3.11,2.06-4.48,1.82s-2.7-1.47-3.85-3.15c-.63,1-1.28,2-1.92,2.91C326.38,217.85,321.9,220,316.6,220ZM306.09,208.8c-1.67,2.24-2.29,3.77-1.25,5.4,1.69,2.66,6.48,4.65,11.39,4.75,3,.05,8.57-.56,11.89-5.35.72-1,1.43-2.14,2.14-3.27-.55-.9-1.09-1.88-1.66-2.91-.78-1.41-1.58-2.86-2.49-4.27-1.34-2.05-3.06-2.91-5-2.5a7.35,7.35,0,0,0-3.5,2.1,10.86,10.86,0,0,1,6.24,1.13A4.55,4.55,0,0,1,326,209a7.19,7.19,0,0,1-8.39,5.73c-3-.5-4.69-2.68-4.26-5.56a12.79,12.79,0,0,1,1.95-5,13,13,0,0,0-5.15,2.18A22,22,0,0,1,306.09,208.8Zm10.59-5a12.17,12.17,0,0,0-2.32,5.44c-.42,2.77,1.5,4.1,3.43,4.42a6.21,6.21,0,0,0,7.25-4.92,3.58,3.58,0,0,0-1.69-4.06C321.69,203.73,319.17,203.52,316.68,203.85Zm14.76,6.48c1.09,1.68,2.18,2.88,3.44,3.09,1.05.18,2.25-.33,3.65-1.58,4.18-3.72,7.27-9.93,6.88-13.85a3.25,3.25,0,0,0-1.47-2.68c-.7-.41-1.53-.18-2.43.5a9.61,9.61,0,0,1-5.08,8.51,6,6,0,0,1-1.69.61l-1,1.67C333,207.83,332.22,209.09,331.44,210.33Zm-34-20c-2.31,0-4.91,2.14-6.57,5.47s-2.46,8,.4,11c3.81,4,9.68,3.21,14.23,1.1.5-.66,1.06-1.34,1.65-2.06a48.34,48.34,0,0,0,5-6.94,8.26,8.26,0,0,0,.8-1.87c-.75-.25-1.49-.52-2.23-.78a34.45,34.45,0,0,0-6.25-1.82,12,12,0,0,1,1,2.61c.92,3.66-.18,7-2.92,8.85-2.36,1.61-4.57,1.48-5.93-.34-1.93-2.59-1.47-8,2-10.79a6.44,6.44,0,0,1,4-1.43,7.3,7.3,0,0,0-4.71-3A2.82,2.82,0,0,0,297.4,190.36Zm24.66,9.19a5.89,5.89,0,0,1,4.89,3.06c.93,1.43,1.74,2.9,2.52,4.32.48.86.94,1.69,1.39,2.45.68-1.1,1.35-2.21,2-3.3l.65-1.09a3.77,3.77,0,0,1-1.14-.3c-3-1.32-4.37-6.38-5.66-11.4-.1.22-.21.44-.32.65a7.82,7.82,0,0,1-6.17,4.44,16.65,16.65,0,0,1-6.4-1,9.44,9.44,0,0,1-.88,2.05,48.28,48.28,0,0,1-5.08,7.08l-.19.23a18.84,18.84,0,0,0,1.86-1.28,14.93,14.93,0,0,1,6.62-2.58,9,9,0,0,1,4.75-3.24A5.67,5.67,0,0,1,322.06,199.55Zm-19.15-5.17a5.68,5.68,0,0,0-3.73,1.22c-3.06,2.48-3.5,7.18-1.83,9.42,1,1.38,2.65,1.42,4.56.11,2.42-1.65,3.34-4.49,2.52-7.77a10.61,10.61,0,0,0-1.24-3Zm37.51,2.41a45.16,45.16,0,0,0-4.89,6.85l.43-.2A8.43,8.43,0,0,0,340.42,196.79ZM314,196.43a16.16,16.16,0,0,0,6.11.95,6.82,6.82,0,0,0,5.37-3.91,11.17,11.17,0,0,0,.78-1.84,35.68,35.68,0,0,0-1.89-5.87c-.88-1.86-3.1-3.53-5.83-4.66-.44.6-.89,1.25-1.34,1.9a37.92,37.92,0,0,1-4.7,5.91c-.33.31-.67.6-1,.87h0C312.94,191.74,314.39,193.75,314,196.43ZM308.4,179.9a6.71,6.71,0,0,0-5.39,4.46c-1,3.17-.69,5.42.8,6.36s4,.42,6.33-1.17c-1.55-2.19-3-4.74-2.1-8.45A10.51,10.51,0,0,1,308.4,179.9Zm10.8.36c2.85,1.23,5.15,3,6.11,5.07a26.88,26.88,0,0,1,1.48,4.26,16.36,16.36,0,0,0-1.7-10.14c-.74-1.35-1.49-2-2.24-2.09C321.79,177.29,320.52,178.54,319.2,180.26Zm-9.64-.56a10.06,10.06,0,0,0-.55,1.63c-.79,3.29.47,5.55,1.93,7.63a11,11,0,0,0,.91-.78,37.39,37.39,0,0,0,4.57-5.75c.4-.59.8-1.16,1.19-1.7a18.91,18.91,0,0,0-7.43-1.09Z" style="fill:#E6CE07"/>
  </g>
  <g id="freepik--character-2--inject-58">
    <path d="M436.13,465.26a1.83,1.83,0,0,0,.33,0,2.49,2.49,0,0,0,2.15-2.8l-11.47-87a2.5,2.5,0,1,0-5,.65l11.47,87A2.5,2.5,0,0,0,436.13,465.26Z" style="fill:#fff"/>
    <path d="M436.13,465.76a3,3,0,0,1-3-2.6l-11.47-87a3,3,0,0,1,2.58-3.37,3,3,0,0,1,3.37,2.58l11.47,87a3,3,0,0,1-2.59,3.37A2.55,2.55,0,0,1,436.13,465.76Zm-11.47-92-.26,0a2,2,0,0,0-1.72,2.24l11.47,87a2,2,0,1,0,4-.53l-11.47-87A2,2,0,0,0,424.66,373.75Z" style="fill:#263238"/>
    <path d="M378.38,465.26a1.83,1.83,0,0,0,.33,0,2.5,2.5,0,0,0,2.16-2.8l-11.47-87a2.5,2.5,0,1,0-5,.65l11.47,87A2.49,2.49,0,0,0,378.38,465.26Z" style="fill:#fff"/>
    <path d="M378.38,465.76a3,3,0,0,1-3-2.6l-11.47-87a3,3,0,0,1,.6-2.22,2.92,2.92,0,0,1,2-1.15,3,3,0,0,1,3.36,2.58l11.47,87a3,3,0,0,1-2.58,3.37A2.68,2.68,0,0,1,378.38,465.76Zm-11.46-92-.26,0a2,2,0,0,0-1.33.77,2,2,0,0,0-.4,1.47l11.47,87a2,2,0,0,0,4-.53l-11.47-87A2,2,0,0,0,366.92,373.75Z" style="fill:#263238"/>
    <path d="M382.52,242.18h63.05L430.23,353.79a20.75,20.75,0,0,1-4.88,10.79l-3.21,3.7-63.05-1.67h0a140.52,140.52,0,0,0,13-43.42Z" style="fill:#fff"/>
    <path d="M422.14,368.78h0l-63.05-1.67a.52.52,0,0,1-.41-.24.48.48,0,0,1,0-.48,139.49,139.49,0,0,0,12.93-43.26l10.46-81a.49.49,0,0,1,.49-.43h63.05a.5.5,0,0,1,.5.57L430.73,353.86a21.25,21.25,0,0,1-5,11.05l-3.2,3.7A.52.52,0,0,1,422.14,368.78Zm-62.26-2.65,62,1.64,3.05-3.52a20.29,20.29,0,0,0,4.77-10.53l15.26-111H383l-10.39,80.57A141,141,0,0,1,359.88,366.13Z" style="fill:#263238"/>
    <path d="M306.41,465.26a1.83,1.83,0,0,1-.33,0,2.49,2.49,0,0,1-2.15-2.8l11.47-87a2.5,2.5,0,1,1,5,.65l-11.47,87A2.49,2.49,0,0,1,306.41,465.26Z" style="fill:#fff"/>
    <path d="M306.41,465.76a2.68,2.68,0,0,1-.4,0,3,3,0,0,1-2-1.15,3,3,0,0,1-.59-2.22l11.47-87a3,3,0,0,1,3.37-2.58,2.92,2.92,0,0,1,2,1.15,3,3,0,0,1,.6,2.22l-11.47,87A3,3,0,0,1,306.41,465.76Zm11.46-92a2,2,0,0,0-1.21.42,2,2,0,0,0-.77,1.32l-11.47,87a2,2,0,0,0,.4,1.48,2,2,0,0,0,1.32.77,2,2,0,0,0,2.25-1.72l11.47-87a2,2,0,0,0-1.72-2.24Z" style="fill:#263238"/>
    <path d="M364.15,465.26a1.83,1.83,0,0,1-.33,0,2.49,2.49,0,0,1-2.15-2.8l11.47-87a2.5,2.5,0,1,1,5,.65l-11.47,87A2.5,2.5,0,0,1,364.15,465.26Z" style="fill:#fff"/>
    <path d="M364.15,465.76a2.55,2.55,0,0,1-.39,0,3,3,0,0,1-2.59-3.37l11.47-87a3,3,0,0,1,3.37-2.58,3,3,0,0,1,2.58,3.37l-11.47,87A3,3,0,0,1,364.15,465.76Zm11.47-92a2,2,0,0,0-2,1.74l-11.47,87a2,2,0,1,0,4,.53l11.47-87a2,2,0,0,0-1.72-2.24Z" style="fill:#263238"/>
    <rect x="311.15" y="372.49" width="116.17" height="5.64" transform="translate(738.47 750.62) rotate(180)" style="fill:#fff"/>
    <path d="M427.32,378.63H311.15a.51.51,0,0,1-.5-.5v-5.64a.5.5,0,0,1,.5-.5H427.32a.5.5,0,0,1,.5.5v5.64A.5.5,0,0,1,427.32,378.63Zm-115.67-1H426.82V373H311.65Z" style="fill:#263238"/>
    <rect x="311.15" y="372.49" width="61.66" height="5.64" transform="translate(683.96 750.62) rotate(180)" style="fill:#fff"/>
    <path d="M372.81,378.63H311.15a.51.51,0,0,1-.5-.5v-5.64a.5.5,0,0,1,.5-.5h61.66a.5.5,0,0,1,.5.5v5.64A.5.5,0,0,1,372.81,378.63Zm-61.16-1h60.66V373H311.65Z" style="fill:#263238"/>
    <path d="M427.32,372.49s-4.64-5.83-9-6.23-96.5,0-99.66,0-7.52,6.23-7.52,6.23Z" style="fill:#fff"/>
    <path d="M427.32,373H311.15a.48.48,0,0,1-.44-.27.49.49,0,0,1,0-.52c.18-.26,4.54-6.44,7.93-6.44l6.21,0c22.2-.08,89.74-.32,93.5,0,4.51.41,9.14,6.17,9.33,6.42a.49.49,0,0,1,.06.53A.5.5,0,0,1,427.32,373Zm-115.18-1H426.23c-1.43-1.58-4.81-4.95-7.94-5.23-2.46-.22-33.89-.23-93.4,0l-6.22,0C316.6,366.76,313.65,370,312.14,372Z" style="fill:#263238"/>
    <path d="M345.33,367.89a30.08,30.08,0,0,1-8.59-1.66c-5-1.67-4.44-5.55-.56-7.77S345.33,359.29,345.33,367.89Z" style="fill:gray"/>
    <path d="M345.33,368.39a30.3,30.3,0,0,1-8.75-1.69c-2.37-.79-3.77-2.15-3.93-3.82s1.05-3.58,3.29-4.85a5.47,5.47,0,0,1,5.62,0c2.72,1.57,4.27,5.17,4.27,9.85A.5.5,0,0,1,345.33,368.39Zm-6.59-10.13a4.67,4.67,0,0,0-2.31.63c-1.85,1.06-2.92,2.55-2.79,3.89s1.28,2.31,3.26,3a32,32,0,0,0,7.93,1.62c-.11-4.06-1.47-7.13-3.77-8.47A4.69,4.69,0,0,0,338.74,358.26Z" style="fill:#263238"/>
    <path d="M345.33,313l-8.74,39.66,10.08-1,10.09-31.26S352.72,313.37,345.33,313Z" style="fill:#fff"/>
    <path d="M336.59,353.2a.48.48,0,0,1-.37-.17.5.5,0,0,1-.12-.44l8.74-39.66a.47.47,0,0,1,.51-.39c7.58.34,11.67,7.34,11.84,7.64a.47.47,0,0,1,0,.4l-10.08,31.26a.51.51,0,0,1-.43.35l-10.08,1Zm9.14-39.64-8.5,38.57,9.07-.91,9.91-30.72C355.53,319.43,351.84,314.07,345.73,313.56Z" style="fill:#263238"/>
    <path d="M366.17,276.06s-13.11.34-15.13,3.36S336.93,312,336.93,312l14.79,6.72-1,16.81s-4.37,1.68-5,3.69-2,6.72-2,6.72a124.79,124.79,0,0,0,18.49,3.37c8.4.67,14.45.67,18.15.67s12.43,4,13.78,6.72.67,8.07,2,7.73,5.72-5.38,5.72-13.44-2.69-36-2.69-36-.34-26.55-2.36-31.59-17.14-6.39-17.14-6.39Z" style="fill:#E6CE07"/>
    <path d="M396,365a.84.84,0,0,1-.5-.17c-.59-.41-.72-1.43-.92-3.34a14.06,14.06,0,0,0-.92-4.52c-1.18-2.35-9.65-6.44-13.33-6.44s-9.77,0-18.2-.68a125.91,125.91,0,0,1-18.57-3.37.53.53,0,0,1-.31-.24.5.5,0,0,1,0-.38s1.35-4.74,2-6.75,3.95-3.43,5-3.88l1-16.15-14.48-6.58a.5.5,0,0,1-.26-.64c.5-1.21,12.15-29.66,14.17-32.69s14.16-3.55,15.53-3.59h0l13.44,1c.64.06,15.46,1.44,17.57,6.7,2,5.07,2.37,30.69,2.39,31.78,0,.23,2.69,28,2.69,36S398,364.5,396.2,365A1,1,0,0,1,396,365Zm-51.69-19.36a122.64,122.64,0,0,0,17.9,3.22c8.39.67,14.48.67,18.12.67s12.78,4.11,14.22,7a15,15,0,0,1,1,4.86A7.75,7.75,0,0,0,396,364c1-.29,5.27-5.1,5.27-13s-2.66-35.64-2.69-35.92-.36-26.56-2.32-31.46c-1.56-3.9-12.6-5.7-16.72-6.07l-13.41-1c-3.6.1-13.17.84-14.7,3.14-1.83,2.75-12.37,28.36-13.89,32.07l14.35,6.52a.49.49,0,0,1,.29.49l-1,16.81a.52.52,0,0,1-.32.43c-1.16.45-4.26,1.92-4.75,3.39S344.63,344.36,344.27,345.62Z" style="fill:#263238"/>
    <line x1="351.72" y1="318.75" x2="352.05" y2="292.2" style="fill:#fff"/>
    <path d="M351.72,319.25h0a.49.49,0,0,1-.49-.51l.33-26.55a.51.51,0,0,1,.5-.49h0a.49.49,0,0,1,.49.5l-.33,26.56A.51.51,0,0,1,351.72,319.25Z" style="fill:#263238"/>
    <path d="M368.28,341.11h-.79a25.22,25.22,0,0,1-13.74-5.16.5.5,0,0,1-.07-.7.5.5,0,0,1,.71-.07,24.66,24.66,0,0,0,13.14,4.93,34.78,34.78,0,0,0,8.56-1.1c4.82-1,9.37-2,12.91.87a.51.51,0,0,1,.08.71.52.52,0,0,1-.71.07c-3.17-2.58-7.49-1.65-12.07-.68A38.11,38.11,0,0,1,368.28,341.11Z" style="fill:#263238"/>
    <path d="M360.52,342.73a86.55,86.55,0,0,1-12.58-1,.5.5,0,1,1,.16-1c.14,0,14.45,2.3,23.64-.33a.5.5,0,0,1,.62.34.49.49,0,0,1-.34.62A43.36,43.36,0,0,1,360.52,342.73Z" style="fill:#263238"/>
    <path d="M365.35,264s-1.78,17-1.27,18.57,5.85,8.64,11.95,5.59,7.12-6.36,7.12-6.36l-1.52-9.4-15.26-9.67Z" style="fill:#fff"/>
    <path d="M373,289.45a7.82,7.82,0,0,1-3-.63,13.35,13.35,0,0,1-6.34-6.06c-.51-1.55.95-15.92,1.25-18.78a.54.54,0,0,1,.11-.26l1-1.27a.5.5,0,0,1,.65-.11L381.89,272a.5.5,0,0,1,.23.35l1.52,9.4a.44.44,0,0,1,0,.23c-.05.14-1.15,3.55-7.38,6.66A7.27,7.27,0,0,1,373,289.45Zm-7.12-25.22c-.68,6.56-1.62,17.18-1.28,18.21a12.3,12.3,0,0,0,5.77,5.45,6.39,6.39,0,0,0,5.49-.14c5.26-2.64,6.6-5.41,6.83-6l-1.47-9.06-14.69-9.31Z" style="fill:#263238"/>
    <path d="M366.74,263l-1.33,5.17s6.65,11.37,16,16.21a7.45,7.45,0,0,0,1.73-2.55l-1.52-9.4Z" style="fill:#263238"/>
    <path d="M381.52,285l-.33-.17c-9.38-4.85-15.94-15.94-16.21-16.41l-.1-.17,1.55-6,15.65,9.91,1.58,9.75,0,.11a8,8,0,0,1-1.85,2.75ZM366,268.09c.87,1.43,7,11.19,15.36,15.67a7.31,7.31,0,0,0,1.33-2l-1.47-9-14.12-8.94Z" style="fill:#263238"/>
    <path d="M390.23,244.83s4.67-4.42,5.16-9.83-9.09-7.86-9.09-7.86,5.4-2-.49-2.95-20.64-1.48-26.05,2.95-5.9,9.33-5.9,9.33-4.91,0-5.4,2.46,3.68,2.21,3.68,2.21-8.1,7.62-6.88,12.53,10.08,10.82,12,11.8,5.16,3.19,7.87.74,2-7.87,2.95-10.82,5.4-7.86,6.88-8.35,4.17.25,8.1-.74S390.23,244.83,390.23,244.83Z" style="fill:#263238"/>
    <path d="M362.38,267.83a10.3,10.3,0,0,1-4.59-1.54l-.71-.37c-2.16-1.08-11-7.09-12.3-12.13-1-4.2,4.09-10,6.18-12.18a4,4,0,0,1-2.58-1.05,1.91,1.91,0,0,1-.41-1.73c.47-2.38,4.18-2.78,5.46-2.84a16.34,16.34,0,0,1,6-9.24c5.36-4.38,19.87-4.15,26.45-3.06,2.12.36,3.09.88,3.17,1.69s-.62,1.26-1.35,1.67c2.7.91,8.59,3.44,8.18,8-.51,5.53-5.12,10-5.32,10.15a.43.43,0,0,1-.26.13s-3.22.5-7.09,1.47a21.82,21.82,0,0,1-5.77.56,8.24,8.24,0,0,0-2.3.16c-1.2.4-5.59,5.12-6.56,8a18.51,18.51,0,0,0-.59,3.6c-.28,2.67-.58,5.69-2.5,7.43A4.49,4.49,0,0,1,362.38,267.83Zm-10.24-27.19a.5.5,0,0,1,.46.31.49.49,0,0,1-.11.56c-.08.07-7.88,7.47-6.74,12s10,10.57,11.78,11.47l.73.39c2,1,4.44,2.36,6.57.42,1.63-1.48,1.92-4.29,2.17-6.78a18.87,18.87,0,0,1,.64-3.81c1-3,5.44-8.09,7.2-8.67a8.44,8.44,0,0,1,2.62-.22,20.63,20.63,0,0,0,5.52-.53c3.42-.86,6.31-1.35,7-1.46.69-.69,4.47-4.7,4.9-9.41.45-4.92-8.62-7.31-8.72-7.33a.49.49,0,0,1-.37-.46.49.49,0,0,1,.33-.49c1-.38,1.91-1,1.93-1.21h0s-.18-.42-2.34-.78c-6.42-1.07-20.54-1.33-25.64,2.84s-5.71,9-5.72,9a.5.5,0,0,1-.5.45c-1.25,0-4.58.38-4.91,2.06a.94.94,0,0,0,.18.88c.62.71,2.37.77,3,.73Zm38.09,4.19h0Z" style="fill:#263238"/>
    <path d="M375.24,242.62s-3.44,2.95-5.9,5.4-5.65,4.67-5.4,8.36,2.21,5.89.74,7.12-4.67-1.72-5.41-2.95-6.39.25-5.65,3.94a7.07,7.07,0,0,0,7.12,5.65,5.91,5.91,0,0,0,4.67-2,25.31,25.31,0,0,0,13.76,10.08c9.34,2.7,17.69-3.44,19.17-10.08s-7.62-26.29-7.62-26.29l-4.42,1.47,1-2.45s-5.16,5.16-8.6,5.4S375.24,242.62,375.24,242.62Z" style="fill:#fff"/>
    <path d="M383.72,279.4a17.26,17.26,0,0,1-4.69-.67A25.74,25.74,0,0,1,365.34,269a6.72,6.72,0,0,1-4.6,1.67,7.63,7.63,0,0,1-7.61-6.06c-.47-2.32,1.24-3.87,3-4.55,1.37-.53,3-.61,3.57.27s2.5,2.74,3.86,3a.92.92,0,0,0,.79-.15c.59-.49.39-1.25-.08-2.78a16.6,16.6,0,0,1-.83-3.93c-.22-3.31,2.07-5.46,4.3-7.54.42-.4.85-.8,1.25-1.2,2.44-2.44,5.89-5.4,5.93-5.43a.49.49,0,0,1,.53-.08.5.5,0,0,1,.29.46,4.08,4.08,0,0,0,1,2.61,2.41,2.41,0,0,0,1.91.57c3.21-.23,8.23-5.21,8.28-5.26a.5.5,0,0,1,.63-.06.52.52,0,0,1,.19.6l-.59,1.46,3.4-1.13a.49.49,0,0,1,.61.26c.38.81,9.15,19.89,7.66,26.61a14.38,14.38,0,0,1-6.83,8.84A16.19,16.19,0,0,1,383.72,279.4Zm-18.31-11.73h0a.52.52,0,0,1,.4.24,24.87,24.87,0,0,0,13.47,9.85,15.3,15.3,0,0,0,12.18-1.5,13.37,13.37,0,0,0,6.36-8.2c1.31-5.88-6.12-22.73-7.4-25.56l-4,1.33a.52.52,0,0,1-.53-.13.51.51,0,0,1-.1-.53l.17-.42c-1.85,1.58-4.9,3.88-7.28,4.05a3.4,3.4,0,0,1-2.66-.84,4.37,4.37,0,0,1-1.21-2.35c-1.13,1-3.41,3-5.15,4.77-.41.41-.85.81-1.28,1.22-2.15,2-4.17,3.91-4,6.74a15.17,15.17,0,0,0,.79,3.71c.48,1.55.89,2.9-.23,3.84a2,2,0,0,1-1.61.37c-1.79-.3-3.94-2.44-4.55-3.45-.11-.18-1-.35-2.35.15-.67.26-2.81,1.27-2.38,3.43a6.55,6.55,0,0,0,6.63,5.25,5.39,5.39,0,0,0,4.27-1.77A.54.54,0,0,1,365.41,267.67Z" style="fill:#263238"/>
    <path d="M386.79,258.11a.5.5,0,0,1-.5-.5.5.5,0,0,1,.5-.5c.09,0,2.26,0,2.45-1.77a1.06,1.06,0,0,0-.25-.86,4.48,4.48,0,0,0-2.73-1,.52.52,0,0,1-.39-.25l-1.47-2.45a.49.49,0,0,1,.17-.69.5.5,0,0,1,.68.17l1.35,2.24a5.21,5.21,0,0,1,3.15,1.37,2.1,2.1,0,0,1,.49,1.62C390,257.55,387.88,258.11,386.79,258.11Z" style="fill:#263238"/>
    <path d="M377.85,253.22c.44,1,.35,2-.21,2.25s-1.37-.35-1.81-1.34-.35-2,.21-2.25S377.4,252.23,377.85,253.22Z" style="fill:#263238"/>
    <path d="M388.76,249.5c.44,1,.35,2-.21,2.24s-1.37-.35-1.81-1.34-.35-2,.2-2.25S388.31,248.51,388.76,249.5Z" style="fill:#263238"/>
    <path d="M390.48,263.26c.44,1,.35,2-.21,2.24s-1.37-.35-1.81-1.34-.35-2,.2-2.25S390,262.27,390.48,263.26Z" style="fill:#263238"/>
    <path d="M371.8,251.23l-.13,0a.5.5,0,0,1-.35-.61c0-.17,1.11-4.06,3.68-4.06a.5.5,0,0,1,0,1c-1.78,0-2.71,3.28-2.72,3.31A.5.5,0,0,1,371.8,251.23Z" style="fill:#263238"/>
    <path d="M389.49,246.31a.49.49,0,0,1-.35-.15,2.3,2.3,0,0,0-3.25-.22.5.5,0,0,1-.7,0,.5.5,0,0,1,0-.71,3.29,3.29,0,0,1,4.62.27.5.5,0,0,1,0,.7A.51.51,0,0,1,389.49,246.31Z" style="fill:#263238"/>
    <path d="M333.57,408.83a29.16,29.16,0,0,1-7.06,12.43c-5.38,5.38-3.06,12,.33,12.44,7.06,1,12.78-3.36,14.46-6.72s1.34-7.06,2-8.41,4-3.69,4-7.39-6.05-8.4-6.05-8.4Z" style="fill:#E6CE07"/>
    <path d="M328.88,434.35a15.4,15.4,0,0,1-2.11-.15,4.8,4.8,0,0,1-3.57-3.48c-.83-2.49-.49-6.37,2.95-9.81a29,29,0,0,0,6.93-12.2.53.53,0,0,1,.18-.28l7.73-6.05a.5.5,0,0,1,.61,0c.26.2,6.25,4.9,6.25,8.8,0,2.84-1.85,4.94-3.08,6.33a8.34,8.34,0,0,0-1,1.29,8.69,8.69,0,0,0-.45,2.3,18.44,18.44,0,0,1-1.57,6.1C340.19,430.3,335.21,434.35,328.88,434.35ZM334,409.12a29.63,29.63,0,0,1-7.15,12.5c-3.12,3.12-3.44,6.58-2.71,8.78a3.82,3.82,0,0,0,2.76,2.81c6.83,1,12.35-3.28,13.94-6.46a17.31,17.31,0,0,0,1.46-5.77,9.17,9.17,0,0,1,.56-2.63,7.61,7.61,0,0,1,1.15-1.5c1.19-1.35,2.83-3.21,2.83-5.67,0-3-4.36-6.77-5.56-7.76Z" style="fill:#263238"/>
    <path d="M341.3,427c1.68-3.36,1.34-7.06,2-8.41s4-3.69,4-7.39a5.62,5.62,0,0,0-.84-2.66c-2,4.53-4.26,8.16-6.22,12.74s-2.69,8.07-8.4,9.75a8.52,8.52,0,0,1-8.54-2.1c.22,2.58,1.7,4.53,3.49,4.79C333.9,434.71,339.62,430.34,341.3,427Z" style="fill:#fff"/>
    <path d="M328.88,434.35a15.4,15.4,0,0,1-2.11-.15c-2.06-.3-3.68-2.46-3.91-5.25a.48.48,0,0,1,.28-.49.5.5,0,0,1,.56.09,8.07,8.07,0,0,0,8,2c4.79-1.41,5.83-3.95,7.4-7.79.21-.54.44-1.1.69-1.67,1-2.37,2.13-4.52,3.21-6.59s2.06-4,3-6.16a.5.5,0,0,1,.44-.3.47.47,0,0,1,.46.25,6.06,6.06,0,0,1,.9,2.91c0,2.84-1.85,4.94-3.08,6.33a8.34,8.34,0,0,0-1,1.29,8.69,8.69,0,0,0-.45,2.3,18.44,18.44,0,0,1-1.57,6.1C340.19,430.3,335.21,434.35,328.88,434.35Zm-4.79-4.17a3.93,3.93,0,0,0,2.82,3c6.82,1,12.35-3.28,13.94-6.46a17.31,17.31,0,0,0,1.46-5.77,9.17,9.17,0,0,1,.56-2.63,7.61,7.61,0,0,1,1.15-1.5c1.19-1.35,2.83-3.21,2.83-5.67a4.07,4.07,0,0,0-.32-1.47c-.85,1.84-1.74,3.56-2.61,5.23-1.07,2.06-2.17,4.18-3.17,6.52-.25.57-.47,1.12-.69,1.65-1.56,3.82-2.79,6.84-8,8.38A9,9,0,0,1,324.09,430.18Z" style="fill:#263238"/>
    <path d="M346.67,344.63s-18.15,7.06-27.22,11.43,0,18.82,1,23.53,12.43,31.59,12.43,31.59,6.73,1.34,9.08-2.69-1.68-10.08-1.68-10.08l-7.06-32.94s40.33-9.41,43.69-13.11.68-7.06-.67-7.06S346.67,344.63,346.67,344.63Z" style="fill:#fff"/>
    <path d="M335.43,411.9a14.73,14.73,0,0,1-2.63-.23.5.5,0,0,1-.37-.29c-.46-1.1-11.45-27-12.46-31.69a31.28,31.28,0,0,0-1.59-4.35c-2.63-6.43-6.6-16.14.85-19.73,9-4.33,27.08-11.38,27.26-11.45a.64.64,0,0,1,.2,0c.28,0,28.24.67,29.56.67a3.14,3.14,0,0,1,2.41,2.05c.39.88,1,3.21-1.37,5.85-3.26,3.59-38.69,12-43.47,13.14l6.94,32.37c.5.79,4,6.49,1.64,10.53C340.86,411.38,337.71,411.9,335.43,411.9Zm-2.18-1.17c1.21.19,6.39.76,8.29-2.49,2.16-3.71-1.63-9.5-1.67-9.55a.67.67,0,0,1-.07-.18l-7.06-32.94a.5.5,0,0,1,.38-.59c11.17-2.61,40.76-10,43.43-13,1.94-2.12,1.58-3.89,1.2-4.76s-1.14-1.46-1.5-1.46c-1.31,0-27.36-.62-29.49-.67-1.42.56-18.47,7.23-27.09,11.38-6.61,3.18-2.85,12.37-.36,18.45a32.89,32.89,0,0,1,1.64,4.52C321.88,383.84,332.08,408,333.25,410.73Z" style="fill:#263238"/>
    <path d="M345.33,344.63,325.16,353s7.4-1,12.44,3,7.73,11.83,7.73,11.83,28.57-11.16,32.27-13.51,2.35-7.73,0-8.41S345.33,344.63,345.33,344.63Z" style="fill:#263238"/>
    <path d="M345.33,368.39a.54.54,0,0,1-.21-.05.5.5,0,0,1-.26-.29c0-.07-2.71-7.71-7.57-11.6s-12-2.93-12.06-2.92a.5.5,0,0,1-.55-.37.51.51,0,0,1,.29-.59l20.17-8.4a.45.45,0,0,1,.2,0c1.22,0,30,.68,32.39,1.36,1.28.37,2.33,1.86,2.6,3.71a5.52,5.52,0,0,1-2.47,5.6c-3.69,2.35-31.17,13.1-32.34,13.55A.41.41,0,0,1,345.33,368.39Zm-17.4-16a16.9,16.9,0,0,1,10,3.25c4.42,3.54,7,9.77,7.72,11.57,3.74-1.47,28.34-11.15,31.7-13.28a4.56,4.56,0,0,0,2-4.62,3.41,3.41,0,0,0-1.88-2.88c-1.87-.54-23.65-1.14-32-1.33Z" style="fill:#263238"/>
    <path d="M364.15,385l-11.6-6.26s-.56-4.16,4.15-5.82,8.88-.83,9.43.56S364.15,385,364.15,385Z" style="fill:gray"/>
    <path d="M364.15,385.46a.53.53,0,0,1-.24-.06l-11.6-6.26a.48.48,0,0,1-.26-.37,6.14,6.14,0,0,1,4.49-6.36c4.79-1.69,9.35-.94,10.06.84.58,1.46-1.53,10.12-2,11.83a.5.5,0,0,1-.29.34A.45.45,0,0,1,364.15,385.46ZM353,378.39l10.8,5.83c1.16-4.75,2.15-9.86,1.85-10.6-.42-1-4.32-1.85-8.8-.27C353.2,374.65,353,377.53,353,378.39Z" style="fill:#263238"/>
    <path d="M344,363.12s-3,7.73-4.71,9.74-25.21,29.92-25.21,29.92l4,9.07s18.83-10.42,25.89-16.47,14.11-18.82,14.11-18.82l6-3S356.09,359.42,344,363.12Z" style="fill:#fff"/>
    <path d="M318.1,412.35l-.15,0a.5.5,0,0,1-.3-.27l-4-9.08a.52.52,0,0,1,.08-.52c.23-.28,23.54-27.92,25.21-29.92s4.59-9.53,4.62-9.61a.49.49,0,0,1,.32-.29c12.34-3.77,20.66,10.5,20.75,10.65a.53.53,0,0,1,0,.39.5.5,0,0,1-.25.3l-5.92,3c-.82,1.46-7.41,13.05-14.15,18.82-7,6-25.77,16.43-26,16.53A.54.54,0,0,1,318.1,412.35Zm-3.44-9.49,3.68,8.29c3-1.67,19-10.73,25.32-16.15,6.91-5.92,13.93-18.55,14-18.68a.56.56,0,0,1,.22-.21l5.56-2.78c-1.49-2.33-8.84-12.75-19.08-9.8-.52,1.32-3.13,7.77-4.7,9.65S317,400.13,314.66,402.86Z" style="fill:#263238"/>
    <path d="M363.14,351.35,344,363.12s8.73,2.69,14.11,10.08,6,11.76,6,11.76,4.71-7.39,10.76-10.42,17.81-4.7,21.17-10.08.34-11.43-4.7-14.45-24.54-2-24.54-2" style="fill:#263238"/>
    <path d="M364.15,385.46h-.1a.49.49,0,0,1-.39-.41s-.74-4.37-6-11.55-13.78-9.87-13.86-9.9a.48.48,0,0,1-.35-.41.5.5,0,0,1,.23-.49l19.16-11.76a.5.5,0,0,1,.69.16.51.51,0,0,1-.16.69L345.14,363a30.6,30.6,0,0,1,13.37,9.92c3.86,5.31,5.33,9.08,5.86,10.85,1.49-2.12,5.44-7.23,10.31-9.66a58.59,58.59,0,0,1,7.48-2.79c5.32-1.72,11.35-3.68,13.5-7.11a8.45,8.45,0,0,0,1.1-6.55,12.09,12.09,0,0,0-5.64-7.21c-4.86-2.91-24.06-2-24.25-1.95a.48.48,0,0,1-.53-.47.51.51,0,0,1,.48-.53c.8,0,19.7-1,24.81,2.09a12.93,12.93,0,0,1,6.1,7.84,9.37,9.37,0,0,1-1.22,7.31c-2.34,3.74-8.29,5.67-14,7.53a57.19,57.19,0,0,0-7.34,2.73c-5.85,2.93-10.51,10.17-10.56,10.24A.48.48,0,0,1,364.15,385.46Z" style="fill:#263238"/>
    <path d="M316.09,402.11s-2.35-4.37-5-10.42-7.06-10.76-11.43-6.05-1.68,16.8,0,19.83,5,5.71,5.71,8.06,1.35,7.73,8.41,5.38,5.71-8.4,5.71-8.4A69.41,69.41,0,0,1,316.09,402.11Z" style="fill:#E6CE07"/>
    <path d="M310.61,420a5.25,5.25,0,0,1-2.53-.59c-2-1.11-2.65-3.5-3.06-5.08-.06-.24-.11-.45-.17-.65a13.24,13.24,0,0,0-2.72-4,25.76,25.76,0,0,1-2.95-4c-1.76-3.17-4.54-15.45.07-20.41,1.5-1.62,3.11-2.3,4.78-2,3.6.6,6.23,5.4,7.47,8.2,2.65,6,5,10.35,5,10.39a.49.49,0,0,1,0,.11,71.08,71.08,0,0,0,3.33,8.31.49.49,0,0,1,0,.11c0,.06,1.35,6.52-6.05,9A10.55,10.55,0,0,1,310.61,420Zm-7.29-35.77A4.66,4.66,0,0,0,300,386c-4,4.34-1.65,16.14.08,19.24a25,25,0,0,0,2.83,3.8,13.68,13.68,0,0,1,2.92,4.38c.06.2.12.43.18.67.39,1.5.92,3.55,2.57,4.45,1.2.65,2.89.63,5-.08,6.27-2.09,5.5-7.17,5.39-7.77a69.2,69.2,0,0,1-3.35-8.38c-.28-.53-2.53-4.76-5-10.4-2-4.46-4.43-7.24-6.72-7.62A3.51,3.51,0,0,0,303.32,384.22Z" style="fill:#263238"/>
    <path d="M317.62,416.58a15.06,15.06,0,0,0-1-3.86c-1.93-4.84-6.28-21-10.38-24.65a8.81,8.81,0,0,0-6.59-2.43c-4.37,4.7-1.68,16.8,0,19.83s5,5.71,5.71,8.06,1.35,7.73,8.41,5.38A9.24,9.24,0,0,0,317.62,416.58Z" style="fill:#fff"/>
    <path d="M310.61,420a5.25,5.25,0,0,1-2.53-.59c-2-1.11-2.65-3.5-3.06-5.08-.06-.24-.11-.45-.17-.65a13.24,13.24,0,0,0-2.72-4,25.76,25.76,0,0,1-2.95-4c-1.76-3.17-4.54-15.45.07-20.41a.52.52,0,0,1,.33-.16,9.23,9.23,0,0,1,7,2.56c3.16,2.79,6.32,12.37,8.63,19.36.75,2.28,1.4,4.26,1.89,5.47a16.53,16.53,0,0,1,1.06,4,.51.51,0,0,1-.13.41,10,10,0,0,1-4.1,2.46A10.55,10.55,0,0,1,310.61,420Zm-10.76-33.87c-3.85,4.46-1.5,16,.21,19.1a25,25,0,0,0,2.83,3.8,13.68,13.68,0,0,1,2.92,4.38c.06.2.12.43.18.67.39,1.5.92,3.55,2.57,4.45,1.2.66,2.89.63,5-.08a9.25,9.25,0,0,0,3.52-2,15.91,15.91,0,0,0-1-3.51c-.5-1.24-1.15-3.23-1.91-5.52-2.14-6.5-5.38-16.32-8.34-18.93A8.37,8.37,0,0,0,299.85,386.12Z" style="fill:#263238"/>
    <path d="M302.31,387.32a3.1,3.1,0,0,0-4.32,1.25c-1.85,5.6.23,14.38,1.63,16.9,1.68,3,5,5.71,5.71,8.06s1.34,7.56,8.11,5.46c0-1.05,0-2.4,0-4.11C313.4,409.16,308.36,390,302.31,387.32Z" style="fill:#fff"/>
    <path d="M310.62,420a5.24,5.24,0,0,1-2.58-.62c-2-1.11-2.61-3.49-3-5.05-.06-.23-.11-.45-.17-.64a13.24,13.24,0,0,0-2.72-4,25.76,25.76,0,0,1-2.95-4c-1.38-2.49-3.62-11.39-1.67-17.3a.6.6,0,0,1,.06-.11,3.59,3.59,0,0,1,4.94-1.44h0c6.53,2.9,11.39,22.64,11.39,28q0,1.25,0,2.25c0,.71,0,1.33,0,1.87a.48.48,0,0,1-.35.47A10.06,10.06,0,0,1,310.62,420Zm-12.18-31.19c-1.8,5.55.34,14.13,1.62,16.43a25,25,0,0,0,2.83,3.8,13.68,13.68,0,0,1,2.92,4.38q.09.3.18.66c.38,1.48.91,3.52,2.54,4.43a5.84,5.84,0,0,0,4.42.13c0-.44,0-.93,0-1.47s0-1.43,0-2.27c0-6.08-5.25-24.64-10.8-27.11h0A2.6,2.6,0,0,0,298.44,388.79Z" style="fill:#263238"/>
    <path d="M392.39,317.07l7.39,53.78s4,2.69,5.71,2.69,8.2-.84,8.2-.84a4.39,4.39,0,0,0,1.9,2.16c1.35.67,3.26-1.2,5.18-2.54,2.46-1.72-1.29-3.56-1.63-4.57s-13-3.63-13-3.63l-3-51.08Z" style="fill:#fff"/>
    <path d="M416.21,375.5a1.91,1.91,0,0,1-.84-.19,4.68,4.68,0,0,1-2-2.07c-1.42.18-6.42.8-7.9.8-1.78,0-5.56-2.49-6-2.78a.49.49,0,0,1-.22-.34l-7.39-53.78a.51.51,0,0,1,.32-.54l10.75-4a.51.51,0,0,1,.68.44l3,50.7c8.33,1.74,12.7,3.05,13,3.89a4.73,4.73,0,0,0,.8.87c.78.73,1.75,1.63,1.68,2.7a2.16,2.16,0,0,1-1.05,1.56l-1.13.83C418.61,374.56,417.35,375.5,416.21,375.5Zm-2.52-3.3a.51.51,0,0,1,.47.32,3.87,3.87,0,0,0,1.65,1.89c.81.4,2.18-.64,3.51-1.64.38-.29.77-.59,1.16-.86a1.23,1.23,0,0,0,.62-.81c0-.59-.74-1.32-1.36-1.9a4,4,0,0,1-1-1.22c-.73-.62-6.95-2.19-12.64-3.37a.48.48,0,0,1-.39-.46l-3-50.41-9.75,3.66,7.31,53.15c1.22.8,4.07,2.49,5.25,2.49,1.63,0,8.07-.83,8.13-.84Zm5-4.2Z" style="fill:#263238"/>
    <path d="M416.71,373.43a.5.5,0,0,1-.16-1,2.89,2.89,0,0,0,.37-.18,11.17,11.17,0,0,0-1.41-.52L414,373.07a.5.5,0,1,1-.66-.75l1.7-1.49a.52.52,0,0,1,.46-.11c2.37.67,2.53,1.15,2.59,1.33a.58.58,0,0,1-.09.57,2.72,2.72,0,0,1-1.15.79Z" style="fill:#263238"/>
    <path d="M408.18,366.14a23,23,0,0,0,4.37,1.68c1.68.34,8.4,0,7.73,2s-6.38,1-6.38,1-4,1.68-6,1.68a19.5,19.5,0,0,1-5.38-1.35" style="fill:#fff"/>
    <path d="M407.85,373a20,20,0,0,1-5.57-1.38A.51.51,0,0,1,402,371a.5.5,0,0,1,.65-.28,19.44,19.44,0,0,0,5.2,1.31c1.89,0,5.82-1.63,5.85-1.65a.67.67,0,0,1,.28,0c2.2.39,5.46.44,5.83-.67a.21.21,0,0,0,0-.22c-.47-.7-3.54-.87-5.19-1a17.35,17.35,0,0,1-2.15-.19,23.73,23.73,0,0,1-4.49-1.72.49.49,0,0,1-.22-.67.5.5,0,0,1,.67-.23,22.19,22.19,0,0,0,4.24,1.64,18.7,18.7,0,0,0,2,.17c3,.16,5.27.37,6,1.4a1.21,1.21,0,0,1,.14,1.1c-.74,2.21-5.51,1.58-6.81,1.36C413.21,371.66,409.75,373,407.85,373Z" style="fill:#263238"/>
    <path d="M389,296.9l-.67,24.54,20.5-7.4s-9.41-28.57-12.1-30.58" style="fill:#E6CE07"/>
    <path d="M388.35,321.94a.46.46,0,0,1-.29-.1.49.49,0,0,1-.21-.42l.67-24.53a.51.51,0,0,1,.5-.49h0a.5.5,0,0,1,.48.52l-.65,23.8,19.36-7c-3.78-11.43-9.92-28.49-11.77-29.88a.5.5,0,1,1,.59-.8c2.74,2.05,11.31,27.89,12.28,30.83a.5.5,0,0,1-.31.62l-20.5,7.4A.47.47,0,0,1,388.35,321.94Z" style="fill:#263238"/>
  </g>
</svg>