<?xml version="1.0" encoding="UTF-8"?>
<svg xmlns="http://www.w3.org/2000/svg" width="173.545" height="43.272" viewBox="0 0 173.545 43.272"><g transform="translate(-526.935 0)"><g style="isolation:isolate"><g style="isolation:isolate"><path d="M625.816,17.451a2.74,2.74,0,0,1-1.1-.659l.289-.571a2.812,2.812,0,0,0,1.011.616,3.7,3.7,0,0,0,1.3.234,2.368,2.368,0,0,0,1.41-.345,1.059,1.059,0,0,0,.47-.894.9.9,0,0,0-.255-.671,1.736,1.736,0,0,0-.625-.385,10.216,10.216,0,0,0-1.03-.3,10.782,10.782,0,0,1-1.26-.385,2.051,2.051,0,0,1-.8-.565,1.5,1.5,0,0,1-.335-1.029,1.745,1.745,0,0,1,.28-.966,1.916,1.916,0,0,1,.86-.7,3.526,3.526,0,0,1,1.44-.259,4.205,4.205,0,0,1,1.175.165,3.362,3.362,0,0,1,.995.454l-.25.591a3.447,3.447,0,0,0-.94-.436,3.492,3.492,0,0,0-.98-.144,2.266,2.266,0,0,0-1.385.354,1.1,1.1,0,0,0-.465.915.912.912,0,0,0,.255.675,1.67,1.67,0,0,0,.64.391c.256.089.6.188,1.034.294a10.542,10.542,0,0,1,1.246.375,2.063,2.063,0,0,1,.8.56,1.484,1.484,0,0,1,.33,1.016,1.727,1.727,0,0,1-.285.965,1.916,1.916,0,0,1-.875.689,3.655,3.655,0,0,1-1.45.255A4.481,4.481,0,0,1,625.816,17.451Z" fill="#1f2328"/><path d="M633.295,17.236a3.389,3.389,0,0,1-1.319-1.274,3.719,3.719,0,0,1,0-3.641,3.382,3.382,0,0,1,1.319-1.274,4.054,4.054,0,0,1,3.761-.005,3.4,3.4,0,0,1,1.314,1.274,3.7,3.7,0,0,1,0,3.65,3.411,3.411,0,0,1-1.314,1.275,4.054,4.054,0,0,1-3.761,0Zm3.386-.569a2.726,2.726,0,0,0,1.05-1.04,3.094,3.094,0,0,0,0-2.971,2.726,2.726,0,0,0-1.05-1.04,3.2,3.2,0,0,0-3.006,0,2.742,2.742,0,0,0-1.059,1.04,3.058,3.058,0,0,0,0,2.971,2.742,2.742,0,0,0,1.059,1.04,3.2,3.2,0,0,0,3.006,0Z" fill="#1f2328"/><path d="M641.8,16.922a3.13,3.13,0,0,1-.76-2.271v-4.01h.741v3.981a2.619,2.619,0,0,0,.549,1.819,2.418,2.418,0,0,0,3.191,0,2.619,2.619,0,0,0,.55-1.819V10.641h.719v4.01a3.145,3.145,0,0,1-.754,2.271,3.269,3.269,0,0,1-4.236,0Z" fill="#1f2328"/><path d="M650.35,11.281v2.75h3.62v.641h-3.62v2.969h-.739v-7h4.8v.64Z" fill="#1f2328"/><path d="M657.271,11.281v2.75h3.62v.641h-3.62v2.969h-.74v-7h4.8v.64Z" fill="#1f2328"/><path d="M668.231,17.641l-1.6-2.25a5.04,5.04,0,0,1-.559.031h-1.88v2.219h-.74v-7h2.62a3.162,3.162,0,0,1,2.1.64,2.18,2.18,0,0,1,.761,1.761,2.17,2.17,0,0,1-1.6,2.2l1.71,2.4Zm-.59-3.309a1.593,1.593,0,0,0,.55-1.29,1.6,1.6,0,0,0-.55-1.306,2.44,2.44,0,0,0-1.59-.455h-1.86v3.511h1.86A2.423,2.423,0,0,0,667.641,14.332Z" fill="#1f2328"/><path d="M675.661,15.771h-3.9l-.84,1.87h-.769l3.2-7h.729l3.2,7H676.5Zm-.271-.6-1.68-3.761-1.679,3.761Z" fill="#1f2328"/><path d="M684.88,10.641v7h-.61l-4.5-5.679v5.679h-.739v-7h.609l4.51,5.68v-5.68Z" fill="#1f2328"/><path d="M688.915,17.241a3.367,3.367,0,0,1-1.31-1.275,3.744,3.744,0,0,1,0-3.65,3.351,3.351,0,0,1,1.315-1.274,3.846,3.846,0,0,1,1.88-.46,3.9,3.9,0,0,1,1.44.259,2.987,2.987,0,0,1,1.12.76l-.47.47a2.789,2.789,0,0,0-2.07-.83,3.036,3.036,0,0,0-1.51.381,2.769,2.769,0,0,0-1.065,1.039,3.039,3.039,0,0,0,0,2.961,2.776,2.776,0,0,0,1.065,1.039,3.036,3.036,0,0,0,1.51.381,2.751,2.751,0,0,0,2.07-.841l.47.471a3.038,3.038,0,0,1-1.125.764,3.864,3.864,0,0,1-1.445.265A3.813,3.813,0,0,1,688.915,17.241Z" fill="#1f2328"/><path d="M700.48,17v.639h-4.949v-7h4.8v.64h-4.06v2.49h3.62v.63h-3.62V17Z" fill="#1f2328"/></g></g><g style="isolation:isolate"><g style="isolation:isolate"><path d="M630.1,23.781a2.413,2.413,0,0,1,0,3.516,3.188,3.188,0,0,1-2.1.634h-1.88v2.21h-.739v-7H628A3.168,3.168,0,0,1,630.1,23.781Zm-.53,3.045a1.572,1.572,0,0,0,.549-1.284,1.6,1.6,0,0,0-.549-1.306,2.44,2.44,0,0,0-1.59-.455H626.12v3.5h1.861A2.434,2.434,0,0,0,629.571,26.826Z" fill="#1f2328"/><path d="M637.83,30.141l-1.6-2.25a5.076,5.076,0,0,1-.561.031h-1.88v2.219h-.739v-7h2.619a3.168,3.168,0,0,1,2.1.64,2.179,2.179,0,0,1,.76,1.761,2.17,2.17,0,0,1-1.6,2.2l1.71,2.4Zm-.589-3.309a1.809,1.809,0,0,0,0-2.6,2.44,2.44,0,0,0-1.59-.455H633.79v3.511h1.861A2.423,2.423,0,0,0,637.241,26.832Z" fill="#1f2328"/><path d="M645.821,29.5v.639H640.87v-7h4.8v.64h-4.059v2.49h3.62v.63h-3.62v2.6ZM644,21.332h.951l-1.621,1.239h-.7Z" fill="#1f2328"/><path d="M653.87,23.141l-3.1,7h-.731l-3.1-7h.8l2.679,6.08,2.7-6.08Z" fill="#1f2328"/><path d="M660.42,29.5v.639h-4.949v-7h4.8v.64H656.21v2.49h3.62v.63h-3.62v2.6Z" fill="#1f2328"/><path d="M668.6,23.141v7h-.61l-4.5-5.679v5.679h-.741v-7h.611l4.509,5.68v-5.68Z" fill="#1f2328"/><path d="M672.83,23.781h-2.46v-.64h5.661v.64h-2.46v6.36h-.741Z" fill="#1f2328"/><path d="M677.8,23.141h.74v7h-.74Z" fill="#1f2328"/><path d="M682.585,29.736a3.391,3.391,0,0,1-1.32-1.274,3.726,3.726,0,0,1,0-3.641,3.384,3.384,0,0,1,1.32-1.274,4.052,4.052,0,0,1,3.76-.005,3.407,3.407,0,0,1,1.316,1.274,3.716,3.716,0,0,1,0,3.65,3.416,3.416,0,0,1-1.316,1.275,4.052,4.052,0,0,1-3.76,0Zm3.385-.569a2.718,2.718,0,0,0,1.05-1.04,3.094,3.094,0,0,0,0-2.971,2.718,2.718,0,0,0-1.05-1.04,3.2,3.2,0,0,0-3,0,2.744,2.744,0,0,0-1.06,1.04,3.058,3.058,0,0,0,0,2.971,2.744,2.744,0,0,0,1.06,1.04,3.2,3.2,0,0,0,3,0Z" fill="#1f2328"/><path d="M696.241,23.141v7h-.611l-4.5-5.679v5.679h-.74v-7H691l4.51,5.68v-5.68Z" fill="#1f2328"/></g></g><g style="isolation:isolate"><g style="isolation:isolate"><path d="M625.381,35.642h2.85a4.162,4.162,0,0,1,1.96.446,3.249,3.249,0,0,1,1.32,1.239,3.741,3.741,0,0,1,0,3.631,3.249,3.249,0,0,1-1.32,1.239,4.161,4.161,0,0,1-1.96.445h-2.85ZM628.191,42a3.388,3.388,0,0,0,1.61-.366,2.643,2.643,0,0,0,1.069-1.009,3.094,3.094,0,0,0,0-2.971,2.638,2.638,0,0,0-1.069-1.01,3.4,3.4,0,0,0-1.61-.365H626.12V42Z" fill="#1f2328"/><path d="M634.931,41.923a3.126,3.126,0,0,1-.76-2.271v-4.01h.74v3.981a2.614,2.614,0,0,0,.55,1.819,2.417,2.417,0,0,0,3.19,0,2.614,2.614,0,0,0,.55-1.819V35.642h.72v4.01a3.141,3.141,0,0,1-.755,2.271,3.267,3.267,0,0,1-4.235,0Z" fill="#1f2328"/><path d="M646.386,42.452a2.733,2.733,0,0,1-1.1-.659l.29-.571a2.8,2.8,0,0,0,1.009.616,3.707,3.707,0,0,0,1.3.234,2.368,2.368,0,0,0,1.41-.345,1.06,1.06,0,0,0,.471-.894.894.894,0,0,0-.256-.671,1.727,1.727,0,0,0-.625-.385,10.2,10.2,0,0,0-1.029-.3,10.862,10.862,0,0,1-1.261-.385,2.062,2.062,0,0,1-.8-.565,1.5,1.5,0,0,1-.335-1.029,1.745,1.745,0,0,1,.28-.966,1.913,1.913,0,0,1,.859-.695,3.53,3.53,0,0,1,1.441-.259,4.188,4.188,0,0,1,1.174.165,3.369,3.369,0,0,1,1,.454l-.25.591a3.433,3.433,0,0,0-.94-.436,3.5,3.5,0,0,0-.98-.144,2.264,2.264,0,0,0-1.385.354,1.1,1.1,0,0,0-.465.915.912.912,0,0,0,.255.675,1.67,1.67,0,0,0,.64.391c.256.089.6.188,1.035.294a10.579,10.579,0,0,1,1.245.375,2.055,2.055,0,0,1,.8.56,1.489,1.489,0,0,1,.33,1.016,1.72,1.72,0,0,1-.286.965,1.905,1.905,0,0,1-.875.689,3.655,3.655,0,0,1-1.45.255A4.488,4.488,0,0,1,646.386,42.452Z" fill="#1f2328"/><path d="M653.39,41.923a3.13,3.13,0,0,1-.76-2.271v-4.01h.74v3.981a2.619,2.619,0,0,0,.55,1.819,2.418,2.418,0,0,0,3.191,0,2.619,2.619,0,0,0,.55-1.819V35.642h.719v4.01a3.141,3.141,0,0,1-.755,2.271,3.267,3.267,0,0,1-4.235,0Z" fill="#1f2328"/><path d="M661.2,35.642h.739v7H661.2Z" fill="#1f2328"/><path d="M665.975,42.242a3.374,3.374,0,0,1-1.31-1.275,3.744,3.744,0,0,1,0-3.65,3.357,3.357,0,0,1,1.315-1.274,3.843,3.843,0,0,1,1.88-.46,3.9,3.9,0,0,1,1.44.259,2.979,2.979,0,0,1,1.12.76l-.47.47a2.789,2.789,0,0,0-2.07-.83,3.039,3.039,0,0,0-1.51.381,2.77,2.77,0,0,0-1.065,1.039,3.039,3.039,0,0,0,0,2.961,2.777,2.777,0,0,0,1.065,1.039,3.039,3.039,0,0,0,1.51.381,2.75,2.75,0,0,0,2.07-.841l.47.471a3.022,3.022,0,0,1-1.125.764,3.86,3.86,0,0,1-1.445.265A3.819,3.819,0,0,1,665.975,42.242Z" fill="#1f2328"/><path d="M672.59,35.642h.74v7h-.74Z" fill="#1f2328"/><path d="M676.2,35.642h2.849a4.159,4.159,0,0,1,1.96.446,3.242,3.242,0,0,1,1.32,1.239,3.742,3.742,0,0,1,0,3.631,3.242,3.242,0,0,1-1.32,1.239,4.159,4.159,0,0,1-1.96.445H676.2ZM679.01,42a3.385,3.385,0,0,0,1.61-.366,2.651,2.651,0,0,0,1.07-1.009,3.094,3.094,0,0,0,0-2.971,2.647,2.647,0,0,0-1.07-1.01,3.4,3.4,0,0,0-1.61-.365h-2.07V42Z" fill="#1f2328"/><path d="M690,42v.639H685.05v-7h4.8v.64h-4.061v2.49h3.621v.63h-3.621V42Z" fill="#1f2328"/></g></g><path d="M551.994,30.471c0,.3-.008.591-.029.884-.012.18-.028.355-.049.53a11.661,11.661,0,0,1-.187,1.174c-.028.13-.057.257-.089.384a1.067,1.067,0,0,1-.037.158c-.025.1-.053.2-.081.3-.041.134-.081.269-.123.4-.048.158-.1.317-.163.472-.04.115-.086.229-.13.338-.048.131-.1.257-.158.384s-.123.269-.184.4c-.057.114-.114.224-.171.338s-.13.249-.2.371-.138.236-.208.355h0c-.065.106-.13.212-.2.318s-.139.212-.212.314-.143.208-.22.3c-.147.2-.306.4-.465.592-.078.1-.159.191-.244.285-.167.187-.342.371-.518.546-.139.143-.285.277-.433.416h0c-.147.134-.3.264-.448.4a12.594,12.594,0,0,1-1.482,1.064c-.172.1-.347.2-.522.3h0c-.175.094-.354.188-.538.278s-.37.171-.558.249-.376.155-.567.224c-.155.06-.313.114-.477.163-.094.032-.192.061-.289.089-.257.078-.522.147-.786.2-.18.041-.359.078-.539.11-.155.028-.309.053-.464.073-.139.021-.278.037-.416.049-.065.009-.135.017-.2.02-.106.013-.212.021-.318.025s-.208.012-.313.017c-.167.009-.334.012-.5.012a12.6,12.6,0,0,1-1.891-.143c-.1-.011-.2-.028-.3-.049s-.2-.036-.3-.057c-.049-.012-.094-.02-.138-.028-.269-.058-.534-.123-.8-.2-.135-.037-.265-.078-.4-.123-.164-.049-.322-.1-.477-.163-.057-.017-.11-.041-.163-.061-.138-.049-.273-.106-.407-.163-.188-.078-.371-.163-.554-.249s-.363-.184-.543-.278c-.269-.146-.538-.3-.794-.472-.13-.086-.257-.172-.384-.257-.105-.073-.211-.151-.317-.228a12.537,12.537,0,0,1-2.016-1.856c-.081-.094-.159-.187-.236-.281-.115-.138-.224-.277-.33-.42-.094-.126-.187-.257-.278-.391-.077-.11-.151-.221-.224-.334s-.142-.228-.212-.342-.138-.232-.2-.35-.139-.249-.2-.375c-.089-.18-.175-.363-.261-.551s-.158-.354-.228-.538c-.049-.126-.1-.252-.143-.384-.058-.15-.11-.3-.159-.464-.037-.11-.069-.224-.1-.338a12.576,12.576,0,0,1-.343-1.524,12.811,12.811,0,0,1-.143-1.907h7.128a2.128,2.128,0,0,0,.012.278,1.655,1.655,0,0,0,.021.264.114.114,0,0,0,0,.037,3.512,3.512,0,0,0,.077.51,1.456,1.456,0,0,0,.061.261c.017.068.037.138.057.208s.041.134.066.2l.049.134c.028.077.057.151.089.229a3.936,3.936,0,0,0,.208.428c.073.134.151.268.236.4a.714.714,0,0,0,.073.109,2.935,2.935,0,0,0,.2.27c.074.086.114.142.171.208.069.081.143.158.22.236s.151.155.233.228.163.144.244.208.155.123.236.18a2.389,2.389,0,0,0,.215.146,3.285,3.285,0,0,0,.347.208s.008.008.012.008a3.221,3.221,0,0,0,.355.171,2.255,2.255,0,0,0,.241.106,3.117,3.117,0,0,0,.309.11,1.2,1.2,0,0,0,.158.047c.053.016.106.032.163.045.109.029.22.053.334.074.074.017.151.028.229.041.118.016.232.028.355.036a3.453,3.453,0,0,0,.432.021,5.276,5.276,0,0,0,1.553-.229c.1-.029.2-.061.293-.094h.011c.11-.04.216-.085.322-.134.135-.057.269-.123.4-.192.11-.061.225-.13.33-.2.074-.045.143-.094.212-.143a2.7,2.7,0,0,0,.261-.2c.085-.074.167-.138.249-.212l.008-.008c.074-.069.147-.138.216-.212s.159-.167.232-.252a2.332,2.332,0,0,0,.164-.2,2.432,2.432,0,0,0,.151-.2,2.173,2.173,0,0,0,.126-.187,3.839,3.839,0,0,0,.232-.391.142.142,0,0,0,.021-.033c.028-.057.061-.114.085-.175a3.564,3.564,0,0,0,.176-.407,3.66,3.66,0,0,0,.145-.42,2.4,2.4,0,0,0,.074-.289,2.017,2.017,0,0,0,.061-.3,4.3,4.3,0,0,0,.065-.609c.009-.1.012-.2.012-.31a2.618,2.618,0,0,0-.012-.31,4.488,4.488,0,0,0-.069-.611,2.051,2.051,0,0,0-.061-.3,2.408,2.408,0,0,0-.074-.289,3.707,3.707,0,0,0-.142-.424,3.575,3.575,0,0,0-.176-.407c-.024-.061-.057-.118-.085-.175a.184.184,0,0,0-.021-.033,3.748,3.748,0,0,0-.232-.391,1.983,1.983,0,0,0-.126-.188,2.432,2.432,0,0,0-.151-.2c-.049-.066-.106-.13-.164-.2-.073-.085-.151-.171-.232-.252s-.143-.143-.216-.212l-.008-.008c-.081-.074-.163-.144-.249-.213s-.2-.151-.3-.22c-.041-.028-.078-.057-.119-.081a3.367,3.367,0,0,0-.346-.208.761.761,0,0,0-.1-.058,5.763,5.763,0,0,0-.672-.3l-.293-.094a5.42,5.42,0,0,0-1.15-.212h-.034a1.021,1.021,0,0,0-.146-.008,2.042,2.042,0,0,0-.221-.009h-3.013V17.937h3.2c.1,0,.2,0,.294.009a1.432,1.432,0,0,1,.187.008,1.546,1.546,0,0,1,.192.012c.15.008.3.02.447.037s.293.037.44.057c.074.008.143.02.216.032s.158.021.236.037h.008a.147.147,0,0,1,.028.008.115.115,0,0,1,.037,0,.727.727,0,0,1,.13.025h0a.885.885,0,0,1,.1.02c.11.02.216.045.322.069s.212.049.318.078l.318.085c.285.082.567.172.84.278.155.053.3.109.448.171.061.025.123.049.183.077.11.046.221.095.33.147s.192.09.285.139a.4.4,0,0,1,.086.04c.057.028.114.057.171.089.172.09.339.184.506.278h0c.147.086.29.175.432.264.184.118.363.236.539.363.155.114.306.228.456.346s.3.241.44.363c.191.164.383.339.567.522l.016.017c.086.081.167.163.249.249a.756.756,0,0,1,.076.094c.086.09.167.18.249.273a11.251,11.251,0,0,1,.971,1.227c.069.1.135.2.2.3.081.123.158.25.232.371.163.261.309.534.448.807.069.138.134.277.2.419s.126.281.187.424c.1.24.192.485.277.729a1.255,1.255,0,0,1,.049.146c.1.3.184.6.261.9.037.151.074.306.106.461.02.1.041.208.061.313a.189.189,0,0,1,.008.053c.017.066.025.135.037.2.02.123.041.249.053.375.032.265.057.534.077.8.008.135.012.269.02.408s0,.273,0,.407" fill="#fbb900"/><path d="M552.011,12.553a12.529,12.529,0,0,1-3.774,8.97h0a.142.142,0,0,0-.012-.017h0c-.183-.183-.375-.359-.567-.522-.143-.122-.289-.244-.44-.363s-.3-.232-.456-.346c-.175-.127-.355-.245-.538-.363-.143-.089-.285-.18-.432-.264h0c-.167-.094-.334-.187-.505-.278-.057-.032-.115-.061-.172-.089a.451.451,0,0,0-.086-.041c-.093-.048-.187-.094-.285-.138s-.22-.1-.33-.147a.879.879,0,0,0-.09-.04l-.093-.037c-.147-.061-.294-.118-.449-.171a8.157,8.157,0,0,0-.839-.278c-.106-.028-.212-.061-.318-.085s-.212-.053-.318-.078-.213-.049-.322-.069a.679.679,0,0,0-.1-.02,5.8,5.8,0,0,0,2.776-2.7A5.778,5.778,0,0,0,540.3,7.2c-.085-.012-.171-.025-.261-.032s-.175-.017-.264-.02-.2-.008-.3-.008-.2,0-.3.008-.18.012-.265.02a5.78,5.78,0,0,0-5.193,5.162h-6.777a12.463,12.463,0,0,1,1.875-6.4,10.97,10.97,0,0,1,.676-.982c.245-.318.5-.619.766-.912q.2-.221.416-.428c.285-.277.578-.542.888-.8a11.719,11.719,0,0,1,.962-.708c.163-.11.334-.216.505-.318.151-.094.306-.18.461-.265a.217.217,0,0,1,.069-.036c.155-.086.309-.164.468-.241q.06-.031.123-.057c.146-.07.289-.135.435-.2a.732.732,0,0,1,.082-.032c.163-.069.326-.13.489-.192a.556.556,0,0,1,.081-.029q.243-.092.5-.171a.487.487,0,0,0,.065-.02c.175-.053.35-.1.53-.147l.049-.012c.151-.04.306-.073.461-.106.033-.008.066-.015.1-.02l.123-.025c.164-.032.326-.061.493-.085a.281.281,0,0,1,.058-.009c.187-.028.378-.053.57-.074h.017c.208-.025.415-.036.623-.049h0c.213-.012.428-.016.64-.016a12.06,12.06,0,0,1,1.6.1c.191.024.383.053.57.085a.673.673,0,0,1,.1.017c.171.032.338.065.505.106a11.525,11.525,0,0,1,1.246.35c.172.057.339.118.506.183.118.046.236.094.355.143.179.078.358.159.533.241a12.275,12.275,0,0,1,1.847,1.088c.244.176.476.359.708.546h.009c.175.143.342.293.509.444s.327.31.485.473c.138.143.273.285.4.432.244.278.477.563.7.86h0a12.456,12.456,0,0,1,2.477,7.485" fill="#ffd212"/><path d="M565.1,2.007A3.611,3.611,0,0,0,563.892.715,3.6,3.6,0,0,1,565.1,2.008a21.111,21.111,0,0,0-6.268,4.783c-.13.163-.261.322-.387.489h-.028V39.586a3.56,3.56,0,0,0,7.119,0V3.711a3.556,3.556,0,0,0-.436-1.7" fill="#fbb900"/><path d="M564.491,1.2a3.573,3.573,0,0,0-.6-.482,3.518,3.518,0,0,0-1.914-.569h-6.89V7.28h3.361c.126-.166.257-.326.387-.489A21.127,21.127,0,0,1,565.1,2.007a3.584,3.584,0,0,0-.611-.811" fill="#ffd212"/><path d="M580.693,2.131a3.583,3.583,0,0,0-.611-.811,3.547,3.547,0,0,0-.59-.475,3.547,3.547,0,0,1,.59.475,3.583,3.583,0,0,1,.611.811,21.112,21.112,0,0,0-6.268,4.783c-.13.163-.261.322-.387.489h-.028V39.714a3.56,3.56,0,0,0,7.119,0V3.835a3.556,3.556,0,0,0-.436-1.7" fill="#ffd212"/><path d="M580.081,1.321a3.651,3.651,0,0,0-.59-.476A3.527,3.527,0,0,0,577.567.27h-6.89V7.405h3.361c.126-.166.257-.326.387-.489a21.1,21.1,0,0,1,6.268-4.784,3.583,3.583,0,0,0-.611-.811" fill="#fbb900"/><path d="M617.335,28.05V28l-.018-.048c-.019-.064-.039-.126-.06-.187-.013-.043-.027-.085-.04-.127l-.018-.061-.034-.054c-.046-.073-.09-.148-.134-.222a4.385,4.385,0,0,0-.4-.592,3.9,3.9,0,0,0-2.739-1.489,4.121,4.121,0,0,0-.935.037l-.047.009c-.02,0-.04.008-.06.01h-.021a.959.959,0,0,0-.142.011l-.074.016-.18.057a5.7,5.7,0,0,0-.78.31c-.121.059-.262.129-.4.208a8.8,8.8,0,0,0-2.233,1.885,23.147,23.147,0,0,0-3.31,5.222,17.714,17.714,0,0,0-.979,2.45l-.021.066c-.038.116-.074.233-.107.348a9.223,9.223,0,0,0-.432,3.534c.02.193.05.383.079.566l.022.14.012.057c.051.179.107.361.172.555l.028.067c.03.058.057.116.085.173a3.8,3.8,0,0,0,.275.5,3.871,3.871,0,0,0,3.137,1.794c.078.006.157.008.236.008.143,0,.286-.008.429-.017l.189-.01h.059l.149-.044c.08-.023.158-.046.237-.073l.046-.015.042-.025a1.677,1.677,0,0,0,.782-1.292c.005-.038.01-.074.014-.113.059-.506.109-1.329.135-1.932,0-.093.011-.186.016-.278a6.985,6.985,0,0,0,.02-.723,1.321,1.321,0,0,0-1.209-1.358l-.429-.073-.353-.06c-.052-.009-.061-.023-.07-.034l-.028-.039-.015-.019a.714.714,0,0,1-.119-.423,6.558,6.558,0,0,1,.18-1.131c.1-.367.226-.743.37-1.119a10.15,10.15,0,0,1,2.431-3.7,1.293,1.293,0,0,1,.66-.344.362.362,0,0,1,.057,0h.025a.154.154,0,0,1,.111.054c.109.124.225.245.344.369l.135.139.122.124a1.325,1.325,0,0,0,1.547.269,2.944,2.944,0,0,0,.424-.255l.263-.2c.591-.453,1.2-.92,1.8-1.392a1.714,1.714,0,0,0,.754-1.476" fill="#fbb900"/><path d="M611.178,23.936h0L611.141,7.9V.271h-5.249a3.578,3.578,0,0,0-1.731,1.31l-.248.351L586.392,26.66a.439.439,0,0,0-.049.087,3.452,3.452,0,0,0-.384.744l-.112.355c-.017.059-.029.116-.041.178a3.307,3.307,0,0,0-.053.356.629.629,0,0,0-.012.137.022.022,0,0,0,0,.016v3.824h19.616c.071-.131-.027.057.258-.53a21.149,21.149,0,0,1,2.625-3.956,7.894,7.894,0,0,1,2.938-2.551V23.966h0Zm-7.266,1.195H596.33l7.58-10.7v.508h0Z" fill="#ffd212"/></g></svg>