<svg xmlns="http://www.w3.org/2000/svg" viewBox="26.97 61 452.67 408"><g id="freepik--Wall--inject-164"><rect x="110.41" y="232" width="50.34" height="20.38" style="opacity:0.2"/><rect x="284.39" y="176" width="50.34" height="20.38" style="opacity:0.2"/><rect x="256.82" y="204.16" width="50.34" height="20.38" style="opacity:0.1"/><rect x="169.46" y="176" width="50.34" height="20.38" style="opacity:0.2"/><rect x="141.89" y="204.16" width="50.34" height="20.38" style="opacity:0.1"/><rect x="199.43" y="204.16" width="50.34" height="20.38" style="opacity:0.1"/><rect x="51.8" y="250.81" width="50.34" height="20.38" style="opacity:0.2"/><rect x="26.97" y="204.16" width="50.34" height="20.38" style="opacity:0.1"/><rect x="84.51" y="204.16" width="50.34" height="20.38" style="opacity:0.1"/><rect x="284.39" y="61" width="50.34" height="20.38" style="opacity:0.2"/><rect x="256.82" y="89.16" width="50.34" height="20.38" style="opacity:0.1"/><rect x="183.46" y="61" width="50.34" height="20.38" style="opacity:0.2"/><rect x="199.43" y="145.81" width="50.34" height="20.38" style="opacity:0.1"/><rect x="342.8" y="280" width="50.34" height="20.38" style="opacity:0.2"/><rect x="342.8" y="335" width="50.34" height="20.38" style="opacity:0.2"/><rect x="110.41" y="336" width="50.34" height="20.38" style="opacity:0.2"/><rect x="429.27" y="308.17" width="50.34" height="20.38" style="opacity:0.1"/><rect x="401.8" y="334.81" width="50.34" height="20.38" style="opacity:0.1"/><rect x="284.39" y="280" width="50.34" height="20.38" style="opacity:0.2"/><rect x="314.35" y="308.17" width="50.34" height="20.38" style="opacity:0.1"/><rect x="290.35" y="366.17" width="50.34" height="20.38" style="opacity:0.1"/><rect x="362.35" y="393.17" width="50.34" height="20.38" style="opacity:0.1"/><rect x="172.35" y="393.17" width="50.34" height="20.38" style="opacity:0.1"/><rect x="28.8" y="393.17" width="50.34" height="20.38" style="opacity:0.1"/><rect x="211.82" y="239.16" width="50.34" height="20.38" style="opacity:0.1"/><rect x="269.35" y="239.16" width="50.34" height="20.38" style="opacity:0.1"/><rect x="169.46" y="280" width="50.34" height="20.38" style="opacity:0.2"/><rect x="224.89" y="338.17" width="50.34" height="20.38" style="opacity:0.1"/><rect x="54.54" y="280" width="50.34" height="20.38" style="opacity:0.2"/><rect x="51.8" y="354.81" width="50.34" height="20.38" style="opacity:0.2"/><rect x="26.97" y="308.17" width="50.34" height="20.38" style="opacity:0.1"/><rect x="84.51" y="308.17" width="50.34" height="20.38" style="opacity:0.1"/></g><g id="freepik--Floor--inject-164"><ellipse cx="254.97" cy="456.5" rx="203" ry="11.5" style="fill:#263238;stroke:#263238;stroke-miterlimit:10"/></g><g id="freepik--Character--inject-164"><path d="M209.67,360s8.15,16.31,13.17,25.1,20.08,27,25.1,33.25,13.8,17.57,14.11,19.14-3.45,5.33-7.52,10-9.1,5-9.42,7.85,13.18,2.82,17.57,2.51,10.35-7.53,13.18-9.42,5.64-4.07,5.33-7.52-5-6.59-6.9-10-12.24-29.8-17.25-42.35-10.67-21.33-11.93-23.84-3.76-6.9-3.76-6.9l-.63-6.28-32.62,6Z" style="fill:#fff;stroke:#263238;stroke-miterlimit:10"/><path d="M281.19,441c-.2-2.24-2.25-4.35-4.18-6.49a42.76,42.76,0,0,1-10.56,9s-2.2-2.83-3.14-3.77a5.34,5.34,0,0,1-1.26-2.19c.32,1.56-3.45,5.33-7.52,10s-9.1,5-9.42,7.85,13.18,2.82,17.57,2.51,10.35-7.53,13.18-9.42S281.5,444.41,281.19,441Z" style="fill:#E6CE07;stroke:#263238;stroke-miterlimit:10"/><path d="M281.19,441a4.6,4.6,0,0,0-.14-.74,34.43,34.43,0,0,1-4.63,4.06c-4.77,3.32-10.88,10.6-15.07,11.44-3.54.71-13.07-.78-15.92-1.26a2.29,2.29,0,0,0-.32.93c-.31,2.82,13.18,2.82,17.57,2.51s10.35-7.53,13.18-9.42S281.5,444.41,281.19,441Z" style="fill:#fff;stroke:#263238;stroke-miterlimit:10"/><path d="M205.28,356.26s-2.2,7.21-3.46,13.8-5.64,46.43-7.84,56.15-3.45,15.06-3.45,15.06-15.06,1.25-19.13-.63-7.53-.62-6.59,2.51,11.92,10.35,18.51,13.18,15.68,4.7,17.56,2.82,3.45-14.12,3.77-16.31,18.51-32.63,22-43.92,2.82-22.9,3.76-27,6.27-15.68,6.27-15.68Z" style="fill:#fff;stroke:#263238;stroke-miterlimit:10"/><path d="M171.4,440.64c-4.08-1.88-7.53-.62-6.59,2.51s11.92,10.35,18.51,13.18,15.68,4.7,17.56,2.82c1.32-1.32,2.49-7.73,3.17-12.19A29.9,29.9,0,0,1,188,445l2.51-3.76S175.47,442.52,171.4,440.64Z" style="fill:#E6CE07;stroke:#263238;stroke-miterlimit:10"/><path d="M200.88,459.15a5.56,5.56,0,0,0,1-1.92,43,43,0,0,1-20.6-5.42c-9.75-5.48-14.46-9.18-16.31-10.79a2.58,2.58,0,0,0-.15,2.13c.94,3.14,11.92,10.35,18.51,13.18S199,461,200.88,459.15Z" style="fill:#fff;stroke:#263238;stroke-miterlimit:10"/><path d="M182.69,263.4s0,25.41,1.88,40.16,2.2,45.8,2.2,48.93,18.19,10,35.13,10,35.45-5,39.53-6.27a44.32,44.32,0,0,0,6-2.2s3.13-36.07,3.13-56.15-10-39.21-12.86-42.66-6.59-7.53-6.59-7.53S227.55,259,210.61,259.64s-26.35-.94-26.35-.94Z" style="fill:#263238;stroke:#263238;stroke-miterlimit:10"/><path d="M199.48,167.5s-15.47,5.15-25.41,7.73-9.94,19.52-10.68,25.41a160.41,160.41,0,0,1-7,28c-3.68,10.68-4.78,18.78,1.84,21s11.05-1.47,15.1-4.42,8.84-8.83,8.84-8.83-2.21,25.41,0,29.46,14.37,5.52,29.47,5.15,32.4-9.2,36.82-15.83,5.16-8.84,3.69-16.94-14.37-42-26.52-57.82S199.48,167.5,199.48,167.5Z" style="fill:#E6CE07;stroke:#263238;stroke-miterlimit:10"/><path d="M175.26,212a38.83,38.83,0,0,1-.81-5.34" style="fill:none;stroke:#263238;stroke-miterlimit:10"/><path d="M181.45,234.67s-3.21-10.11-5.28-18.64" style="fill:none;stroke:#263238;stroke-miterlimit:10"/><path d="M199.48,167.5s-13,4.33-22.83,7c.2,5.08,1.82,17.16,12.52,19.47,13,2.81,19-17.47,19.8-25.75A21.34,21.34,0,0,0,199.48,167.5Z" style="fill:#fff;stroke:#263238;stroke-miterlimit:10"/><path d="M183.72,184.86l-2.09-12.14L177,176.07c-5.44,2.09-13.4-7.12-18-14.24s-10.89-27.63-10.89-27.63,0-2.93,20.93-11.31,30.57-7.53,36-4.18a14.18,14.18,0,0,1,7.12,13.82c-.42,5.44-3.35,10-5.44,11.72a30.07,30.07,0,0,0-4.61,5.44,17.24,17.24,0,0,0-1.67,8c0,5,2.09,18.42,2.09,18.42" style="fill:#fff;stroke:#263238;stroke-miterlimit:10"/><polyline points="165.72 144.67 167.39 157.23 172 155.97" style="fill:none;stroke:#263238;stroke-miterlimit:10"/><path d="M174.93,146.76a9.4,9.4,0,0,0,10-.84" style="fill:none;stroke:#263238;stroke-miterlimit:10"/><path d="M155.5,148.46s3.07,2.41,7.67.22" style="fill:none;stroke:#263238;stroke-miterlimit:10"/><path d="M177.86,147.8s.43,2.19,2,2,1.75-2,1.75-2A19.55,19.55,0,0,1,177.86,147.8Z" style="fill:#263238;stroke:#263238;stroke-miterlimit:10"/><path d="M157.48,149.55s.43,2.19,2,2,1.75-2,1.75-2A19.55,19.55,0,0,1,157.48,149.55Z" style="fill:#263238;stroke:#263238;stroke-miterlimit:10"/><path d="M173.47,138.6s6.14-1.54,11.62,1.31" style="fill:none;stroke:#263238;stroke-linecap:round;stroke-miterlimit:10;stroke-width:2px"/><path d="M162.74,139.69s-6.14-.44-9.65,2.63" style="fill:none;stroke:#263238;stroke-linecap:round;stroke-miterlimit:10;stroke-width:2px"/><polygon points="181.47 172.4 191.94 163.91 182.96 179.69 181.47 172.4" style="fill:#263238"/><line x1="169.45" y1="165" x2="172.79" y2="164.33" style="fill:none;stroke:#263238;stroke-miterlimit:10"/><path d="M218,114.45c-4.19-16.73-16-17.27-16.53-17.28L196.86,97l4.5-.85c.29-.06,7.18-1.34,12.9.34l-.28,1a27.23,27.23,0,0,0-9.42-.69c4.15,1.29,11.34,5.26,14.38,17.42Z" style="fill:#263238"/><path d="M203.73,158.65c-2.77-3.46-2.11-8.8-2.08-9l.57-4.39.42,4.41a6.92,6.92,0,0,0,2.32,4.27,7.45,7.45,0,0,0,5.76,1.25l.13,1a8.41,8.41,0,0,1-6.53-1.47,7.07,7.07,0,0,1-1.69-2,10.08,10.08,0,0,0,1.88,5.34Z" style="fill:#263238"/><path d="M181.77,91.22s-18.72,1-38,16.11-14.08,31.89-7.8,33.15,15.49-3.77,15.49-3.77,11.72,3.77,19.26.42,17.59-14.65,17.59-14.65-2.94,13.39,3.35,13.39a13.4,13.4,0,0,0,9.63-3.76s4.18-9.63,5.86-7.54,5,6.7,2.09,10.89a14.87,14.87,0,0,1-7.12,5.44s-2.51,5.86,0,8.79,9.21-2.51,11.73-7.95,1.25-19.68-.84-27.22-5.71-14.5-11.58-17.85a7,7,0,0,0,6.7-5.45c1.26-5.44-5.44-13.81-15.49-14.23s-20.52,4.18-18.42,9.63A7.06,7.06,0,0,0,181.77,91.22Z" style="fill:#263238;stroke:#263238;stroke-miterlimit:10"/><path d="M185.12,268s-2-5.33-3.33-6-7.61,8.7-12.67,15c-3.45,4.3-7.67,12.67-5.33,17s15,7.67,20,6,5.33-7,5.33-13,.67-14.33-.33-16.67A4.17,4.17,0,0,0,185.12,268Z" style="fill:#999;stroke:#263238;stroke-miterlimit:10"/><path d="M174.45,297.33c.73,1.27,2.44,2.34,4.54,3.05a12.89,12.89,0,0,0,4.8-.38c5-1.67,5.33-7,5.33-13s.67-14.33-.33-16.67a4.17,4.17,0,0,0-3.67-2.33S173.12,295,174.45,297.33Z" style="fill:#999;stroke:#263238;stroke-miterlimit:10"/><path d="M207.79,166.67S187.45,244,186.45,250s-2,25.33-2,25.33h2l2-25,22.34-83Z" style="fill:#999;stroke:#263238;stroke-miterlimit:10"/><path d="M165.72,236c5.52-1.47,22.35-8.86,22.35-8.86a24.91,24.91,0,0,1-.37,8.84c-1.11,4.05-12.9,17.54-20.64,21.5-10.66,5.46-16-2.89-15.43-8.76A49.46,49.46,0,0,1,154,237.23" style="fill:#E6CE07;stroke:#263238;stroke-miterlimit:10"/><path d="M201.36,220.07s4.32,0,5,.86.87,5.39-.43,6-2.8-.86-2.8-2.16-2.38-.64-2.38-.64Z" style="fill:#fff;stroke:#263238;stroke-miterlimit:10"/><path d="M184.38,229.74s3.32-8.11,4.79-11.42,4.05-4.42,5.16-4.42,8.47,4,8.47,5.52-2.58,12.89-4.42,14-2.21,2.21-4.42,2.58-8.47-1.84-8.47-1.84S184.38,233.79,184.38,229.74Z" style="fill:#fff;stroke:#263238;stroke-miterlimit:10"/><line x1="201.69" y1="223.48" x2="192.12" y2="219.06" style="fill:none;stroke:#263238;stroke-miterlimit:10"/><line x1="191.01" y1="225.69" x2="200.59" y2="228.63" style="fill:none;stroke:#263238;stroke-miterlimit:10"/><line x1="191.44" y1="230.64" x2="198.38" y2="233.42" style="fill:none;stroke:#263238;stroke-miterlimit:10"/><path d="M233.73,188.49s-14.36-24.68-23.2-23.2-8.1,15.1-2.58,28.72,19.89,44.93,21,47.14c0,0-20.26.74-23.57.37a29.68,29.68,0,0,1-6.27-1.47s-5.52-4.05-9.57-7-6.26-.37-6.26,1.11a13.82,13.82,0,0,0,.37,2.94,15.82,15.82,0,0,0-1.85,6.63c0,3.32,1.11,4.42,3.32,5.53s9.21,0,14,0,10.32,3.68,10.32,3.68,14,7.73,25.78,7.73S254,255.88,254.36,243,233.73,188.49,233.73,188.49Z" style="fill:#fff;stroke:#263238;stroke-miterlimit:10"/><path d="M233.73,188.49s-14.36-24.68-23.2-23.2-8.1,15.1-2.58,28.72,19.89,44.93,21,47.14c0,0-16.15.59-22,.45l-1.48,9.25a27.81,27.81,0,0,1,3.93,2.09s14,7.73,25.78,7.73S254,255.88,254.36,243,233.73,188.49,233.73,188.49Z" style="fill:#E6CE07;stroke:#263238;stroke-miterlimit:10"/><line x1="231.75" y1="247.8" x2="232.79" y2="250.25" style="fill:#fff;stroke:#263238;stroke-miterlimit:10"/><line x1="228.95" y1="241.15" x2="230.96" y2="245.93" style="fill:#fff;stroke:#263238;stroke-miterlimit:10"/><path d="M213.31,241.58c-2.51,0-4.78.06-6.33,0l-1.48,9.25a27.81,27.81,0,0,1,3.93,2.09s.62.34,1.71.88Z" style="fill:#fff;stroke:#263238;stroke-miterlimit:10"/></g></svg>