<svg xmlns="http://www.w3.org/2000/svg" viewBox="0 0 609.22 500"><g id="freepik--character-2--inject-87"><path d="M414.2,444.9s-2.08,8.05-3.64,9.6-4.15,3.89-4.15,5.45,1,1.82,1.82,2.08,25.42,0,25.42,0a35.1,35.1,0,0,0,.52-6.23c0-3.63-.26-9.6-.26-9.6s-4.93-4.67-11.15-4.93S414.2,444.9,414.2,444.9Z" style="fill:#737373;stroke:#263238;stroke-linecap:round;stroke-linejoin:round;stroke-width:0.892656px"></path><path d="M433.65,462a31,31,0,0,0,.4-3.12H406.71a2.34,2.34,0,0,0-.3,1c0,1.56,1,1.82,1.82,2.08S433.65,462,433.65,462Z" style="fill:#fff;stroke:#263238;stroke-linecap:round;stroke-linejoin:round;stroke-width:0.892656px"></path><path d="M460.11,450.09v11.16h11.68l1.3-2.34s4.15.52,5.44,1.3a25.7,25.7,0,0,0,3.38,1.56h17.9s4.41-1.3,4.41-3.89-.26-1-5.19-2.6A69.65,69.65,0,0,1,484.76,448a7.27,7.27,0,0,1-1.3-2.08S478,441,471.53,442.83,460.11,450.09,460.11,450.09Z" style="fill:#737373;stroke:#263238;stroke-linecap:round;stroke-linejoin:round;stroke-width:0.892656px"></path><path d="M476.46,457.1c-5.19-1.58-14.12-1.2-16.35-1.07v5.22h11.68l1.3-2.34s4.15.52,5.44,1.3a25.7,25.7,0,0,0,3.38,1.56h17.9s4.41-1.3,4.41-3.89C492.8,459.17,482.43,458.91,476.46,457.1Z" style="fill:#fff;stroke:#263238;stroke-linecap:round;stroke-linejoin:round;stroke-width:0.892656px"></path><path d="M434.43,263.82,410.82,261s-3.63,39.17-2.07,50.85,2.85,57.85,2.85,62.78,2.34,50.59,2.34,52.4-3.12,6-2.6,8.82,2.34,10.64,2.34,10.64,1.29-2.59,7-2.59,12.71,3.63,12.71,3.63,1.82-10.38,2.34-13.75-1.3-10.12-1.3-12.45,5.71-36.58,5.71-36.58L449,312.07S459.6,427.26,459.6,428.82s-1.82,8.56-1.82,10.9,2.33,10.37,2.33,10.37,18.68-4.93,19.72-4.67,3.63.52,3.63.52,0-7.78-1-10.63a31.56,31.56,0,0,1-1.82-6.23c0-.78,2.85-37.1,2.85-37.1L485,313.63,487.61,282,474.9,256.56l-39.69.77Z" style="fill:#263238;stroke:#263238;stroke-linecap:round;stroke-linejoin:round;stroke-width:0.892656px"></path><path d="M418.61,417.31c-.92,2.76-1.5,4.52-1.5,4.52" style="fill:none;stroke:#7a7a7a;stroke-linecap:round;stroke-linejoin:round;stroke-width:0.892656px"></path><path d="M439.5,304.86s-9,77.2-9.69,78.87c-.43,1.08-5.6,16.67-9.21,27.56" style="fill:none;stroke:#7a7a7a;stroke-linecap:round;stroke-linejoin:round;stroke-width:0.892656px"></path><path d="M431.48,395.43s-8,26.4-9,31.08-5.68,7.68-5.68,10,13.7-3.34,12.7-1.33-6.69,5-6.69,5" style="fill:none;stroke:#7a7a7a;stroke-linecap:round;stroke-linejoin:round;stroke-width:0.892656px"></path><path d="M478.81,311.56c.43,24.09,1.32,78.92.8,89.55-.67,13.7-3,27.07-3,28.07s3.46,6.56,2.9,7.79-5.25,5.2-3.9,5.24a12.09,12.09,0,0,1,3.47,1" style="fill:none;stroke:#7a7a7a;stroke-linecap:round;stroke-linejoin:round;stroke-width:0.892656px"></path><path d="M478.6,300.18s0,1.84.1,5" style="fill:none;stroke:#7a7a7a;stroke-linecap:round;stroke-linejoin:round;stroke-width:0.892656px"></path><path d="M471.25,433.19s-13.41,7.44-10.71,7.06,11.71-5.05,11.71-5.05" style="fill:none;stroke:#7a7a7a;stroke-linecap:round;stroke-linejoin:round;stroke-width:0.892656px"></path><path d="M431.06,265.64s17.9,3.11,29.83,2.07,14.53-3.37,14.53-3.37l-1-6.23a75.58,75.58,0,0,1-21.53,2.08c-10.64-.78-17.9-1.56-17.9-1.56Z" style="fill:#737373;stroke:#263238;stroke-linecap:round;stroke-linejoin:round;stroke-width:0.892656px"></path><rect x="452.83" y="263.16" width="10.73" height="4.35" style="fill:#fff;stroke:#263238;stroke-linecap:round;stroke-linejoin:round;stroke-width:0.892656px"></rect><path d="M455.19,271.34l-.26,8.31s5.7.77,5.18,3.37a23,23,0,0,1-2.59,6" style="fill:none;stroke:#7a7a7a;stroke-linecap:round;stroke-linejoin:round;stroke-width:0.892656px"></path><path d="M463,271.34l-.78,6.49s2.34-.52,2.34,1.82-1.56,5.18-1.56,6.22" style="fill:none;stroke:#7a7a7a;stroke-linecap:round;stroke-linejoin:round;stroke-width:0.892656px"></path><polyline points="463.23 297.29 450.52 302.22 448.96 312.07" style="fill:none;stroke:#7a7a7a;stroke-linecap:round;stroke-linejoin:round;stroke-width:0.892656px"></polyline><path d="M434.69,167.83s11.42-1.82,17.64.52,14.79,10.38,14.79,10.38l6.49,81.46s-5.45,3.63-16.35,3.11S436,262,436,262s2.85-19.45.52-35.54-5.19-53.7-5.19-53.7S432.36,168.61,434.69,167.83Z" style="fill:#fff;stroke:#263238;stroke-linecap:round;stroke-linejoin:round;stroke-width:0.892656px"></path><path d="M457.52,199.74s1.82,17.38,1.82,32.43-.78,27.24-.78,27.24" style="fill:none;stroke:#263238;stroke-linecap:round;stroke-linejoin:round;stroke-width:0.892656px"></path><polygon points="458.82 183.91 467.12 194.55 462.97 172.76 460.12 172.24 458.82 183.91" style="fill:#fff;stroke:#263238;stroke-linecap:round;stroke-linejoin:round;stroke-width:0.892656px"></polygon><path d="M486.84,181.32s2.59,24.65,2.85,29.06,8.82,24.9,8.82,29.05.78,7.53,0,10.12-8,3.89-11.15,3.11-5.19-3.89-6.23-7.52-1.56-12.19-1.3-17.64,1.82-33.21,3.37-37.88A51.29,51.29,0,0,1,486.84,181.32Z" style="fill:#E6CE07;stroke:#263238;stroke-linecap:round;stroke-linejoin:round;stroke-width:0.892656px"></path><path d="M463.23,174.06s2.33,66.15,2.33,69-.52,3.11.52,6.22,24.65,51.37,24.65,51.37l7.78-6.49S485,268.49,484.76,267.45s-2.33-9.08-2.33-9.08l-.78-21L485,195.59s2.08-13,1.82-14.27S463,172.76,463,172.76Z" style="fill:#E6CE07;stroke:#263238;stroke-linecap:round;stroke-linejoin:round;stroke-width:0.892656px"></path><path d="M467.12,201.3l8.56-1.82L470,175c-3.93-1.27-7-2.21-7-2.21l.26,1.3s2.33,66.15,2.33,69-.52,3.11.52,6.22l.18.45,9.94-42Z" style="fill:#E6CE07;stroke:#263238;stroke-linecap:round;stroke-linejoin:round;stroke-width:0.892656px"></path><path d="M477.44,143.25s2.92.8,6.63-2.65,5.3-6.89,3.45-9.55-9-6.36-9-6.36-2.92-9.81-11.4-13-26.25.26-31.29,5.83-8.49,14.05-6.9,18.3,4,9.54,4,10.87,2.21,9.31,7,11.43,3.63-4.8,4.69-7.72,5.3-3.71,10.87-5S469.48,139,470.55,138,477.44,143.25,477.44,143.25Z" style="fill:#263238;stroke:#263238;stroke-linecap:round;stroke-linejoin:round;stroke-width:0.892656px"></path><path d="M442.37,138.65s12.11-3.81,18.69-13.85" style="fill:none;stroke:#7a7a7a;stroke-linecap:round;stroke-linejoin:round;stroke-width:0.892656px"></path><path d="M438.51,138.79q-1.2.89-2.37,1.59" style="fill:none;stroke:#7a7a7a;stroke-linecap:round;stroke-linejoin:round;stroke-width:0.892656px"></path><path d="M454.83,122A109.77,109.77,0,0,1,441,136.87" style="fill:none;stroke:#7a7a7a;stroke-linecap:round;stroke-linejoin:round;stroke-width:0.892656px"></path><path d="M439.88,155.64l.26,10.63s9.6,21,12.45,24.39l4.41,5.19L461.15,172s-6.48-5.19-10.12-10.64a54.75,54.75,0,0,0-8.82-9.85A10.68,10.68,0,0,0,439.88,155.64Z" style="fill:#fff;stroke:#263238;stroke-linecap:round;stroke-linejoin:round;stroke-width:0.892656px"></path><path d="M460.14,177.81l1-5.83s-6.48-5.19-10.12-10.64a45.5,45.5,0,0,0-3.91-5c-1.17.13-3.81.89-1.16,5.44C446,161.79,452.62,174,460.14,177.81Z" style="fill:#263238;stroke:#263238;stroke-linecap:round;stroke-linejoin:round;stroke-width:0.892656px"></path><polygon points="439.62 163.68 452.59 184.18 443.77 196.89 436.25 165.5 439.62 163.68" style="fill:#fff;stroke:#263238;stroke-linecap:round;stroke-linejoin:round;stroke-width:0.892656px"></polygon><path d="M437.28,165s7.27,27.24,8.57,36.32-1.82,43.84-2.34,50.07-22.05,36.06-24.39,41.51a67.93,67.93,0,0,1-4.67,9.08,30.06,30.06,0,0,1-8.82-5.45c-4.41-3.89-8.3-7-8.3-7l11.16-35.28-2.34-76.53s24.91-9.34,25.69-9.6S437.28,165,437.28,165Z" style="fill:#E6CE07;stroke:#263238;stroke-linecap:round;stroke-linejoin:round;stroke-width:0.892656px"></path><path d="M437.28,165s-2.83,1.73-4.45,2.61l0,.5-1.81,29.32,10.12,2.07-8.56,7L443,253.3a7.7,7.7,0,0,0,.52-1.93c.52-6.23,3.63-41,2.34-50.07S437.28,165,437.28,165Z" style="fill:#E6CE07;stroke:#263238;stroke-linecap:round;stroke-linejoin:round;stroke-width:0.892656px"></path><path d="M478.28,269s-4.16,1-5.19,1.81-4.15,5.45-4.67,6.23.77,1.3,1.55,1.3,4.41-2.34,4.41-2.34l8.56,9.6s2.86-2.85,3.12-5.7.26-6.49.26-6.49Z" style="fill:#fff;stroke:#263238;stroke-linecap:round;stroke-linejoin:round;stroke-width:0.892656px"></path><path d="M498.51,243.58a64.8,64.8,0,0,1-1.82,14.53c-1.81,7.53-9.08,21.54-9.08,21.54l-10.89-11.16L484,243.07s6-4.67,10.12-1.3" style="fill:#E6CE07;stroke:#263238;stroke-linecap:round;stroke-linejoin:round;stroke-width:0.892656px"></path><path d="M429.5,273.42l3.37,1.56s3.64,5.7,4.41,6.48,1.56,2.08.52,2.86-3.89-.52-4.67-1.3a19.08,19.08,0,0,0-1.81-1.56l-9.34,8s-4.93-9.08-4.93-10.63,9.08-7.53,9.08-7.53Z" style="fill:#fff;stroke:#263238;stroke-linecap:round;stroke-linejoin:round;stroke-width:0.892656px"></path><path d="M406.15,177.69a21.45,21.45,0,0,0-3.89,4.67c-1,2.07.26,7.78-.78,9.86s-10.11,50.07-9.6,53.44,23.61,38.66,23.61,38.66l14-10.9L413.68,242s11.15-32.95,11.15-34-1-8-4.15-11.15" style="fill:#E6CE07;stroke:#263238;stroke-linecap:round;stroke-linejoin:round;stroke-width:0.892656px"></path><path d="M471.34,132.38A41,41,0,0,1,456,141.66c-9.55,3.18-13,1.86-13,1.86s-.8,9,.26,13.52,12.15,13.43,14.54,15,9,2.92,11.14,1.06,6.14-17.4,7.73-23.24a48.55,48.55,0,0,0,1.6-11.4Z" style="fill:#fff;stroke:#263238;stroke-linecap:round;stroke-linejoin:round;stroke-width:0.892656px"></path><path d="M475.58,143s-1.06-1.33-2.91.26a14.17,14.17,0,0,0-2.39,2.39s-.7,2,.27,10.87c.19,1.77-4.25,1.86-5.31,1.59a8,8,0,0,1-2.38-1.32" style="fill:none;stroke:#263238;stroke-linecap:round;stroke-linejoin:round;stroke-width:0.892656px"></path><path d="M464.45,144.05s-4-2.65-7.43-2.65" style="fill:none;stroke:#263238;stroke-linecap:round;stroke-linejoin:round;stroke-width:0.892656px"></path><path d="M462.59,146.43l-.26,2.92s-2.92,1.06-5-.26" style="fill:none;stroke:#263238;stroke-linecap:round;stroke-linejoin:round;stroke-width:0.892656px"></path><path d="M475.05,146.17l-.26,3.71s-2.39.8-3.71,0" style="fill:none;stroke:#263238;stroke-linecap:round;stroke-linejoin:round;stroke-width:0.892656px"></path><path d="M468.16,162.61a9.45,9.45,0,0,1-3.18,0c-2.12-.26-5-.26-5-.26" style="fill:none;stroke:#263238;stroke-linecap:round;stroke-linejoin:round;stroke-width:0.892656px"></path><path d="M446.94,147.23s-2.91-8.22-6.09-5.3-2.13,7.16-1.07,9.54,3.72,4,5.31,2.12" style="fill:#fff;stroke:#263238;stroke-linecap:round;stroke-linejoin:round;stroke-width:0.892656px"></path><path d="M471.34,132.38S466.4,149.77,443,143.52c0,0,15.32,6.55,24-10.41C466.94,133.11,469.86,127.15,471.34,132.38Z" style="fill:#263238;stroke:#263238;stroke-linecap:round;stroke-linejoin:round;stroke-width:0.892656px"></path></g></svg>