<svg xmlns="http://www.w3.org/2000/svg" viewBox="140.25 197.63 235.43 238.07"><g id="freepik--Notebook--inject-151"><polygon points="166.69 406.54 141.96 428.05 174.85 430.03 196.61 408.02 166.69 406.54" style="fill:#fff;stroke:#263238;stroke-linecap:round;stroke-linejoin:round"/><polygon points="196.61 408.02 228.27 409.5 208.48 432.5 174.85 430.03 196.61 408.02" style="fill:#fff;stroke:#263238;stroke-linecap:round;stroke-linejoin:round"/><line x1="165.06" y1="413.12" x2="184" y2="414.52" style="fill:none;stroke:#263238;stroke-linecap:round;stroke-linejoin:round"/><line x1="156.98" y1="418.14" x2="180.94" y2="419.53" style="fill:none;stroke:#263238;stroke-linecap:round;stroke-linejoin:round"/><line x1="153.36" y1="422.32" x2="176.48" y2="423.99" style="fill:none;stroke:#263238;stroke-linecap:round;stroke-linejoin:round"/><line x1="184.84" y1="425.1" x2="208.8" y2="426.78" style="fill:none;stroke:#263238;stroke-linecap:round;stroke-linejoin:round"/><polygon points="141.96 428.05 141.47 430.03 174.85 432.01 174.85 430.03 141.96 428.05" style="fill:#263238;stroke:#263238;stroke-linecap:round;stroke-linejoin:round"/><polygon points="174.85 430.77 174.85 432.01 209.22 434.48 228.02 411.23 227.28 410 208.48 432.5 174.85 430.77" style="fill:#263238;stroke:#263238;stroke-linecap:round;stroke-linejoin:round"/></g><g id="freepik--Character--inject-151"><path d="M273.12,352.46c-1.8,16.22-2.91,39-3,54.1h98.76c-.1-15.14-1.21-37.88-3-54.1-1.88-16.95,3.39-23,6.78-42.94s1.51-62.54-1.5-66.69c-1.37-1.88-4.6-2.44-7.73-2.49a42.88,42.88,0,0,1-12.53,19.81c-15.69,14.07-44.72,18.12-65-1.08a37.36,37.36,0,0,1-10.74-18.72c-3,.09-6,.68-7.34,2.48-3,4.15-4.9,46.72-1.51,66.69S275,335.51,273.12,352.46Z" style="fill:#263238;stroke:#263238;stroke-linecap:round;stroke-linejoin:round"/><path d="M361,216.08c3.41,17.67-1.51,32.78-12.44,42.58-14.5,13-41.35,16.74-60.05-1s-9.3-46.46-2.11-46.46S359.76,209.77,361,216.08Z" style="fill:#263238;stroke:#263238;stroke-linecap:round;stroke-linejoin:round"/><path d="M261.38,405.64s-10.31,1.2-11.75,1.2-2.16,1.68-.24,3.36,8.4.72,8.4.72Z" style="fill:#fff;stroke:#263238;stroke-linecap:round;stroke-linejoin:round"/><path d="M260.34,273.17V284s-18.22,9.27-25.9,12.15-13.11,5.44-14.07,9.91-10.23,46.06-10.87,51.17-5.44,9.92-5.44,12.79a10.15,10.15,0,0,0,.64,4.16s2.24,10.55,9.91,14.71,14.07-1,17.59-3.84,7-10.23,7-10.23-2.56,24.63-2.88,26.86a39.74,39.74,0,0,0-.32,4.8h91.78a478.81,478.81,0,0,1,2.88-57.24c1.26-11.77-1-48.61-4.48-54s-12.79-8.31-20.78-10.55-18.23-4.16-18.23-4.16l-.32-4.16Z" style="fill:#fff;stroke:#263238;stroke-linecap:round;stroke-linejoin:round"/><line x1="232.77" y1="335.54" x2="231.56" y2="328.17" style="fill:none;stroke:#263238;stroke-linecap:round;stroke-linejoin:round"/><line x1="239.24" y1="374.86" x2="233.53" y2="340.14" style="fill:none;stroke:#263238;stroke-linecap:round;stroke-linejoin:round"/><path d="M272.82,309.94c22,2.75,44.82-17.8,47.68-19.68-4.32-2.45-9.95-4.15-15.06-5.58-8-2.24-18.23-4.16-18.23-4.16l-.32-4.16-26.55-3.19V284s-12,6.1-20.61,9.94A55.76,55.76,0,0,0,272.82,309.94Z" style="fill:#fff;stroke:#263238;stroke-linecap:round;stroke-linejoin:round"/><path d="M260.34,284a123.91,123.91,0,0,1-1.59,13.11" style="fill:none;stroke:#263238;stroke-linecap:round;stroke-linejoin:round"/><path d="M287.21,280.52s.64,9.27,1.6,12.47" style="fill:none;stroke:#263238;stroke-linecap:round;stroke-linejoin:round"/><path d="M296.35,203.67c-5.88-3.36-18.13-5.78-24.76-4.41-7.07,1.45-16.34,4.51-23.64,10.9-13.67,12-8.63,30.23-7.43,31.9l1.2,1.68a103.26,103.26,0,0,1-2.64,13.68c-2.16,8.63,8.39,17,21.34,19.42s33.82.48,47.49-3.59S324,258.37,319.19,242.3s-10-30.62-17.91-35.65C299.51,205.52,297.86,204.53,296.35,203.67Z" style="fill:#E6CE07;stroke:#263238;stroke-linecap:round;stroke-linejoin:round"/><path d="M270.61,218.54a15.75,15.75,0,0,1,3-.46" style="fill:none;stroke:#263238;stroke-linecap:round;stroke-linejoin:round"/><path d="M244.83,242.78s-3.35-1.19-1.92-6c1.17-3.9,14.21-13.49,24.33-17.21" style="fill:none;stroke:#263238;stroke-linecap:round;stroke-linejoin:round"/><path d="M267.79,210.17c1.1-.12,2.24-.2,3.43-.24" style="fill:none;stroke:#263238;stroke-linecap:round;stroke-linejoin:round"/><path d="M240,233s3.79-18.36,24.67-22.31" style="fill:none;stroke:#263238;stroke-linecap:round;stroke-linejoin:round"/><path d="M280.67,206.28c-1.88,3.48-4.12,8.2-4.66,11.8" style="fill:none;stroke:#263238;stroke-linecap:round;stroke-linejoin:round"/><path d="M283.45,201.53s-.29.45-.76,1.23" style="fill:none;stroke:#263238;stroke-linecap:round;stroke-linejoin:round"/><path d="M296.66,214.55a64.39,64.39,0,0,1,16.77,25.12" style="fill:none;stroke:#263238;stroke-linecap:round;stroke-linejoin:round"/><path d="M288.73,208.73a36.41,36.41,0,0,1,5.87,4.05" style="fill:none;stroke:#263238;stroke-linecap:round;stroke-linejoin:round"/><path d="M316.86,264.21a14.77,14.77,0,0,1-8.71,6.88" style="fill:none;stroke:#263238;stroke-linecap:round;stroke-linejoin:round"/><path d="M297.36,224.8s21.83,20.86,21.35,32.38a17.55,17.55,0,0,1-.59,3.9" style="fill:none;stroke:#263238;stroke-linecap:round;stroke-linejoin:round"/><path d="M301.44,255s6.71,3.83,3.84,10.79-7.44,5-7.44,5" style="fill:none;stroke:#263238;stroke-linecap:round;stroke-linejoin:round"/><path d="M275.34,222.62a82.74,82.74,0,0,1-18.16,13.84l-11.53,6.63s6.92,25.65,10.09,30.55,8.64,12.1,16.43,12.1,19.31-11.24,19.88-13.25,3.17-12.4,3.17-12.4a7.3,7.3,0,0,0,2.88-3.46,21.62,21.62,0,0,0,.58-4.9s-13-12.39-17.58-17.87A27.83,27.83,0,0,1,275.34,222.62Z" style="fill:#fff;stroke:#263238;stroke-linecap:round;stroke-linejoin:round"/><path d="M266,249.07l-19.21-1.28a1.1,1.1,0,0,0-1.16,1.31c.58,2.91,2.06,9.44,4.06,11,2.6,2,10.27,1.69,11.83,1.69,3.31,0,5.24-8.95,5.45-9.95a1.37,1.37,0,0,0,0-.19l0-1.44A1.11,1.11,0,0,0,266,249.07Z" style="fill:none;stroke:#263238;stroke-linecap:round;stroke-linejoin:round;stroke-width:2px"/><path d="M272,249.62l19.25.52a1.09,1.09,0,0,1,1,1.41c-.84,2.84-2.93,9.2-5.07,10.56-2.77,1.77-10.38.72-11.93.58-3.3-.31-4.39-9.4-4.5-10.42a.6.6,0,0,1,0-.19l.1-1.43A1.09,1.09,0,0,1,272,249.62Z" style="fill:none;stroke:#263238;stroke-linecap:round;stroke-linejoin:round;stroke-width:2px"/><line x1="265.99" y1="249.07" x2="271.99" y2="249.62" style="fill:none;stroke:#263238;stroke-linecap:round;stroke-linejoin:round;stroke-width:2px"/><line x1="267.36" y1="251.34" x2="270.77" y2="251.45" style="fill:none;stroke:#263238;stroke-linecap:round;stroke-linejoin:round;stroke-width:2px"/><line x1="292.49" y1="250.81" x2="295.58" y2="248.79" style="fill:none;stroke:#263238;stroke-linecap:round;stroke-linejoin:round;stroke-width:2px"/><path d="M281,253.9c0,1.35-.62,2.45-1.38,2.45s-1.39-1.1-1.39-2.45.62-2.45,1.39-2.45S281,252.54,281,253.9Z" style="fill:#263238"/><path d="M259.91,253.36c0,1.36-.62,2.45-1.38,2.45s-1.39-1.09-1.39-2.45.62-2.44,1.39-2.44S259.91,252,259.91,253.36Z" style="fill:#263238"/><path d="M266.9,254.94s-2.4,9.59-2.72,10.71,1.44,2.24,4.64,1.12" style="fill:none;stroke:#263238;stroke-linecap:round;stroke-linejoin:round"/><path d="M264.18,272.05s5.76,1.43,10.24-.32" style="fill:none;stroke:#263238;stroke-linecap:round;stroke-linejoin:round"/><path d="M274.42,247.9s3.19-3.68,13.27-.16" style="fill:none;stroke:#263238;stroke-linecap:round;stroke-linejoin:round"/><path d="M264.66,247.1s-5.91-4.64-12.63-1" style="fill:none;stroke:#263238;stroke-linecap:round;stroke-linejoin:round"/><path d="M313.86,319.43s-.34,38.26-1,45.84,1,14.18,8.44,18.14,16.89,3.63,19.93,2.64,13.85-6.6,12.5-15.17-10.47-37.27-14.53-50.79S334.47,300.3,329.06,296s-7.06-5.46-11.79-2.16" style="fill:#fff;stroke:#263238;stroke-linecap:round;stroke-linejoin:round"/><path d="M195.42,401.4l4.16-6.07s11.52-3.52,16-6.08,7.36-9.91,2.88-14.71-11.83-6.39-16.95-2.56-7,10.88-9.91,12.79-14.71,4.8-17.91,5.44-4.48,3.2-3.84,5.44,2.88,11.19,4.48,12.47,7,5.12,10.87,5.12,7.68-4.48,9-4.8S198.94,404.92,195.42,401.4Z" style="fill:#fff;stroke:#263238;stroke-linecap:round;stroke-linejoin:round"/><path d="M187.83,391.16s-1.51,14.09-1,14.63a4.82,4.82,0,0,0,4,.82c1.64-.41,3.82-11.07,3.82-13.26a13.73,13.73,0,0,0-1.5-5.06" style="fill:none;stroke:#263238;stroke-linecap:round;stroke-linejoin:round"/><path d="M178.25,392.25s4.65,8.35,6.43,9.58l1.78,1.23" style="fill:none;stroke:#263238;stroke-linecap:round;stroke-linejoin:round"/><path d="M173.19,396.77s4.65,8.61,7,9.71,7.66,3.14,13,2.73" style="fill:none;stroke:#263238;stroke-linecap:round;stroke-linejoin:round"/><path d="M179,378.79l5.69,23,1.64.54.28-2.46-4.87-21.77a1.41,1.41,0,0,0-1.78-1h0A1.41,1.41,0,0,0,179,378.79Z" style="fill:#263238;stroke:#263238;stroke-linecap:round;stroke-linejoin:round"/><path d="M176.89,409.76s6,2.05,7.52,2.32a11,11,0,0,0,5.74-.54" style="fill:none;stroke:#263238;stroke-linecap:round;stroke-linejoin:round"/><path d="M195.42,401.4a3.38,3.38,0,0,1-2.63,1.6" style="fill:none;stroke:#263238;stroke-linecap:round;stroke-linejoin:round"/><path d="M319,374s-35,23-36.94,24-21.11,6.23-24,7.91-4.8,8.88-6,11.27-2.4,9.12-2.4,9.12a4,4,0,0,0,3.36,1.2c2.16-.24,4.56-9.36,4.56-9.36l4.79-6.95s-3.12,6.95-3.12,8.63-1.19,6.24-1.19,7,1.43,1.68,3.35.72,3.36-8.16,3.36-8.16l4.08-6.71s-3.12,9.35-4.08,11.27-1.2,2.64,1.44,2.4,2.88-3.12,3.6-5,2.4-5.51,2.4-5.51l4.79-3.36s-3.11,6.71-4.07,8.39-1.92,2.16,1.44,2.16,5.51-7.43,5.51-7.43a45,45,0,0,0,3.6-2.88c1-1,4.56-6.48,4.56-6.48s42.69-14.39,47.73-16.79,5.51-6,3.59-9.11S329,369.9,319,374Z" style="fill:#fff;stroke:#263238;stroke-linecap:round;stroke-linejoin:round"/></g></svg>