<svg xmlns="http://www.w3.org/2000/svg" viewBox="0 0 500 500"><g id="freepik--background-simple--inject-151"><path d="M475.24,302.67c-14.9,40.26-45.32,83.84-88.14,96.75-64.7,19.5-72.43,72.14-188.31,67.26a231.57,231.57,0,0,1-50.11-7.42,193,193,0,0,1-23.55-7.91c-67.7-27.68-103-88.6-105.95-152.34-3.87-83.84,54.08-123.8,91.74-147.2S194,37.75,307.92,41.64a224.26,224.26,0,0,1,51.5,7.6c38.35,10.47,77.33,33.65,100,67.52q2.55,3.83,4.87,7.8C494.58,176.48,495.54,247.77,475.24,302.67Z" style="fill:#E6CE07"></path><path d="M475.24,302.67c-14.9,40.26-45.32,83.84-88.14,96.75-64.7,19.5-72.43,72.14-188.31,67.26a231.57,231.57,0,0,1-50.11-7.42,193,193,0,0,1-23.55-7.91c-67.7-27.68-103-88.6-105.95-152.34-3.87-83.84,54.08-123.8,91.74-147.2S194,37.75,307.92,41.64a224.26,224.26,0,0,1,51.5,7.6c38.35,10.47,77.33,33.65,100,67.52q2.55,3.83,4.87,7.8C494.58,176.48,495.54,247.77,475.24,302.67Z" style="fill:#fff;opacity:0.7000000000000001"></path></g><g id="freepik--Window--inject-151"><path d="M473,50a5.15,5.15,0,0,0-4.87,3.51H215.57a5.17,5.17,0,1,0,0,3.31H468.08A5.16,5.16,0,1,0,473,50Z" style="opacity:0.30000000000000004"></path><g style="opacity:0.30000000000000004"><path d="M275.29,57.79c3.6,87.54,6.75,175.92,10.52,263.14l-.37,17.1s-16.19,0-24.71.85-21.72.85-31.09.85-14.48-3.4-14.48-3.4l.61-15.42c1.89-87.18,3.93-175.57,5.26-263.12" style="fill:none;stroke:#000;stroke-linecap:round;stroke-linejoin:round"></path><line x1="234.95" y1="306.46" x2="234.9" y2="316.77" style="fill:none;stroke:#000;stroke-linecap:round;stroke-linejoin:round"></line><line x1="235.83" y1="105.63" x2="234.99" y2="297.31" style="fill:none;stroke:#000;stroke-linecap:round;stroke-linejoin:round"></line><line x1="236.05" y1="55.85" x2="235.85" y2="99.91" style="fill:none;stroke:#000;stroke-linecap:round;stroke-linejoin:round"></line><line x1="250.56" y1="156.54" x2="248.64" y2="284.16" style="fill:none;stroke:#000;stroke-linecap:round;stroke-linejoin:round"></line><line x1="252.07" y1="57" x2="250.69" y2="148.56" style="fill:none;stroke:#000;stroke-linecap:round;stroke-linejoin:round"></line><line x1="264.12" y1="192.03" x2="264.66" y2="310.48" style="fill:none;stroke:#000;stroke-linecap:round;stroke-linejoin:round"></line><line x1="263.74" y1="107.92" x2="264.08" y2="182.31" style="fill:none;stroke:#000;stroke-linecap:round;stroke-linejoin:round"></line><line x1="263.51" y1="58.14" x2="263.7" y2="98.77" style="fill:none;stroke:#000;stroke-linecap:round;stroke-linejoin:round"></line></g><g style="opacity:0.30000000000000004"><path d="M405.93,57.79c-3.46,92.69-7.87,186.31-11.18,278.51A155.14,155.14,0,0,0,412.86,338H449a103.89,103.89,0,0,0,16.75-1.73c-1.63-92.14-2.73-185.76-5.59-278.45" style="fill:none;stroke:#000;stroke-linecap:round;stroke-linejoin:round"></path><line x1="446.28" y1="306.46" x2="446.32" y2="316.77" style="fill:none;stroke:#000;stroke-linecap:round;stroke-linejoin:round"></line><line x1="445.4" y1="105.63" x2="446.24" y2="297.31" style="fill:none;stroke:#000;stroke-linecap:round;stroke-linejoin:round"></line><line x1="445.18" y1="55.85" x2="445.37" y2="99.91" style="fill:none;stroke:#000;stroke-linecap:round;stroke-linejoin:round"></line><line x1="430.66" y1="156.54" x2="432.59" y2="284.16" style="fill:none;stroke:#000;stroke-linecap:round;stroke-linejoin:round"></line><line x1="429.16" y1="57" x2="430.54" y2="148.56" style="fill:none;stroke:#000;stroke-linecap:round;stroke-linejoin:round"></line><line x1="417.11" y1="192.03" x2="416.57" y2="310.48" style="fill:none;stroke:#000;stroke-linecap:round;stroke-linejoin:round"></line><line x1="417.49" y1="107.92" x2="417.15" y2="182.31" style="fill:none;stroke:#000;stroke-linecap:round;stroke-linejoin:round"></line><line x1="417.71" y1="58.14" x2="417.53" y2="98.77" style="fill:none;stroke:#000;stroke-linecap:round;stroke-linejoin:round"></line></g><g style="opacity:0.30000000000000004"><polyline points="276.9 82.67 302.31 82.67 302.31 112.32 278.6 112.32" style="fill:none;stroke:#000;stroke-linecap:round;stroke-linejoin:round"></polyline><rect x="306.75" y="82.74" width="26.56" height="29.74" style="fill:none;stroke:#000;stroke-linecap:round;stroke-linejoin:round"></rect></g><g style="opacity:0.30000000000000004"><polyline points="404.67 82.67 379.25 82.67 379.25 112.32 402.97 112.32" style="fill:none;stroke:#000;stroke-linecap:round;stroke-linejoin:round"></polyline><rect x="348.26" y="82.74" width="26.56" height="29.74" transform="translate(723.08 195.22) rotate(180)" style="fill:none;stroke:#000;stroke-linecap:round;stroke-linejoin:round"></rect></g><polyline points="281.1 217.39 333.99 217.39 333.99 128.5 278.77 128.5" style="fill:none;stroke:#000;stroke-linecap:round;stroke-linejoin:round;opacity:0.30000000000000004"></polyline><polyline points="401.99 127.75 347.94 127.75 347.94 217.39 397.92 217.39" style="fill:none;stroke:#000;stroke-linecap:round;stroke-linejoin:round;opacity:0.30000000000000004"></polyline><polyline points="282.84 238.48 333.99 238.48 333.99 327.83 286.71 327.83" style="fill:none;stroke:#000;stroke-linecap:round;stroke-linejoin:round;opacity:0.30000000000000004"></polyline><polyline points="398.5 237.73 347.94 237.73 347.94 328.66 394.04 328.66" style="fill:none;stroke:#000;stroke-linecap:round;stroke-linejoin:round;opacity:0.30000000000000004"></polyline><line x1="286.48" y1="334.34" x2="394.75" y2="334.34" style="fill:none;stroke:#000;stroke-linecap:round;stroke-linejoin:round;opacity:0.30000000000000004"></line><line x1="276.69" y1="72.38" x2="404.6" y2="72.38" style="fill:none;stroke:#000;stroke-linecap:round;stroke-linejoin:round;opacity:0.30000000000000004"></line><line x1="340.95" y1="72.99" x2="340.95" y2="333.11" style="fill:none;stroke:#000;stroke-linecap:round;stroke-linejoin:round;opacity:0.30000000000000004"></line><line x1="278.31" y1="121.63" x2="402.74" y2="121.63" style="fill:none;stroke:#000;stroke-linecap:round;stroke-linejoin:round;opacity:0.30000000000000004"></line></g><g id="freepik--Plant--inject-151"><line x1="419.12" y1="277.19" x2="432.57" y2="406" style="fill:none;stroke:#263238;stroke-linecap:round;stroke-linejoin:round;stroke-width:2px"></line><line x1="430.8" y1="385.08" x2="424.49" y2="378.41" style="fill:none;stroke:#263238;stroke-linecap:round;stroke-linejoin:round;stroke-width:2px"></line><path d="M426.41,380.41a7.14,7.14,0,0,0-2.51-5.35c-1.62-1.45-10.15-5-11-2C412.06,376.29,420.79,382.71,426.41,380.41Z" style="fill:#E6CE07;stroke:#263238;stroke-linecap:round;stroke-linejoin:round"></path><line x1="426.41" y1="380.41" x2="418.29" y2="375.35" style="fill:none;stroke:#263238;stroke-linecap:round;stroke-linejoin:round;stroke-width:0.5px"></line><line x1="432.39" y1="400.25" x2="426.08" y2="393.59" style="fill:none;stroke:#263238;stroke-linecap:round;stroke-linejoin:round;stroke-width:2px"></line><path d="M428,395.58a7.14,7.14,0,0,0-2.51-5.35c-1.62-1.45-10.15-5-11-2C413.64,391.46,422.37,397.88,428,395.58Z" style="fill:#E6CE07;stroke:#263238;stroke-linecap:round;stroke-linejoin:round"></path><line x1="427.99" y1="395.58" x2="419.87" y2="390.52" style="fill:none;stroke:#263238;stroke-linecap:round;stroke-linejoin:round;stroke-width:0.5px"></line><line x1="426.94" y1="348.05" x2="420.63" y2="341.38" style="fill:none;stroke:#263238;stroke-linecap:round;stroke-linejoin:round;stroke-width:2px"></line><path d="M422.55,343.38A7.13,7.13,0,0,0,420,338c-1.62-1.45-10.14-5-10.95-2C408.2,339.26,416.92,345.68,422.55,343.38Z" style="fill:#E6CE07;stroke:#263238;stroke-linecap:round;stroke-linejoin:round"></path><line x1="422.55" y1="343.38" x2="414.43" y2="338.32" style="fill:none;stroke:#263238;stroke-linecap:round;stroke-linejoin:round;stroke-width:0.5px"></line><line x1="428.52" y1="363.23" x2="422.21" y2="356.56" style="fill:none;stroke:#263238;stroke-linecap:round;stroke-linejoin:round;stroke-width:2px"></line><path d="M424.13,358.56a7.17,7.17,0,0,0-2.51-5.36c-1.62-1.45-10.15-5-11-2C409.78,354.44,418.51,360.85,424.13,358.56Z" style="fill:#E6CE07;stroke:#263238;stroke-linecap:round;stroke-linejoin:round"></path><line x1="424.13" y1="358.56" x2="416.01" y2="353.5" style="fill:none;stroke:#263238;stroke-linecap:round;stroke-linejoin:round;stroke-width:0.5px"></line><line x1="424.37" y1="323.4" x2="418.05" y2="316.74" style="fill:none;stroke:#263238;stroke-linecap:round;stroke-linejoin:round;stroke-width:2px"></line><path d="M420,318.73a7.14,7.14,0,0,0-2.51-5.35c-1.62-1.45-10.15-5-11-2C405.62,314.61,414.35,321,420,318.73Z" style="fill:#E6CE07;stroke:#263238;stroke-linecap:round;stroke-linejoin:round"></path><line x1="419.97" y1="318.73" x2="411.85" y2="313.67" style="fill:none;stroke:#263238;stroke-linecap:round;stroke-linejoin:round;stroke-width:0.5px"></line><line x1="421.78" y1="298.65" x2="415.47" y2="291.98" style="fill:none;stroke:#263238;stroke-linecap:round;stroke-linejoin:round;stroke-width:2px"></line><path d="M417.39,294a7.17,7.17,0,0,0-2.51-5.36c-1.62-1.45-10.15-5-11-2C403,289.86,411.77,296.27,417.39,294Z" style="fill:#E6CE07;stroke:#263238;stroke-linecap:round;stroke-linejoin:round"></path><line x1="417.39" y1="293.98" x2="409.27" y2="288.92" style="fill:none;stroke:#263238;stroke-linecap:round;stroke-linejoin:round;stroke-width:0.5px"></line><line x1="429.74" y1="376.1" x2="434.54" y2="368.27" style="fill:none;stroke:#263238;stroke-linecap:round;stroke-linejoin:round;stroke-width:2px"></line><path d="M433.08,370.62a7.12,7.12,0,0,1,1.35-5.75c1.29-1.75,8.89-7,10.3-4.25C446.27,363.63,439.05,371.71,433.08,370.62Z" style="fill:#E6CE07;stroke:#263238;stroke-linecap:round;stroke-linejoin:round"></path><line x1="433.08" y1="370.63" x2="440.39" y2="363.64" style="fill:none;stroke:#263238;stroke-linecap:round;stroke-linejoin:round;stroke-width:0.5px"></line><line x1="425.58" y1="336.17" x2="430.38" y2="328.34" style="fill:none;stroke:#263238;stroke-linecap:round;stroke-linejoin:round;stroke-width:2px"></line><path d="M428.91,330.69a7.16,7.16,0,0,1,1.35-5.75c1.29-1.75,8.89-7,10.31-4.25C442.1,323.7,434.89,331.78,428.91,330.69Z" style="fill:#E6CE07;stroke:#263238;stroke-linecap:round;stroke-linejoin:round"></path><line x1="428.91" y1="330.69" x2="436.22" y2="323.71" style="fill:none;stroke:#263238;stroke-linecap:round;stroke-linejoin:round;stroke-width:0.5px"></line><line x1="423.74" y1="318.62" x2="428.54" y2="310.8" style="fill:none;stroke:#263238;stroke-linecap:round;stroke-linejoin:round;stroke-width:2px"></line><path d="M427.08,313.15a7.14,7.14,0,0,1,1.35-5.76c1.29-1.75,8.89-7,10.3-4.25C440.27,306.15,433.05,314.23,427.08,313.15Z" style="fill:#E6CE07;stroke:#263238;stroke-linecap:round;stroke-linejoin:round"></path><line x1="427.08" y1="313.15" x2="434.39" y2="306.16" style="fill:none;stroke:#263238;stroke-linecap:round;stroke-linejoin:round;stroke-width:0.5px"></line><line x1="421.06" y1="292.9" x2="425.86" y2="285.07" style="fill:none;stroke:#263238;stroke-linecap:round;stroke-linejoin:round;stroke-width:2px"></line><path d="M424.4,287.42a7.14,7.14,0,0,1,1.35-5.76c1.28-1.75,8.89-7,10.3-4.25C437.58,280.43,430.37,288.51,424.4,287.42Z" style="fill:#E6CE07;stroke:#263238;stroke-linecap:round;stroke-linejoin:round"></path><line x1="424.4" y1="287.42" x2="431.71" y2="280.43" style="fill:none;stroke:#263238;stroke-linecap:round;stroke-linejoin:round;stroke-width:0.5px"></line><path d="M419,276.45a7.14,7.14,0,0,1,1.35-5.76c1.29-1.75,8.89-7,10.3-4.25C432.2,269.46,425,277.54,419,276.45Z" style="fill:#E6CE07;stroke:#263238;stroke-linecap:round;stroke-linejoin:round"></path><line x1="419.01" y1="276.45" x2="426.32" y2="269.46" style="fill:none;stroke:#263238;stroke-linecap:round;stroke-linejoin:round;stroke-width:0.5px"></line><path d="M419.43,276.75a7.15,7.15,0,0,1-5.58-1.95c-1.61-1.46-6.05-9.58-3.15-10.69C413.86,262.9,421.14,270.92,419.43,276.75Z" style="fill:#E6CE07;stroke:#263238;stroke-linecap:round;stroke-linejoin:round"></path><line x1="419.43" y1="276.75" x2="413.25" y2="268.75" style="fill:none;stroke:#263238;stroke-linecap:round;stroke-linejoin:round;stroke-width:0.5px"></line><line x1="455.85" y1="295.56" x2="444.34" y2="406.48" style="fill:none;stroke:#263238;stroke-linecap:round;stroke-linejoin:round;stroke-width:2px"></line><line x1="445.07" y1="403.55" x2="440.26" y2="395.72" style="fill:none;stroke:#263238;stroke-linecap:round;stroke-linejoin:round;stroke-width:2px"></line><path d="M441.73,398.07a7.14,7.14,0,0,0-1.36-5.75c-1.29-1.75-8.89-7-10.3-4.25C428.53,391.09,435.75,399.16,441.73,398.07Z" style="fill:#E6CE07;stroke:#263238;stroke-linecap:round;stroke-linejoin:round"></path><line x1="441.73" y1="398.07" x2="434.82" y2="391.45" style="fill:none;stroke:#263238;stroke-linecap:round;stroke-linejoin:round;stroke-width:0.5px"></line><line x1="448.91" y1="366.52" x2="444.1" y2="358.69" style="fill:none;stroke:#263238;stroke-linecap:round;stroke-linejoin:round;stroke-width:2px"></line><path d="M445.57,361a7.14,7.14,0,0,0-1.36-5.75c-1.29-1.75-8.89-7-10.3-4.25C432.37,354.06,439.59,362.13,445.57,361Z" style="fill:#E6CE07;stroke:#263238;stroke-linecap:round;stroke-linejoin:round"></path><line x1="445.57" y1="361.04" x2="438.67" y2="354.42" style="fill:none;stroke:#263238;stroke-linecap:round;stroke-linejoin:round;stroke-width:0.5px"></line><line x1="447.33" y1="381.69" x2="442.53" y2="373.87" style="fill:none;stroke:#263238;stroke-linecap:round;stroke-linejoin:round;stroke-width:2px"></line><path d="M444,376.22a7.14,7.14,0,0,0-1.35-5.76c-1.29-1.75-8.9-7-10.31-4.24C430.8,369.23,438,377.31,444,376.22Z" style="fill:#E6CE07;stroke:#263238;stroke-linecap:round;stroke-linejoin:round"></path><line x1="443.99" y1="376.22" x2="437.09" y2="369.6" style="fill:none;stroke:#263238;stroke-linecap:round;stroke-linejoin:round;stroke-width:0.5px"></line><line x1="451.47" y1="341.87" x2="446.66" y2="334.04" style="fill:none;stroke:#263238;stroke-linecap:round;stroke-linejoin:round;stroke-width:2px"></line><path d="M448.13,336.39a7.14,7.14,0,0,0-1.36-5.75c-1.29-1.75-8.89-7-10.3-4.25C434.93,329.41,442.15,337.48,448.13,336.39Z" style="fill:#E6CE07;stroke:#263238;stroke-linecap:round;stroke-linejoin:round"></path><line x1="448.13" y1="336.39" x2="441.22" y2="329.77" style="fill:none;stroke:#263238;stroke-linecap:round;stroke-linejoin:round;stroke-width:0.5px"></line><line x1="454.03" y1="317.11" x2="449.23" y2="309.28" style="fill:none;stroke:#263238;stroke-linecap:round;stroke-linejoin:round;stroke-width:2px"></line><path d="M450.7,311.63a7.15,7.15,0,0,0-1.36-5.75c-1.29-1.75-8.89-7-10.3-4.25C437.5,304.65,444.72,312.72,450.7,311.63Z" style="fill:#E6CE07;stroke:#263238;stroke-linecap:round;stroke-linejoin:round"></path><line x1="450.7" y1="311.63" x2="443.79" y2="305.01" style="fill:none;stroke:#263238;stroke-linecap:round;stroke-linejoin:round;stroke-width:0.5px"></line><line x1="445.88" y1="394.54" x2="452.18" y2="387.87" style="fill:none;stroke:#263238;stroke-linecap:round;stroke-linejoin:round;stroke-width:2px"></line><path d="M450.27,389.87a7.12,7.12,0,0,1,2.51-5.36c1.62-1.44,10.14-5,11-2C464.61,385.74,455.89,392.16,450.27,389.87Z" style="fill:#E6CE07;stroke:#263238;stroke-linecap:round;stroke-linejoin:round"></path><line x1="450.27" y1="389.87" x2="458.86" y2="384.54" style="fill:none;stroke:#263238;stroke-linecap:round;stroke-linejoin:round;stroke-width:0.5px"></line><line x1="450.02" y1="354.61" x2="456.33" y2="347.94" style="fill:none;stroke:#263238;stroke-linecap:round;stroke-linejoin:round;stroke-width:2px"></line><path d="M454.41,349.94a7.17,7.17,0,0,1,2.51-5.36c1.62-1.45,10.14-5,11-2C468.76,345.81,460,352.23,454.41,349.94Z" style="fill:#E6CE07;stroke:#263238;stroke-linecap:round;stroke-linejoin:round"></path><line x1="454.41" y1="349.94" x2="463" y2="344.61" style="fill:none;stroke:#263238;stroke-linecap:round;stroke-linejoin:round;stroke-width:0.5px"></line><line x1="451.84" y1="337.06" x2="458.15" y2="330.39" style="fill:none;stroke:#263238;stroke-linecap:round;stroke-linejoin:round;stroke-width:2px"></line><path d="M456.23,332.39a7.17,7.17,0,0,1,2.51-5.36c1.62-1.45,10.15-5,11-2C470.58,328.26,461.85,334.68,456.23,332.39Z" style="fill:#E6CE07;stroke:#263238;stroke-linecap:round;stroke-linejoin:round"></path><line x1="456.23" y1="332.39" x2="464.82" y2="327.06" style="fill:none;stroke:#263238;stroke-linecap:round;stroke-linejoin:round;stroke-width:0.5px"></line><line x1="454.51" y1="311.33" x2="460.82" y2="304.66" style="fill:none;stroke:#263238;stroke-linecap:round;stroke-linejoin:round;stroke-width:2px"></line><path d="M458.9,306.66a7.14,7.14,0,0,1,2.51-5.35c1.62-1.45,10.15-5,11-2C473.25,302.53,464.52,309,458.9,306.66Z" style="fill:#E6CE07;stroke:#263238;stroke-linecap:round;stroke-linejoin:round"></path><line x1="458.9" y1="306.66" x2="467.49" y2="301.33" style="fill:none;stroke:#263238;stroke-linecap:round;stroke-linejoin:round;stroke-width:0.5px"></line><path d="M455.89,294.82a7.17,7.17,0,0,1,2.51-5.36c1.62-1.45,10.14-5,11-2C470.23,290.69,461.51,297.11,455.89,294.82Z" style="fill:#E6CE07;stroke:#263238;stroke-linecap:round;stroke-linejoin:round"></path><line x1="455.89" y1="294.82" x2="464.48" y2="289.48" style="fill:none;stroke:#263238;stroke-linecap:round;stroke-linejoin:round;stroke-width:0.5px"></line><path d="M456.24,295.2a7.15,7.15,0,0,1-5.06-3.06c-1.27-1.76-3.95-10.62-.88-11.11C453.64,280.5,459.11,289.85,456.24,295.2Z" style="fill:#E6CE07;stroke:#263238;stroke-linecap:round;stroke-linejoin:round"></path><line x1="456.24" y1="295.2" x2="451.84" y2="286.09" style="fill:none;stroke:#263238;stroke-linecap:round;stroke-linejoin:round;stroke-width:0.5px"></line><line x1="439.98" y1="241.23" x2="439.98" y2="406.48" style="fill:none;stroke:#263238;stroke-linecap:round;stroke-linejoin:round;stroke-width:2px"></line><line x1="440.12" y1="384.59" x2="434.53" y2="377.31" style="fill:none;stroke:#263238;stroke-linecap:round;stroke-linejoin:round;stroke-width:2px"></line><path d="M436.23,379.49a7.12,7.12,0,0,0-1.94-5.58c-1.46-1.61-9.57-6.06-10.69-3.16C422.39,373.91,430.4,381.19,436.23,379.49Z" style="fill:#E6CE07;stroke:#263238;stroke-linecap:round;stroke-linejoin:round"></path><line x1="436.23" y1="379.49" x2="428.68" y2="373.62" style="fill:none;stroke:#263238;stroke-linecap:round;stroke-linejoin:round;stroke-width:0.5px"></line><line x1="440.12" y1="352.88" x2="434.53" y2="345.6" style="fill:none;stroke:#263238;stroke-linecap:round;stroke-linejoin:round;stroke-width:2px"></line><path d="M436.23,347.78a7.12,7.12,0,0,0-1.94-5.58c-1.46-1.61-9.57-6.06-10.69-3.16C422.39,342.2,430.4,349.48,436.23,347.78Z" style="fill:#E6CE07;stroke:#263238;stroke-linecap:round;stroke-linejoin:round"></path><line x1="436.23" y1="347.78" x2="428.68" y2="341.91" style="fill:none;stroke:#263238;stroke-linecap:round;stroke-linejoin:round;stroke-width:0.5px"></line><line x1="440.12" y1="315.66" x2="434.53" y2="308.37" style="fill:none;stroke:#263238;stroke-linecap:round;stroke-linejoin:round;stroke-width:2px"></line><path d="M436.23,310.55a7.12,7.12,0,0,0-1.94-5.58c-1.46-1.61-9.57-6.06-10.69-3.16C422.39,305,430.4,312.25,436.23,310.55Z" style="fill:#E6CE07;stroke:#263238;stroke-linecap:round;stroke-linejoin:round"></path><line x1="436.23" y1="310.55" x2="428.68" y2="304.68" style="fill:none;stroke:#263238;stroke-linecap:round;stroke-linejoin:round;stroke-width:0.5px"></line><line x1="440.12" y1="290.87" x2="434.53" y2="283.59" style="fill:none;stroke:#263238;stroke-linecap:round;stroke-linejoin:round;stroke-width:2px"></line><path d="M436.23,285.77a7.12,7.12,0,0,0-1.94-5.58c-1.46-1.61-9.57-6.07-10.69-3.16C422.39,280.19,430.4,287.47,436.23,285.77Z" style="fill:#E6CE07;stroke:#263238;stroke-linecap:round;stroke-linejoin:round"></path><line x1="436.23" y1="285.77" x2="428.68" y2="279.9" style="fill:none;stroke:#263238;stroke-linecap:round;stroke-linejoin:round;stroke-width:0.5px"></line><line x1="440.12" y1="265.98" x2="434.53" y2="258.69" style="fill:none;stroke:#263238;stroke-linecap:round;stroke-linejoin:round;stroke-width:2px"></line><path d="M436.23,260.88a7.15,7.15,0,0,0-1.94-5.59c-1.46-1.6-9.57-6.06-10.69-3.15C422.39,255.29,430.4,262.58,436.23,260.88Z" style="fill:#E6CE07;stroke:#263238;stroke-linecap:round;stroke-linejoin:round"></path><line x1="436.23" y1="260.88" x2="428.68" y2="255.01" style="fill:none;stroke:#263238;stroke-linecap:round;stroke-linejoin:round;stroke-width:0.5px"></line><line x1="439.99" y1="394.28" x2="445.58" y2="386.99" style="fill:none;stroke:#263238;stroke-linecap:round;stroke-linejoin:round;stroke-width:2px"></line><path d="M443.88,389.18a7.14,7.14,0,0,1,1.94-5.59c1.46-1.61,9.57-6.06,10.69-3.16C457.72,383.59,449.71,390.88,443.88,389.18Z" style="fill:#E6CE07;stroke:#263238;stroke-linecap:round;stroke-linejoin:round"></path><line x1="443.88" y1="389.18" x2="451.88" y2="382.99" style="fill:none;stroke:#263238;stroke-linecap:round;stroke-linejoin:round;stroke-width:0.5px"></line><line x1="439.99" y1="343.84" x2="445.58" y2="336.56" style="fill:none;stroke:#263238;stroke-linecap:round;stroke-linejoin:round;stroke-width:2px"></line><path d="M443.88,338.74a7.12,7.12,0,0,1,1.94-5.58c1.46-1.61,9.57-6.06,10.69-3.16C457.72,333.16,449.71,340.44,443.88,338.74Z" style="fill:#E6CE07;stroke:#263238;stroke-linecap:round;stroke-linejoin:round"></path><line x1="443.88" y1="338.74" x2="451.88" y2="332.55" style="fill:none;stroke:#263238;stroke-linecap:round;stroke-linejoin:round;stroke-width:0.5px"></line><line x1="439.99" y1="318.95" x2="445.58" y2="311.67" style="fill:none;stroke:#263238;stroke-linecap:round;stroke-linejoin:round;stroke-width:2px"></line><path d="M443.88,313.85a7.12,7.12,0,0,1,1.94-5.58c1.46-1.61,9.57-6.06,10.69-3.16C457.72,308.27,449.71,315.55,443.88,313.85Z" style="fill:#E6CE07;stroke:#263238;stroke-linecap:round;stroke-linejoin:round"></path><line x1="443.88" y1="313.85" x2="451.88" y2="307.66" style="fill:none;stroke:#263238;stroke-linecap:round;stroke-linejoin:round;stroke-width:0.5px"></line><line x1="439.99" y1="286.05" x2="445.58" y2="278.77" style="fill:none;stroke:#263238;stroke-linecap:round;stroke-linejoin:round;stroke-width:2px"></line><path d="M443.88,281a7.12,7.12,0,0,1,1.94-5.58c1.46-1.61,9.57-6.06,10.69-3.16C457.72,275.37,449.71,282.65,443.88,281Z" style="fill:#E6CE07;stroke:#263238;stroke-linecap:round;stroke-linejoin:round"></path><line x1="443.88" y1="280.95" x2="451.88" y2="274.76" style="fill:none;stroke:#263238;stroke-linecap:round;stroke-linejoin:round;stroke-width:0.5px"></line><line x1="439.99" y1="260.19" x2="445.58" y2="252.9" style="fill:none;stroke:#263238;stroke-linecap:round;stroke-linejoin:round;stroke-width:2px"></line><path d="M443.88,255.09a7.14,7.14,0,0,1,1.94-5.59c1.46-1.61,9.57-6.06,10.69-3.16C457.72,249.5,449.71,256.79,443.88,255.09Z" style="fill:#E6CE07;stroke:#263238;stroke-linecap:round;stroke-linejoin:round"></path><line x1="443.88" y1="255.09" x2="451.88" y2="248.9" style="fill:none;stroke:#263238;stroke-linecap:round;stroke-linejoin:round;stroke-width:0.5px"></line><path d="M439.66,243.62A7.14,7.14,0,0,1,441.6,238c1.46-1.61,9.57-6.06,10.69-3.16C453.5,238,445.49,245.32,439.66,243.62Z" style="fill:#E6CE07;stroke:#263238;stroke-linecap:round;stroke-linejoin:round"></path><line x1="439.66" y1="243.62" x2="447.66" y2="237.43" style="fill:none;stroke:#263238;stroke-linecap:round;stroke-linejoin:round;stroke-width:0.5px"></line><path d="M440.05,244a7.13,7.13,0,0,1-5.35-2.52c-1.45-1.62-5-10.15-2-11C436,229.61,442.35,238.34,440.05,244Z" style="fill:#E6CE07;stroke:#263238;stroke-linecap:round;stroke-linejoin:round"></path><line x1="440.05" y1="243.96" x2="434.73" y2="235.36" style="fill:none;stroke:#263238;stroke-linecap:round;stroke-linejoin:round;stroke-width:0.5px"></line></g><g id="freepik--Table--inject-151"><line x1="10" y1="406.52" x2="478.45" y2="406.52" style="fill:none;stroke:#263238;stroke-linecap:round;stroke-linejoin:round"></line></g><g id="freepik--Notebook--inject-151"><polygon points="166.69 406.54 141.96 428.05 174.85 430.03 196.61 408.02 166.69 406.54" style="fill:#fff;stroke:#263238;stroke-linecap:round;stroke-linejoin:round"></polygon><polygon points="196.61 408.02 228.27 409.5 208.48 432.5 174.85 430.03 196.61 408.02" style="fill:#fff;stroke:#263238;stroke-linecap:round;stroke-linejoin:round"></polygon><line x1="165.06" y1="413.12" x2="184" y2="414.52" style="fill:none;stroke:#263238;stroke-linecap:round;stroke-linejoin:round"></line><line x1="156.98" y1="418.14" x2="180.94" y2="419.53" style="fill:none;stroke:#263238;stroke-linecap:round;stroke-linejoin:round"></line><line x1="153.36" y1="422.32" x2="176.48" y2="423.99" style="fill:none;stroke:#263238;stroke-linecap:round;stroke-linejoin:round"></line><line x1="184.84" y1="425.1" x2="208.8" y2="426.78" style="fill:none;stroke:#263238;stroke-linecap:round;stroke-linejoin:round"></line><polygon points="141.96 428.05 141.47 430.03 174.85 432.01 174.85 430.03 141.96 428.05" style="fill:#263238;stroke:#263238;stroke-linecap:round;stroke-linejoin:round"></polygon><polygon points="174.85 430.77 174.85 432.01 209.22 434.48 228.02 411.23 227.28 410 208.48 432.5 174.85 430.77" style="fill:#263238;stroke:#263238;stroke-linecap:round;stroke-linejoin:round"></polygon></g><g id="freepik--Character--inject-151"><path d="M273.12,352.46c-1.8,16.22-2.91,39-3,54.1h98.76c-.1-15.14-1.21-37.88-3-54.1-1.88-16.95,3.39-23,6.78-42.94s1.51-62.54-1.5-66.69c-1.37-1.88-4.6-2.44-7.73-2.49a42.88,42.88,0,0,1-12.53,19.81c-15.69,14.07-44.72,18.12-65-1.08a37.36,37.36,0,0,1-10.74-18.72c-3,.09-6,.68-7.34,2.48-3,4.15-4.9,46.72-1.51,66.69S275,335.51,273.12,352.46Z" style="fill:#263238;stroke:#263238;stroke-linecap:round;stroke-linejoin:round"></path><path d="M361,216.08c3.41,17.67-1.51,32.78-12.44,42.58-14.5,13-41.35,16.74-60.05-1s-9.3-46.46-2.11-46.46S359.76,209.77,361,216.08Z" style="fill:#263238;stroke:#263238;stroke-linecap:round;stroke-linejoin:round"></path><path d="M261.38,405.64s-10.31,1.2-11.75,1.2-2.16,1.68-.24,3.36,8.4.72,8.4.72Z" style="fill:#fff;stroke:#263238;stroke-linecap:round;stroke-linejoin:round"></path><path d="M260.34,273.17V284s-18.22,9.27-25.9,12.15-13.11,5.44-14.07,9.91-10.23,46.06-10.87,51.17-5.44,9.92-5.44,12.79a10.15,10.15,0,0,0,.64,4.16s2.24,10.55,9.91,14.71,14.07-1,17.59-3.84,7-10.23,7-10.23-2.56,24.63-2.88,26.86a39.74,39.74,0,0,0-.32,4.8h91.78a478.81,478.81,0,0,1,2.88-57.24c1.26-11.77-1-48.61-4.48-54s-12.79-8.31-20.78-10.55-18.23-4.16-18.23-4.16l-.32-4.16Z" style="fill:#fff;stroke:#263238;stroke-linecap:round;stroke-linejoin:round"></path><line x1="232.77" y1="335.54" x2="231.56" y2="328.17" style="fill:none;stroke:#263238;stroke-linecap:round;stroke-linejoin:round"></line><line x1="239.24" y1="374.86" x2="233.53" y2="340.14" style="fill:none;stroke:#263238;stroke-linecap:round;stroke-linejoin:round"></line><path d="M272.82,309.94c22,2.75,44.82-17.8,47.68-19.68-4.32-2.45-9.95-4.15-15.06-5.58-8-2.24-18.23-4.16-18.23-4.16l-.32-4.16-26.55-3.19V284s-12,6.1-20.61,9.94A55.76,55.76,0,0,0,272.82,309.94Z" style="fill:#fff;stroke:#263238;stroke-linecap:round;stroke-linejoin:round"></path><path d="M260.34,284a123.91,123.91,0,0,1-1.59,13.11" style="fill:none;stroke:#263238;stroke-linecap:round;stroke-linejoin:round"></path><path d="M287.21,280.52s.64,9.27,1.6,12.47" style="fill:none;stroke:#263238;stroke-linecap:round;stroke-linejoin:round"></path><path d="M296.35,203.67c-5.88-3.36-18.13-5.78-24.76-4.41-7.07,1.45-16.34,4.51-23.64,10.9-13.67,12-8.63,30.23-7.43,31.9l1.2,1.68a103.26,103.26,0,0,1-2.64,13.68c-2.16,8.63,8.39,17,21.34,19.42s33.82.48,47.49-3.59S324,258.37,319.19,242.3s-10-30.62-17.91-35.65C299.51,205.52,297.86,204.53,296.35,203.67Z" style="fill:#E6CE07;stroke:#263238;stroke-linecap:round;stroke-linejoin:round"></path><path d="M270.61,218.54a15.75,15.75,0,0,1,3-.46" style="fill:none;stroke:#263238;stroke-linecap:round;stroke-linejoin:round"></path><path d="M244.83,242.78s-3.35-1.19-1.92-6c1.17-3.9,14.21-13.49,24.33-17.21" style="fill:none;stroke:#263238;stroke-linecap:round;stroke-linejoin:round"></path><path d="M267.79,210.17c1.1-.12,2.24-.2,3.43-.24" style="fill:none;stroke:#263238;stroke-linecap:round;stroke-linejoin:round"></path><path d="M240,233s3.79-18.36,24.67-22.31" style="fill:none;stroke:#263238;stroke-linecap:round;stroke-linejoin:round"></path><path d="M280.67,206.28c-1.88,3.48-4.12,8.2-4.66,11.8" style="fill:none;stroke:#263238;stroke-linecap:round;stroke-linejoin:round"></path><path d="M283.45,201.53s-.29.45-.76,1.23" style="fill:none;stroke:#263238;stroke-linecap:round;stroke-linejoin:round"></path><path d="M296.66,214.55a64.39,64.39,0,0,1,16.77,25.12" style="fill:none;stroke:#263238;stroke-linecap:round;stroke-linejoin:round"></path><path d="M288.73,208.73a36.41,36.41,0,0,1,5.87,4.05" style="fill:none;stroke:#263238;stroke-linecap:round;stroke-linejoin:round"></path><path d="M316.86,264.21a14.77,14.77,0,0,1-8.71,6.88" style="fill:none;stroke:#263238;stroke-linecap:round;stroke-linejoin:round"></path><path d="M297.36,224.8s21.83,20.86,21.35,32.38a17.55,17.55,0,0,1-.59,3.9" style="fill:none;stroke:#263238;stroke-linecap:round;stroke-linejoin:round"></path><path d="M301.44,255s6.71,3.83,3.84,10.79-7.44,5-7.44,5" style="fill:none;stroke:#263238;stroke-linecap:round;stroke-linejoin:round"></path><path d="M275.34,222.62a82.74,82.74,0,0,1-18.16,13.84l-11.53,6.63s6.92,25.65,10.09,30.55,8.64,12.1,16.43,12.1,19.31-11.24,19.88-13.25,3.17-12.4,3.17-12.4a7.3,7.3,0,0,0,2.88-3.46,21.62,21.62,0,0,0,.58-4.9s-13-12.39-17.58-17.87A27.83,27.83,0,0,1,275.34,222.62Z" style="fill:#fff;stroke:#263238;stroke-linecap:round;stroke-linejoin:round"></path><path d="M266,249.07l-19.21-1.28a1.1,1.1,0,0,0-1.16,1.31c.58,2.91,2.06,9.44,4.06,11,2.6,2,10.27,1.69,11.83,1.69,3.31,0,5.24-8.95,5.45-9.95a1.37,1.37,0,0,0,0-.19l0-1.44A1.11,1.11,0,0,0,266,249.07Z" style="fill:none;stroke:#263238;stroke-linecap:round;stroke-linejoin:round;stroke-width:2px"></path><path d="M272,249.62l19.25.52a1.09,1.09,0,0,1,1,1.41c-.84,2.84-2.93,9.2-5.07,10.56-2.77,1.77-10.38.72-11.93.58-3.3-.31-4.39-9.4-4.5-10.42a.6.6,0,0,1,0-.19l.1-1.43A1.09,1.09,0,0,1,272,249.62Z" style="fill:none;stroke:#263238;stroke-linecap:round;stroke-linejoin:round;stroke-width:2px"></path><line x1="265.99" y1="249.07" x2="271.99" y2="249.62" style="fill:none;stroke:#263238;stroke-linecap:round;stroke-linejoin:round;stroke-width:2px"></line><line x1="267.36" y1="251.34" x2="270.77" y2="251.45" style="fill:none;stroke:#263238;stroke-linecap:round;stroke-linejoin:round;stroke-width:2px"></line><line x1="292.49" y1="250.81" x2="295.58" y2="248.79" style="fill:none;stroke:#263238;stroke-linecap:round;stroke-linejoin:round;stroke-width:2px"></line><path d="M281,253.9c0,1.35-.62,2.45-1.38,2.45s-1.39-1.1-1.39-2.45.62-2.45,1.39-2.45S281,252.54,281,253.9Z" style="fill:#263238"></path><path d="M259.91,253.36c0,1.36-.62,2.45-1.38,2.45s-1.39-1.09-1.39-2.45.62-2.44,1.39-2.44S259.91,252,259.91,253.36Z" style="fill:#263238"></path><path d="M266.9,254.94s-2.4,9.59-2.72,10.71,1.44,2.24,4.64,1.12" style="fill:none;stroke:#263238;stroke-linecap:round;stroke-linejoin:round"></path><path d="M264.18,272.05s5.76,1.43,10.24-.32" style="fill:none;stroke:#263238;stroke-linecap:round;stroke-linejoin:round"></path><path d="M274.42,247.9s3.19-3.68,13.27-.16" style="fill:none;stroke:#263238;stroke-linecap:round;stroke-linejoin:round"></path><path d="M264.66,247.1s-5.91-4.64-12.63-1" style="fill:none;stroke:#263238;stroke-linecap:round;stroke-linejoin:round"></path><path d="M313.86,319.43s-.34,38.26-1,45.84,1,14.18,8.44,18.14,16.89,3.63,19.93,2.64,13.85-6.6,12.5-15.17-10.47-37.27-14.53-50.79S334.47,300.3,329.06,296s-7.06-5.46-11.79-2.16" style="fill:#fff;stroke:#263238;stroke-linecap:round;stroke-linejoin:round"></path><path d="M195.42,401.4l4.16-6.07s11.52-3.52,16-6.08,7.36-9.91,2.88-14.71-11.83-6.39-16.95-2.56-7,10.88-9.91,12.79-14.71,4.8-17.91,5.44-4.48,3.2-3.84,5.44,2.88,11.19,4.48,12.47,7,5.12,10.87,5.12,7.68-4.48,9-4.8S198.94,404.92,195.42,401.4Z" style="fill:#fff;stroke:#263238;stroke-linecap:round;stroke-linejoin:round"></path><path d="M187.83,391.16s-1.51,14.09-1,14.63a4.82,4.82,0,0,0,4,.82c1.64-.41,3.82-11.07,3.82-13.26a13.73,13.73,0,0,0-1.5-5.06" style="fill:none;stroke:#263238;stroke-linecap:round;stroke-linejoin:round"></path><path d="M178.25,392.25s4.65,8.35,6.43,9.58l1.78,1.23" style="fill:none;stroke:#263238;stroke-linecap:round;stroke-linejoin:round"></path><path d="M173.19,396.77s4.65,8.61,7,9.71,7.66,3.14,13,2.73" style="fill:none;stroke:#263238;stroke-linecap:round;stroke-linejoin:round"></path><path d="M179,378.79l5.69,23,1.64.54.28-2.46-4.87-21.77a1.41,1.41,0,0,0-1.78-1h0A1.41,1.41,0,0,0,179,378.79Z" style="fill:#263238;stroke:#263238;stroke-linecap:round;stroke-linejoin:round"></path><path d="M176.89,409.76s6,2.05,7.52,2.32a11,11,0,0,0,5.74-.54" style="fill:none;stroke:#263238;stroke-linecap:round;stroke-linejoin:round"></path><path d="M195.42,401.4a3.38,3.38,0,0,1-2.63,1.6" style="fill:none;stroke:#263238;stroke-linecap:round;stroke-linejoin:round"></path><path d="M319,374s-35,23-36.94,24-21.11,6.23-24,7.91-4.8,8.88-6,11.27-2.4,9.12-2.4,9.12a4,4,0,0,0,3.36,1.2c2.16-.24,4.56-9.36,4.56-9.36l4.79-6.95s-3.12,6.95-3.12,8.63-1.19,6.24-1.19,7,1.43,1.68,3.35.72,3.36-8.16,3.36-8.16l4.08-6.71s-3.12,9.35-4.08,11.27-1.2,2.64,1.44,2.4,2.88-3.12,3.6-5,2.4-5.51,2.4-5.51l4.79-3.36s-3.11,6.71-4.07,8.39-1.92,2.16,1.44,2.16,5.51-7.43,5.51-7.43a45,45,0,0,0,3.6-2.88c1-1,4.56-6.48,4.56-6.48s42.69-14.39,47.73-16.79,5.51-6,3.59-9.11S329,369.9,319,374Z" style="fill:#fff;stroke:#263238;stroke-linecap:round;stroke-linejoin:round"></path></g></svg>