<svg xmlns="http://www.w3.org/2000/svg" id="Calque_1" viewBox="0 0 395.34 223.04">
  <path id="path287" fill="#414445" stroke="#414445" stroke-width=".12" d="M174.28 75.65c-5.28-.37-9.25-1.9-12.6-4.86a6.91 6.91 0 0 1-1.03-1.01c.01-.06 1.23-1.36 2.72-2.9l2.7-2.8.75.63a12.44 12.44 0 0 0 5.33 2.67c4.42 1.08 8.9.54 11.02-1.34 1.97-1.74 2.1-5.86.23-7.6-1.27-1.19-2.06-1.44-6.82-2.15-3.58-.53-5.35-.9-6.71-1.41-4.2-1.58-6.65-4.54-7.42-8.94a22 22 0 0 1 .05-5.56c1.46-7.43 8.06-11.66 17.14-11 5.1.38 8.5 1.72 11.66 4.6l.65.6-2.73 2.74-2.74 2.75-.57-.5c-1.93-1.7-4.5-2.5-8.04-2.5-2.84 0-4.33.45-5.7 1.72a5.07 5.07 0 0 0-1.65 4.3c.08 1.83.7 2.9 2.21 3.8 1.22.72 2.28 1 5.8 1.53 5.1.77 6.62 1.16 8.64 2.2 3.3 1.72 5.19 4.77 5.66 9.13.52 4.83-.62 8.58-3.47 11.43-3.33 3.33-8.68 4.92-15.08 4.47z"/>
  <path id="path6" fill="#00afe6" d="M33.9 45.37a11.2 11.2 0 0 1 1.8-15.8c4.9-4 11.9-3.4 15.8 1.4a11.2 11.2 0 0 1-1.8 15.8c-4.8 4-11.9 3.3-15.8-1.4" class="st1"/>
  <path id="path8" fill="#414445" d="M114.9 166.67c.4 0 .6.3.6.6 0 .4-.3.6-.6.6-.4 0-.7-.3-.7-.6s.3-.6.7-.6m0-2.4c.4 0 .6.3.6.6 0 .4-.3.6-.6.6-.4 0-.7-.3-.7-.6s.3-.6.7-.6m0-2.3c.4 0 .6.3.6.6 0 .4-.3.6-.6.6-.4 0-.7-.3-.7-.6 0-.4.3-.6.7-.6m0-2.4c.4 0 .6.3.6.6 0 .4-.3.6-.6.6-.4 0-.7-.3-.7-.6s.3-.6.7-.6m0-2.4c.4 0 .6.3.6.6 0 .4-.3.6-.6.6-.4 0-.7-.3-.7-.6s.3-.6.7-.6m0-2.4c.4 0 .6.3.6.6s-.3.6-.6.6c-.4 0-.7-.3-.7-.6s.3-.6.7-.6m0-2.3c.4 0 .6.3.6.6 0 .4-.3.6-.6.6-.4 0-.7-.3-.7-.6s.3-.6.7-.6m0-2.4c.4 0 .6.3.6.6 0 .4-.3.6-.6.6-.4 0-.7-.3-.7-.6s.3-.6.7-.6m0-2.4c.4 0 .6.3.6.6s-.3.6-.6.6c-.4 0-.7-.3-.7-.6s.3-.6.7-.6m0-2.3c.4 0 .6.3.6.6 0 .4-.3.6-.6.6-.4 0-.7-.3-.7-.6s.3-.6.7-.6m0-2.4c.4 0 .6.3.6.6 0 .4-.3.6-.6.6-.4 0-.7-.3-.7-.6s.3-.6.7-.6m0-2.4c.4 0 .6.3.6.6 0 .4-.3.6-.6.6-.4 0-.7-.3-.7-.6s.3-.6.7-.6m0-2.3c.4 0 .6.3.6.6 0 .4-.3.6-.6.6-.4 0-.7-.3-.7-.6 0-.4.3-.6.7-.6m0-2.4c.4 0 .6.3.6.6 0 .4-.3.6-.6.6-.4 0-.7-.3-.7-.6s.3-.6.7-.6m0-2.4c.4 0 .6.3.6.6 0 .4-.3.6-.6.6-.4 0-.7-.3-.7-.6s.3-.6.7-.6m0-2.3c.4 0 .6.3.6.6 0 .4-.3.6-.6.6-.4 0-.7-.3-.7-.6 0-.4.3-.6.7-.6m0-2.4c.4 0 .6.3.6.6 0 .4-.3.6-.6.6-.4 0-.7-.3-.7-.6s.3-.6.7-.6m0-2.4c.4 0 .6.3.6.6 0 .4-.3.6-.6.6-.4 0-.7-.3-.7-.6s.3-.6.7-.6m-16.6-14.9c0-.4.3-.6.6-.6.4 0 .6.3.6.6 0 .4-.3.7-.6.7s-.6-.3-.6-.7m-2.4 0c0-.4.3-.6.6-.6.4 0 .6.3.6.6 0 .4-.3.7-.6.7s-.6-.3-.6-.7m-2.3 0c0-.4.3-.6.6-.6.4 0 .6.3.6.6 0 .4-.3.7-.6.7s-.6-.3-.6-.7m-2.4 0c0-.4.3-.6.6-.6.4 0 .6.3.6.6 0 .4-.3.7-.6.7s-.6-.3-.6-.7m-2.4 0c0-.4.3-.6.6-.6s.6.3.6.6c0 .4-.3.7-.6.7s-.6-.3-.6-.7m-2.3 0c0-.4.3-.6.6-.6.4 0 .6.3.6.6 0 .4-.3.7-.6.7-.4 0-.6-.3-.6-.7m-2.4 0c0-.4.3-.6.6-.6.4 0 .7.3.7.6 0 .4-.3.7-.7.7-.3 0-.6-.3-.6-.7m-2.4 0c0-.4.3-.6.6-.6.4 0 .7.3.7.6 0 .4-.3.7-.7.7-.3 0-.6-.3-.6-.7m-2.3 0c0-.4.3-.6.6-.6.4 0 .6.3.6.6 0 .4-.3.7-.6.7-.4 0-.6-.3-.6-.7m-2.4 0c0-.4.3-.6.6-.6.4 0 .6.3.6.6 0 .4-.3.7-.6.7s-.6-.3-.6-.7m-2.4 0c0-.4.3-.6.6-.6.4 0 .6.3.6.6 0 .4-.3.7-.6.7s-.6-.3-.6-.7m-2.4 0c0-.4.3-.6.6-.6.4 0 .6.3.6.6 0 .4-.3.7-.6.7s-.6-.3-.6-.7m-2.3 0c0-.4.3-.6.6-.6.4 0 .6.3.6.6 0 .4-.3.7-.6.7s-.6-.3-.6-.7m-2.4 0c0-.4.3-.6.6-.6.4 0 .7.3.7.6 0 .4-.3.7-.7.7-.3 0-.6-.3-.6-.7m-2.4 0c0-.4.3-.6.6-.6.4 0 .6.3.6.6 0 .4-.3.7-.6.7s-.6-.3-.6-.7m-2.3 0c0-.4.3-.6.6-.6.4 0 .6.3.6.6 0 .4-.3.7-.6.7s-.6-.3-.6-.7m36.4 4.2c-.3-.2-.3-.6-.1-.9.2-.3.6-.3.9-.1.3.2.3.6.1.9-.2.3-.6.3-.9.1m-1.5 1.8c-.3-.2-.3-.6-.1-.9.2-.3.6-.3.9-.1.3.2.3.6.1.9-.2.3-.6.4-.9.1m-1.5 1.9c-.3-.2-.3-.6-.1-.9.2-.3.6-.3.9-.1.3.2.3.6.1.9-.2.3-.7.3-.9.1m-1.5 1.8c-.3-.2-.3-.6-.1-.9.2-.3.6-.3.9-.1.3.2.3.6.1.9-.3.3-.7.3-.9.1m-1.5 1.8c-.3-.2-.3-.6-.1-.9.2-.3.6-.3.9-.1.3.2.3.6.1.9-.3.3-.7.4-.9.1m-1.5 1.9c-.3-.2-.3-.6-.1-.9.2-.3.6-.3.9-.1.3.2.3.6.1.9-.3.3-.7.3-.9.1m-1.6 1.8c-.3-.2-.3-.6-.1-.9.2-.3.6-.3.9-.1.3.2.3.6.1.9-.2.3-.6.3-.9.1m-1.5 1.8c-.3-.2-.3-.6-.1-.9.2-.3.6-.3.9-.1.3.2.3.6.1.9-.2.3-.6.4-.9.1m-1.5 1.9c-.3-.2-.3-.6-.1-.9.2-.3.6-.3.9-.1.3.2.3.6.1.9-.2.2-.6.3-.9.1m-1.5 1.8c-.3-.2-.3-.6-.1-.9.2-.3.6-.3.9-.1.3.2.3.6.1.9-.2.3-.6.3-.9.1m-1.5 1.8c-.3-.2-.3-.6-.1-.9.2-.3.6-.3.9-.1.3.2.3.6.1.9-.2.3-.6.3-.9.1m-1.5 1.8c-.3-.2-.3-.6-.1-.9.2-.3.6-.3.9-.1.3.2.3.6.1.9-.2.3-.6.4-.9.1m-1.5 1.9c-.3-.2-.3-.6-.1-.9.2-.3.6-.3.9-.1.3.2.3.6.1.9-.2.3-.6.3-.9.1m-1.5 1.8c-.3-.2-.3-.6-.1-.9.2-.3.6-.3.9-.1.3.2.3.6.1.9-.2.3-.6.3-.9.1m-1.5 1.8c-.3-.2-.3-.6-.1-.9.2-.3.6-.3.9-.1.3.2.3.6.1.9-.2.3-.6.4-.9.1m-1.5 1.9c-.3-.2-.3-.6-.1-.9.2-.3.6-.3.9-.1.3.2.3.6.1.9-.2.3-.6.3-.9.1m-1.5 1.8c-.3-.2-.3-.6-.1-.9.2-.3.6-.3.9-.1.3.2.3.6.1.9-.2.3-.6.3-.9.1m24.1-37.7c-.3.2-.3.6-.1.9.2.3.6.3.9.1.3-.2.3-.6.1-.9-.2-.3-.6-.4-.9-.1m-1.5-1.9c-.3.2-.3.6-.1.9.2.3.6.3.9.1.3-.2.3-.6.1-.9-.2-.3-.6-.3-.9-.1m-1.5-1.8c-.3.2-.3.6-.1.9.2.3.6.3.9.1.3-.2.3-.6.1-.9-.2-.3-.7-.3-.9-.1m-1.5-1.8c-.3.2-.3.6-.1.9.2.3.6.3.9.1.3-.2.3-.6.1-.9-.3-.3-.7-.4-.9-.1m-1.5-1.9c-.3.2-.3.6-.1.9.2.3.6.3.9.1.3-.2.3-.6.1-.9-.3-.3-.7-.3-.9-.1m-1.6-1.8c-.3.2-.3.6-.1.9.2.3.6.3.9.1.3-.2.3-.6.1-.9-.2-.3-.6-.3-.9-.1m-1.5-1.8c-.3.2-.3.6-.1.9.2.3.6.3.9.1.3-.2.3-.6.1-.9-.2-.3-.6-.4-.9-.1m-1.5-1.9c-.3.2-.3.6-.1.9.2.3.6.3.9.1.3-.2.3-.6.1-.9-.2-.2-.6-.3-.9-.1m-1.5-1.8c-.3.2-.3.6-.1.9.2.3.6.3.9.1.3-.2.3-.6.1-.9-.2-.3-.6-.3-.9-.1m-1.5-1.8c-.3.2-.3.6-.1.9.2.3.6.3.9.1.3-.2.3-.6.1-.9-.2-.3-.6-.3-.9-.1m-1.5-1.8c-.3.2-.3.6-.1.9.2.3.6.3.9.1.3-.2.3-.6.1-.9-.2-.3-.6-.4-.9-.1m-1.5-1.9c-.3.2-.3.6-.1.9.2.3.6.3.9.1.3-.2.3-.6.1-.9-.2-.3-.6-.3-.9-.1m-1.5-1.8c-.3.2-.3.6-.1.9.2.3.6.3.9.1.3-.2.3-.6.1-.9-.2-.3-.6-.3-.9-.1m-1.5-1.8c-.3.2-.3.6-.1.9.2.3.6.3.9.1.3-.2.3-.6.1-.9-.2-.3-.6-.4-.9-.1m-1.5-1.9c-.3.2-.3.6-.1.9.2.3.6.3.9.1.3-.2.3-.6.1-.9-.2-.3-.6-.3-.9-.1m-1.5-1.8c-.3.2-.3.6-.1.9.2.3.6.3.9.1.3-.2.3-.6.1-.9-.2-.3-.6-.3-.9-.1m-1.5-1.8c-.3.2-.3.6-.1.9.2.3.6.3.9.1.3-.2.3-.6.1-.9-.2-.3-.6-.3-.9-.1"/>
  <path id="path10" fill="#114b98" d="M26.4 111.47c0-9.9 8.1-17.9 18-17.9s17.9 8.1 17.9 18-8.1 17.9-18 17.9c-10-.1-18-8.1-17.9-18m74.1 71.4a14.4 14.4 0 1 1 28.8 0 14.4 14.4 0 0 1-28.8 0m0-142.8c0-7.9 6.4-14.4 14.3-14.4s14.4 6.4 14.4 14.3-6.4 14.4-14.3 14.4-14.4-6.4-14.4-14.3" class="st2"/>
  <path id="path12" fill="#ea1c60" d="M129.2 111.47a14.4 14.4 0 1 1-28.8 0 14.4 14.4 0 0 1 28.8 0" class="st3"/>
  <path id="path14" fill="#114b98" d="M59.1 75.87c-3.8-4.8-2.9-11.9 2-15.8 4.9-3.9 12-3.2 15.8 1.6 3.8 4.8 2.9 11.9-2 15.8-5 3.9-12 3.2-15.8-1.6" class="st2"/>
  <path id="path16" fill="#00afe6" d="M0 111.47c0-4.1 3.3-7.4 7.3-7.4 4.1 0 7.4 3.3 7.4 7.4 0 4.1-3.3 7.3-7.4 7.3-4 0-7.3-3.3-7.3-7.3m33.9 66.1a11.2 11.2 0 0 0 1.8 15.8c4.9 4 11.9 3.4 15.8-1.4a11.2 11.2 0 0 0-1.8-15.8c-4.9-3.9-11.9-3.3-15.8 1.4" class="st1"/>
  <path id="path18" fill="#114b98" d="M59 147.07c-3.8 4.8-2.9 11.9 2 15.8 4.9 3.9 12 3.2 15.8-1.6 3.8-4.8 2.9-11.9-2-15.8-4.9-3.9-11.9-3.2-15.8 1.6" class="st2"/>
  <path id="path20" fill="#ea1c60" d="M114.9 223.07a7.3 7.3 0 0 1-7.3-7.4 7.36 7.36 0 0 1 14.7 0c-.1 4.1-3.4 7.4-7.4 7.4m0-223.1a7.36 7.36 0 0 0 0 14.7c4.1 0 7.4-3.3 7.4-7.4-.1-4-3.4-7.3-7.4-7.3" class="st3"/>
  <path id="path51" fill="#414445" stroke="#414445" stroke-width=".06" d="M163.34 157.32V197.45h2.83v-18.2h17.68v-2.66h-17.68v-16.67H186.86v-2.6H175.1zm86.06 12.6a9.44 9.44 0 0 0-7.26 3.1c-.22.24-.42.43-.44.43-.03 0-.05-.7-.05-1.56v-1.57h-2.72V197.45h2.72v-8.3c0-4.55.02-8.73.05-9.29.15-2.53.85-4.33 2.2-5.61a6.51 6.51 0 0 1 3.45-1.66c.67-.14 2.66-.15 3.34-.03 3.4.6 5.25 2.75 5.67 6.64.04.37.06 3.65.06 9.41v8.84h2.79l-.03-9.33c-.02-9.7-.02-9.63-.28-10.94a8.62 8.62 0 0 0-7.2-7.1c-.68-.12-1.49-.18-2.3-.17zm-47.68.01c-.74 0-1.5.03-1.95.12-.76.14-1.86.5-2.54.83a8.57 8.57 0 0 0-3.1 2.54l-.33.47-.01-1.78-.02-1.79H191V197.45h2.78v-9c.03-9.82 0-9.21.36-10.5a7.45 7.45 0 0 1 3.93-4.92 7.15 7.15 0 0 1 3.35-.56 5.4 5.4 0 0 1 3.91 1.6l.49.44.98-1.03.98-1.02-.49-.45a7.36 7.36 0 0 0-5.57-2.08zm20.64.08c-.43 0-.87 0-1.3.02-3.23.15-5.23.9-6.96 2.65a7.5 7.5 0 0 0-1.24 1.48c0 .03 1.84 1.7 1.91 1.73.02.01.19-.18.38-.43a9.88 9.88 0 0 1 1.73-1.65 7.55 7.55 0 0 1 2.93-1.1c.48-.1.89-.11 2.27-.11 1.76 0 2.05.02 3.14.3a5.1 5.1 0 0 1 3.84 3.23c.36.98.47 1.95.47 4.26v1.8l-5.07.03c-4.45.02-5.14.03-5.66.12-2.26.39-3.77 1.1-5 2.34-1.34 1.38-1.96 3.04-1.95 5.32 0 2.55.86 4.52 2.59 5.91 1.32 1.06 2.87 1.6 5.17 1.77.92.07 2.65.07 3.54 0a8.91 8.91 0 0 0 5.87-2.47c.24-.23.45-.42.47-.42.02 0 .04.6.04 1.33v1.33h2.72v-9.83c0-8.14-.02-9.93-.09-10.44-.5-3.69-2.57-5.92-6.3-6.8-.95-.22-2.21-.35-3.5-.37zm78.45 0c-.62 0-1.25.04-1.66.1-4.5.67-7.44 3.87-8.5 9.25-.32 1.55-.39 2.43-.39 4.55 0 2.01.07 2.9.33 4.34.55 3.09 1.82 5.58 3.6 7.1 1.63 1.4 3.49 2.11 6.08 2.36.55.05 2.77-.02 3.36-.11 1.8-.27 3.19-.8 4.58-1.74a18 18 0 0 0 2.28-1.91l.37-.38-1.02-.83-1.03-.83-.44.41c-1.75 1.62-3.17 2.4-4.96 2.7a10.3 10.3 0 0 1-5.85-.62 7.27 7.27 0 0 1-3.4-3.48c-.7-1.5-1.1-3.57-1.1-5.69v-.67h18.34l-.03-1.52c-.05-2.01-.2-3.3-.55-4.73a11.8 11.8 0 0 0-2.82-5.43 9.09 9.09 0 0 0-5.51-2.77c-.43-.06-1.05-.09-1.68-.1zm-24.36.01c-.64 0-1.28.02-1.62.06a10.27 10.27 0 0 0-7.95 5.13c-1.74 2.91-2.45 7.4-1.85 11.69.87 6.3 4.57 10.27 10.04 10.78.77.07 1.97.07 2.72 0 2.72-.25 4.52-1.13 6.59-3.22l.68-.68-.92-.88-.92-.88-.74.72c-1.49 1.44-2.66 2.14-4.17 2.47-.79.18-2.82.2-3.69.03a8.36 8.36 0 0 1-3.07-1.24 10.88 10.88 0 0 1-2.12-2.14c-.42-.63-.97-1.76-1.19-2.45-.44-1.34-.6-2.54-.63-4.88-.06-3.54.24-5.4 1.2-7.32a7.83 7.83 0 0 1 3.72-3.82 7.62 7.62 0 0 1 3.6-.8c2.87-.08 4.56.63 6.54 2.75l.55.58.9-.86c.5-.47.9-.88.9-.91 0-.13-1.79-1.84-2.38-2.28a9.16 9.16 0 0 0-4.56-1.79 16.1 16.1 0 0 0-1.63-.06zm24.24 2.45a6.96 6.96 0 0 1 5.18 2.07c.72.72 1.17 1.4 1.6 2.38.66 1.55.8 2.21 1.04 5.03l.02.25H293v-.42c0-1.64.47-3.86 1.1-5.24a7.64 7.64 0 0 1 2.15-2.68 7.73 7.73 0 0 1 2.9-1.27c.36-.08.95-.12 1.54-.12zm-71.03 11.97l-.03 2.41c-.03 2.46-.07 2.95-.29 3.89a4.76 4.76 0 0 1-1.39 2.58c-1.27 1.22-2.87 1.83-5.01 1.91l-1.15.05a17.8 17.8 0 0 1-2.7-.17c-2.95-.5-4.37-2.02-4.5-4.78-.12-2.92 1.1-4.77 3.62-5.5 1.21-.35 1.17-.35 6.53-.37z"/>
  <path id="path68" fill="#414445" stroke="#414445" stroke-width=".08" d="M285.45 87.43v6.68h8.19v-6.68h-4.1zm-54.25.25v45.55h7.86v-3.12l.75.73a9.53 9.53 0 0 0 5.83 2.71c2.94.3 5.77-.3 7.92-1.67.8-.5 2.04-1.73 2.54-2.5a13.99 13.99 0 0 0 1.97-5.98c.4-3.14.4-10.1 0-13.32-.53-4.2-1.92-6.97-4.31-8.55a10.97 10.97 0 0 0-6.15-1.87c-3.43-.12-5.7.66-7.7 2.63-.33.33-.63.6-.65.6-.02 0-.03-3.42-.03-7.6v-7.61h-4.02zm33.43 0l.03 18.83.02 18.82.2.84c.88 3.88 3.37 6.3 7.15 6.98.7.12 1.34.15 3.74.16h2.9v-7l-2.06-.03c-1.95-.03-2.1-.04-2.49-.22a2.4 2.4 0 0 1-1.23-1.27l-.19-.46-.02-18.33-.02-18.32h-4.02zm116.39 11.85a13.4 13.4 0 0 0-7.48 2.18c-.98.64-2.72 2.4-3.41 3.44a17.96 17.96 0 0 0-2.39 5.72c-.85 3.74-.78 8.72.16 12.4 1.6 6.25 5.82 9.75 12.37 10.29 1.78.14 3.7.07 5.3-.2a14.4 14.4 0 0 0 7.92-4.18l.87-.84-2.42-2.41-2.42-2.42-.66.6a8.48 8.48 0 0 1-5.54 2.44c-4.01.35-6.82-1.27-7.94-4.59-.19-.57-.42-1.93-.42-2.5v-.35h20.33l-.04-2.9a27.9 27.9 0 0 0-.21-4 17.28 17.28 0 0 0-2.62-7.07 15.54 15.54 0 0 0-3.4-3.4 13.4 13.4 0 0 0-6.75-2.18 19.5 19.5 0 0 0-1.25-.03zm-69.87 0c-3.2.02-5.96 1.02-7.76 2.83-1.95 1.97-2.93 4.7-3.33 9.27a119.6 119.6 0 0 0 0 9.86c.33 3.95 1.1 6.49 2.55 8.42 1.92 2.56 5.83 4.02 9.78 3.66a9 9 0 0 0 5.85-2.51c.38-.37.72-.67.75-.67.03 0 .06 3.38.06 7.52v7.52h8.02V99.8h-7.86v3.2l-.78-.75c-2.05-1.96-4.09-2.72-7.28-2.71zm-131.91.1c-3.22 0-5.27.76-7.28 2.7l-.77.75v-3.2h-7.86v45.64h8.02v-7.57c0-4.16.04-7.56.07-7.56.04 0 .26.2.48.43a9.68 9.68 0 0 0 4.23 2.44c1.03.27 2.71.42 3.8.35 4.75-.3 7.99-2.55 9.4-6.52.68-1.94.97-3.9 1.1-7.51.1-3.12-.02-7.56-.27-9.49-.46-3.56-1.38-5.82-3.04-7.5-1.9-1.9-4.7-2.96-7.88-2.96zm17.7.25v11.22c0 6.92.03 11.58.08 12.14.22 2.42.85 4.31 2 6.02.58.85 1.8 2.1 2.55 2.63a10.8 10.8 0 0 0 4.54 1.72c1.01.15 2.97.1 3.93-.08a14.4 14.4 0 0 0 2.81-.94 13.3 13.3 0 0 0 2.46-1.7c.37-.32.7-.58.72-.58.02 0 .04.65.04 1.46v1.46H223.76V99.88h-8.02l-.02 10.8c-.03 12.19.02 11.26-.7 12.75-.28.58-.5.9-.9 1.3a5.6 5.6 0 0 1-7.54.01c-.4-.4-.62-.71-.9-1.3-.72-1.5-.67-.57-.7-12.76l-.03-10.8h-4zm88.59 0v33.35h8.02V99.88h-4zm48.4 0v11.06c0 11.42.02 12.5.34 14.06.98 4.89 4.5 8.16 9.35 8.67.64.07 1.92.06 2.63-.03 2.4-.3 4.48-1.27 6.31-2.97l.5-.47V133.23h7.78V99.88h-8.02l-.03 10.89c-.03 12.22.03 11.23-.66 12.67a4.47 4.47 0 0 1-2.16 2.16c-.39.19-.9.38-1.12.44-1.5.36-3.3.09-4.47-.67-1.33-.85-2.11-2.24-2.34-4.13-.06-.51-.1-4.09-.1-11.06v-10.3h-4zm47.26 6.49c1.18 0 1.78.13 2.76.61 1.91.94 3.18 3.1 3.35 5.7l.06.83h-12.41l.05-.57a10.5 10.5 0 0 1 1.11-3.78 5.78 5.78 0 0 1 2.28-2.16 5.34 5.34 0 0 1 2.8-.63zm-67.8.59c.6 0 1.19.05 1.56.14 2.55.65 3.7 2.69 4.01 7.03a34.4 34.4 0 0 1-.22 6.9c-.5 3-1.84 4.66-4.1 5.06-2.04.36-3.98-.16-5.02-1.34-1.09-1.23-1.52-2.84-1.7-6.24-.12-2.07-.01-5.14.21-6.47.49-2.9 1.62-4.4 3.73-4.94.36-.1.95-.14 1.54-.14zm-68.6 0c2.25 0 3.65.8 4.5 2.57.69 1.4.95 2.95 1.02 6.07.14 5.21-.5 8.11-2.08 9.48-.5.45-1.44.87-2.2 1-1.94.35-3.81-.1-4.87-1.19-.88-.9-1.4-2.19-1.68-4.15-.29-2.01-.25-6.89.08-8.76.6-3.54 2.14-5.02 5.22-5.02zm-67.83 0c2.21.01 3.58.8 4.43 2.57.78 1.61 1 3.2 1.01 6.94 0 2.65-.08 3.82-.35 5.18-.5 2.43-1.62 3.85-3.46 4.35-.6.16-2.16.23-2.8.13-2.47-.4-3.76-2.1-4.22-5.52-.19-1.4-.26-4.78-.14-6.53.21-3.1.73-4.72 1.87-5.87.86-.87 2-1.26 3.66-1.25z"/>
  <path id="path113" fill="#414445" stroke="#414445" stroke-width=".03" d="M114.65 167.81c-.34-.12-.51-.45-.4-.73a.8.8 0 0 1 .4-.35c.4-.14.78.07.83.46.05.46-.38.78-.83.62z"/>
  <path id="path185" fill="#414445" stroke="#414445" stroke-width=".06" d="M63.03 111.96c-.15-.15-.18-.22-.18-.47 0-.26.03-.31.2-.45.15-.14.22-.16.42-.13.34.04.48.21.48.58 0 .26-.03.32-.2.47-.25.23-.5.23-.72 0z"/>
  <path id="path251" fill="#414445" stroke="#414445" stroke-width=".06" d="M114.66 96.38c-.54-.19-.57-.8-.05-1.01.44-.19.84.06.84.5 0 .42-.36.65-.79.5z"/>
  <path id="path253" fill="#414445" stroke="#414445" stroke-width=".06" d="M114.55 93.95c-.16-.09-.34-.36-.34-.53 0-.05.1-.19.2-.3.17-.17.25-.2.48-.2.37 0 .56.19.56.54 0 .47-.47.73-.9.5z"/>
  <path id="path255" fill="#414445" stroke="#414445" stroke-width=".06" d="M114.41 91.42c-.1-.1-.2-.24-.2-.29 0-.33.34-.63.7-.63.48 0 .73.66.39.98-.12.1-.23.14-.42.14-.22 0-.3-.03-.47-.2z"/>
  <path id="path257" fill="#414445" stroke="#414445" stroke-width=".06" d="M114.41 89.12c-.22-.23-.24-.32-.1-.57.29-.57 1.14-.4 1.14.23 0 .35-.2.54-.56.54-.23 0-.3-.03-.48-.2z"/>
  <path id="path259" fill="#414445" stroke="#414445" stroke-width=".06" d="M114.58 86.87a.65.65 0 0 1-.29-.3c-.14-.3-.03-.54.32-.7.22-.09.29-.1.46-.04.26.09.38.26.38.54 0 .44-.44.7-.87.5z"/>
  <path id="path261" fill="#414445" stroke="#414445" stroke-width=".06" d="M114.6 84.47c-.4-.15-.47-.62-.16-.9.41-.36 1.02-.13 1.01.4 0 .13-.03.28-.07.33-.16.21-.5.29-.78.17z"/>
  <path id="path263" fill="#414445" stroke="#414445" stroke-width=".06" d="M114.41 82.02c-.22-.21-.24-.36-.11-.61.17-.33.67-.41.97-.15.15.12.18.19.18.41 0 .36-.2.56-.57.56-.22 0-.3-.04-.47-.2z"/>
  <path id="path265" fill="#414445" stroke="#414445" stroke-width=".06" d="M114.72 79.82a.66.66 0 0 1-.45-.38c-.23-.55.69-1.02 1.06-.54a.7.7 0 0 1 .06.67c-.06.12-.36.3-.48.28l-.2-.03z"/>
  <path id="path267" fill="#414445" stroke="#414445" stroke-width=".06" d="M114.52 77.32a.63.63 0 0 1-.3-.51c0-.05.08-.18.2-.3.16-.16.24-.2.47-.2.38 0 .56.19.56.56 0 .22-.03.29-.18.42-.22.18-.48.2-.75.03z"/>
  <path id="path269" fill="#414445" stroke="#414445" stroke-width=".06" d="M114.41 74.81c-.22-.22-.24-.31-.1-.57.29-.57 1.14-.4 1.14.24 0 .35-.2.53-.56.53-.23 0-.3-.03-.48-.2z"/>
  <path id="path271" fill="#414445" stroke="#414445" stroke-width=".06" d="M114.7 72.7c-.2-.05-.49-.35-.49-.5 0-.19.2-.45.4-.53.44-.19.84.06.84.5 0 .4-.34.64-.75.53z"/>
  <path id="path273" fill="#414445" stroke="#414445" stroke-width=".06" d="M114.55 70.25c-.16-.09-.34-.36-.34-.53 0-.05.1-.19.2-.3.17-.17.25-.2.48-.2.37 0 .56.19.56.54 0 .47-.47.73-.9.5z"/>
  <path id="path275" fill="#414445" stroke="#414445" stroke-width=".06" d="M114.41 67.72c-.1-.1-.2-.24-.2-.29 0-.32.34-.63.7-.63.48 0 .73.66.39.98-.12.1-.23.14-.42.14-.22 0-.3-.03-.47-.2z"/>
  <path id="path277" fill="#414445" stroke="#414445" stroke-width=".06" d="M114.41 65.42c-.1-.11-.2-.24-.2-.3 0-.32.34-.62.7-.62.47 0 .73.64.4.97-.11.12-.2.15-.42.15-.23 0-.3-.03-.48-.2z"/>
  <path id="path279" fill="#414445" stroke="#414445" stroke-width=".06" d="M114.58 63.17a.65.65 0 0 1-.29-.3c-.14-.3-.03-.54.32-.7.22-.09.29-.1.46-.04.26.09.38.26.38.54 0 .44-.44.7-.87.5z"/>
  <path id="path281" fill="#414445" stroke="#414445" stroke-width=".06" d="M114.6 60.77c-.4-.15-.47-.61-.16-.9.41-.36 1.02-.13 1.01.4 0 .13-.03.28-.07.33-.16.21-.5.29-.78.17z"/>
  <path id="path283" fill="#414445" stroke="#414445" stroke-width=".06" d="M114.4 58.32c-.17-.18-.2-.24-.16-.4.05-.28.27-.47.57-.5.23-.03.3 0 .45.13.4.34.15.98-.4.98-.2 0-.28-.04-.45-.21z"/>
  <path id="path285" fill="#414445" stroke="#414445" stroke-width=".06" d="M114.72 56.12a.66.66 0 0 1-.45-.38c-.23-.55.69-1.02 1.06-.54a.7.7 0 0 1 .06.68.6.6 0 0 1-.26.2c-.21.09-.22.09-.41.04z"/>
  <path id="path289" fill="#414445" stroke="#414445" stroke-width=".12" d="M207.56 75.6c-3.72-.5-6.22-2.15-7.62-5a9.81 9.81 0 0 1-1.12-5.16c.01-2.14.22-3.1.99-4.59 1.4-2.68 3.9-4.36 7.34-4.92.86-.14 2.16-.18 5.77-.18h4.65l-.06-1.74c-.07-2.12-.3-2.91-1.1-3.8-.99-1.1-2.41-1.55-4.9-1.55-2.62 0-4.05.5-5.44 1.9l-.8.79-2.55-2.57-2.57-2.56.94-.89c2.79-2.67 5.44-3.56 10.54-3.57 3.65 0 5.96.42 8.22 1.52 2.98 1.44 4.57 3.53 5.4 7.1.25 1.03.26 1.35.3 13.03l.04 11.96H217.78v-1.41c0-.79-.04-1.42-.1-1.42-.05 0-.27.19-.5.42a9.88 9.88 0 0 1-4.48 2.47 21.6 21.6 0 0 1-5.14.17zm6.3-6.9a5.12 5.12 0 0 0 2.56-1.4c.9-.91 1.13-1.72 1.21-4.19l.06-1.92h-3.47c-3.94 0-4.7.08-5.77.62-1.35.68-2 1.9-1.87 3.58.14 1.74 1.07 2.82 2.84 3.3.85.23 3.47.23 4.43 0z"/>
  <path id="path291" fill="#414445" stroke="#414445" stroke-width=".12" d="M233.5 58.7V42.05h7.8v3.1l.77-.71a10.6 10.6 0 0 1 7.39-2.77c3.96 0 6.93 1.56 9 4.72.66 1.03 1.21 2.4 1.56 3.88.23 1.03.24 1.4.28 13.09l.04 12.02h-8.05V64.58c0-11.7.02-11.42-.65-12.8-.78-1.6-2.26-2.56-4.27-2.73a5.1 5.1 0 0 0-5.26 2.86c-.67 1.44-.68 1.62-.69 13.03v10.43h-7.92z"/>
  <path id="path293" fill="#414445" stroke="#414445" stroke-width=".12" d="M279.13 75.37a9.3 9.3 0 0 1-2.95-.67c-2.58-1.02-4.32-3.1-5.12-6.1-.25-.95-.26-1.16-.3-10.16l-.04-9.19h-3.41V43h3.42v-9.93h8.04v9.93h5.68v6.38h-5.68v8.42c0 5.28.05 8.58.12 8.85.18.66.6 1.2 1.19 1.52.49.28.65.3 2.44.34l1.92.04v6.95l-2.15-.01c-1.19-.01-2.61-.06-3.16-.11z"/>
  <path id="path295" fill="#414445" stroke="#414445" stroke-width=".12" d="M303.36 75.65c-8.46-.84-12.68-5.95-13.08-15.83-.2-5.27.99-9.92 3.39-13.14 1.78-2.4 4.4-4.07 7.38-4.71a15.4 15.4 0 0 1 9.37.95c1.57.76 2.43 1.38 3.63 2.6a14.32 14.32 0 0 1 3.61 6.63c.51 2 .6 2.83.67 6.05l.07 2.99h-20.36v.38c0 .67.24 1.9.53 2.74a6.52 6.52 0 0 0 4.55 4.16c1 .27 3.47.28 4.72 0a8.69 8.69 0 0 0 4.12-2.24l.63-.6 2.42 2.42 2.43 2.42-.89.84a14.49 14.49 0 0 1-9.2 4.3c-1.04.1-3.09.13-4 .04zM310.5 55c-.48-4.17-2.77-6.6-6.24-6.58a5.82 5.82 0 0 0-5.08 2.83c-.5.85-.9 2.24-.99 3.36l-.08 1.01h12.46z"/>
  <path id="path297" fill="#414445" stroke="#414445" stroke-width=".12" d="M301.23 36.51c0-.04.88-2.45 1.94-5.34l1.93-5.26 4.16-.03c2.57-.02 4.15 0 4.13.08-.03.06-1.59 2.48-3.47 5.37l-3.43 5.27h-2.63a19.6 19.6 0 0 1-2.63-.09z"/>
</svg>